<svg width="500" height="125" viewBox="0 0 500 125" fill="none" xmlns="http://www.w3.org/2000/svg">
<ellipse cx="61.5157" cy="62.5" rx="61.5157" ry="62.5" fill="black"/>
<path d="M50.0048 15.7993C51.0931 15.827 51.7939 16.5205 52.7255 16.9938C53.6236 17.45 54.619 17.587 55.5975 17.6422C56.5568 17.6963 57.5119 18.1029 58.503 18.1029C59.631 18.1029 60.7976 18.5183 61.9123 18.5636C62.8549 18.6019 64.4108 18.2092 65.2713 18.5978C66.2287 19.03 67.9202 18.6714 68.8654 18.3759C69.755 18.0978 70.5848 17.7772 71.5022 17.4545C72.0972 17.2452 72.2741 17.0313 72.7535 16.6525C73.0416 16.4248 73.7639 16.3568 73.8871 16.1065" stroke="white" stroke-width="3" stroke-linecap="round" stroke-linejoin="round"/>
<path d="M49.6972 15.9766C48.9583 16.109 48.4397 16.6446 47.7335 16.8556C47.4815 16.9309 47.2296 17.1078 46.9887 17.2302C46.6821 17.3859 46.34 17.5583 46.0257 17.6812C45.8193 17.7618 45.3009 17.8965 45.1605 18.0748C45.0233 18.2491 44.5725 18.2969 44.378 18.4226C44.0551 18.6314 43.6787 18.7485 43.3285 18.9042C42.7947 19.1415 42.1814 19.2327 41.7072 19.5539" stroke="white" stroke-width="3" stroke-linecap="round" stroke-linejoin="round"/>
<path d="M41.7072 19.5566C41.0211 19.5566 40.6172 19.9692 40.0069 20.107C39.0379 20.3258 38.2115 20.9966 37.2533 21.223C36.7848 21.3337 36.3068 21.6568 35.8464 21.8269C35.3093 22.0253 34.7911 22.2417 34.2627 22.4766C33.8959 22.6396 33.5245 22.7656 33.1755 22.9429C32.9963 23.0339 32.8081 23.099 32.6338 23.1875C32.4964 23.2573 32.1841 23.258 32.0922 23.3748C31.9091 23.6072 31.3441 23.8531 31.0765 24.0131C30.827 24.1622 30.498 24.3468 30.3994 24.6475" stroke="white" stroke-width="3" stroke-linecap="round" stroke-linejoin="round"/>
<path d="M30.3994 24.645C30.9669 25.0819 31.6321 25.6827 32.0094 26.2961C32.3251 26.8094 32.8959 27.2134 33.2733 27.7064C33.5724 28.0971 33.8582 28.6305 34.0558 29.0823C34.3368 29.7247 34.8006 30.4572 34.8006 31.1806" stroke="white" stroke-width="3" stroke-linecap="round" stroke-linejoin="round"/>
<path d="M34.8007 31.1807C35.0475 31.6721 35.3009 32.0621 35.4477 32.5948C35.6441 33.3073 35.5601 33.999 35.6471 34.7236C35.7414 35.5094 35.679 36.3119 35.7637 37.0971C35.8373 37.7788 35.9518 38.4912 35.9518 39.1762C35.9518 39.9164 35.9518 40.6566 35.9518 41.3968C35.9518 41.9455 35.7393 42.5084 35.6471 43.0517C35.5258 43.7664 35.4363 44.4942 35.3575 45.2149C35.3012 45.7296 35.207 46.2806 35.207 46.7972" stroke="white" stroke-width="3" stroke-linecap="round" stroke-linejoin="round"/>
<path d="M35.2067 46.7964C35.2067 48.5277 35.2067 50.2591 35.2067 51.9904C35.2067 52.4605 35.2067 52.9306 35.2067 53.4007C35.2067 53.8262 35.3307 54.2215 35.3421 54.6391C35.3563 55.1557 35.1855 55.9719 35.4099 56.4277" stroke="white" stroke-width="3" stroke-linecap="round" stroke-linejoin="round"/>
<path d="M30.3315 24.5059C29.799 25.3799 28.7624 25.8345 28.2663 26.7417C28.0393 27.1569 27.753 27.5238 27.4726 27.9074C26.8962 28.6957 26.4776 29.5897 25.8626 30.3535C25.4203 30.9027 24.9202 31.4428 24.6099 32.0733C24.3997 32.5004 24.0271 32.8642 23.7635 33.2581C23.4887 33.6686 23.2287 34.1231 22.9096 34.5194C22.586 34.9212 22.2056 35.2079 21.8525 35.5666C21.5812 35.8422 21.359 36.3401 21.1904 36.6826" stroke="white" stroke-width="3" stroke-linecap="round" stroke-linejoin="round"/>
<path d="M21.1227 36.8242C20.3242 37.9164 19.1704 38.7416 18.5158 39.9238C18.2975 40.3182 17.9754 40.8695 17.6393 41.1621C17.4605 41.3179 16.9923 41.7451 16.9923 41.9839" stroke="white" stroke-width="3" stroke-linecap="round" stroke-linejoin="round"/>
<path d="M16.9246 41.9121C16.4193 42.5765 15.9736 43.2835 15.3936 43.8728C15.0554 44.2163 14.7995 44.6204 14.4343 44.9544C14.1224 45.2396 13.8076 45.4624 13.5729 45.8334C13.4353 46.0508 13.1328 46.4083 13.1328 46.659" stroke="white" stroke-width="3" stroke-linecap="round" stroke-linejoin="round"/>
<path d="M13.1328 46.6616C13.4791 47.0052 13.9415 47.4866 14.3516 47.7471C14.5663 47.8834 14.693 48.066 14.9346 48.1751C15.45 48.4078 15.9139 48.7638 16.3491 49.1077C16.6769 49.3667 17.0682 49.6281 17.361 49.9256C17.6533 50.2225 18.005 50.5512 18.3992 50.7053C19.0606 50.9637 19.5085 51.5956 20.1748 51.8213" stroke="white" stroke-width="3" stroke-linecap="round" stroke-linejoin="round"/>
<path d="M20.1071 51.8896C20.6528 52.6147 21.3377 52.9643 22.003 53.5254C22.6668 54.0853 23.4158 54.8135 24.2525 55.1077C24.678 55.2574 25.3385 55.5031 25.6594 55.811C26.1275 56.2601 26.5474 56.7132 27.0061 57.1792C27.419 57.5987 27.821 58.0632 28.2663 58.4252C28.426 58.555 28.6122 58.6593 28.7742 58.8074C28.9727 58.9889 29.2515 59.3516 29.4852 59.4571C29.7766 59.5887 30.1974 60.0164 30.4294 60.2521C30.6807 60.5074 30.9865 60.7192 31.1441 61.0394" stroke="white" stroke-width="3" stroke-linecap="round" stroke-linejoin="round"/>
<path d="M31.1442 61.036C31.8736 61.036 32.1016 60.7653 32.4683 60.1799C32.6618 59.871 32.9891 59.6451 33.1605 59.3162C33.2721 59.1019 33.4176 58.8737 33.5818 58.697C33.9425 58.309 34.1975 57.8039 34.5674 57.4281C34.8361 57.1551 35.0135 56.5938 35.3423 56.4268" stroke="white" stroke-width="3" stroke-linecap="round" stroke-linejoin="round"/>
<path d="M24.4409 32.4897C24.9447 32.6895 25.3724 32.9843 25.8252 33.2771C26.0127 33.3983 26.1949 33.4822 26.3706 33.621C26.5531 33.7652 26.7441 33.9694 26.9462 34.072" stroke="white" stroke-width="3" stroke-linecap="round" stroke-linejoin="round"/>
<path d="M24.9824 31.6621C25.4702 32.0376 25.9332 32.4891 26.472 32.7628" stroke="white" stroke-width="3" stroke-linecap="round" stroke-linejoin="round"/>
<path d="M49.1556 15.916C49.1556 16.7186 49.1556 17.5212 49.1556 18.3239C49.1556 18.6775 49.2233 19.0296 49.2233 19.3711C49.2233 19.6207 49.2236 20.1231 49.3249 20.3495C49.508 20.7589 49.3634 21.4945 49.4302 21.9356C49.5172 22.5101 49.5837 23.1801 49.8477 23.6899C50.0341 24.0495 50.2565 24.3697 50.4572 24.7218C50.617 25.0024 50.8329 25.3817 51.0515 25.6162C51.3176 25.9015 51.591 26.1643 51.8641 26.4417C52.1356 26.7176 52.4783 27.0033 52.7067 27.3016C52.9985 27.6828 53.5231 28.0612 53.933 28.2992C54.1946 28.451 54.3922 28.7222 54.6741 28.8495C54.9338 28.9668 55.2895 29.1085 55.3851 29.3999" stroke="white" stroke-width="3" stroke-linecap="round" stroke-linejoin="round"/>
<path d="M55.4526 29.3921C56.1123 29.4943 56.8206 29.7694 57.4539 29.996C57.9054 30.1575 58.4084 30.2209 58.8382 30.4393C59.5566 30.8043 60.3564 30.6992 61.1404 30.6992C61.8609 30.6992 62.6695 30.716 63.3599 30.5081C63.6752 30.4132 64.0615 30.4831 64.3906 30.4088C64.8467 30.3058 65.3307 30.34 65.7975 30.2712C66.6345 30.1477 67.5144 29.8705 68.3029 29.5679C68.8291 29.366 69.518 29.1616 69.943 28.773C70.7877 28.0006 71.873 27.5611 72.6816 26.7397C72.9561 26.4607 73.2715 25.7127 73.3248 25.3332C73.3792 24.9464 73.5139 24.3338 73.701 23.9917C73.9225 23.5866 73.8763 23.0383 74.1073 22.6158C74.3258 22.2161 74.3956 21.7276 74.5813 21.3125C74.7859 20.8552 74.886 20.5726 74.886 20.0704C74.886 19.6018 75.1486 19.2125 75.2283 18.7671C75.3568 18.0489 75.5631 17.3274 75.5631 16.5962" stroke="white" stroke-width="3" stroke-linecap="round" stroke-linejoin="round"/>
<path d="M73.1932 16.3976C73.6943 15.9998 73.9458 15.916 74.5813 15.916C74.8545 15.916 75.1946 16.348 75.4277 16.4664" stroke="white" stroke-width="3" stroke-linecap="round" stroke-linejoin="round"/>
<path d="M50.433 17.595C50.433 16.8968 50.5307 16.4386 50.8102 15.8706" stroke="white" stroke-width="3" stroke-linecap="round" stroke-linejoin="round"/>
<path d="M50.4328 17.3037C50.4328 18.7167 50.2635 20.3175 50.8309 21.6147C51.1457 22.3342 51.4494 23.1288 51.8262 23.818C51.9357 24.0183 52.1643 24.3468 52.2191 24.5418C52.3241 24.9151 52.6047 25.0638 52.7901 25.3934C52.9391 25.6583 53.2269 25.8431 53.3768 26.1172C53.5502 26.4344 53.8139 26.8243 54.1573 26.9794C54.5479 27.1558 54.9456 27.3772 55.3359 27.5755C55.7258 27.7735 56.2388 27.6806 56.6088 27.8895C56.9304 28.071 57.334 27.9487 57.6722 28.0545C58.0055 28.1587 58.4353 28.2511 58.7828 28.3153C59.4856 28.4451 60.1814 28.7038 60.8991 28.7038C62.239 28.7038 63.5374 28.6328 64.765 28.1077C66.3595 27.4256 67.9797 26.7508 69.5266 25.8777C70.1284 25.538 70.9668 25.5981 71.5067 25.1592C71.6662 25.0296 71.7034 24.6841 71.8577 24.5099C72.093 24.2443 72.1003 23.9682 72.261 23.6743C72.5494 23.1469 72.2642 22.3656 72.5439 21.8542C72.6839 21.5981 72.4859 21.2453 72.6644 21.0186C72.7844 20.8662 72.6853 20.279 72.6853 20.0819" stroke="white" stroke-width="3" stroke-linecap="round" stroke-linejoin="round"/>
<path d="M72.6854 20.6575C72.9466 19.1534 74.0054 17.9859 74.0054 16.4424" stroke="white" stroke-width="3" stroke-linecap="round" stroke-linejoin="round"/>
<path d="M73.5341 17.9745C72.4336 18.6563 71.4668 19.424 70.213 19.816C69.2399 20.1202 68.1595 20.4653 67.1433 20.4653C66.4104 20.4653 65.702 20.5611 64.9537 20.5611C64.6711 20.5611 64.478 20.481 64.1994 20.4227C63.7946 20.338 63.3694 20.4333 62.9736 20.3216C62.2646 20.1215 61.3749 20.1779 60.6373 20.1779C59.4939 20.1779 58.2389 20.0741 57.1276 19.816C56.6369 19.702 56.0971 19.9003 55.6137 19.7468C55.1166 19.5889 54.6258 19.5109 54.1313 19.337C53.3768 19.0716 52.6075 18.8343 51.8997 18.4748C51.6009 18.323 51.1065 18.3098 50.8573 18.1129C50.6132 17.92 50.3763 17.5913 50.0558 17.5913" stroke="white" stroke-width="3" stroke-linecap="round" stroke-linejoin="round"/>
<path d="M35.1579 56.1968C35.1579 58.0456 35.3959 59.7705 35.5403 61.6041C35.6902 63.5077 35.5351 65.3981 35.5351 67.3095C35.5351 71.812 35.5351 76.3146 35.5351 80.8171" stroke="white" stroke-width="3" stroke-linecap="round" stroke-linejoin="round"/>
<path d="M35.5353 80.8188C35.5353 89.792 35.5353 98.7652 35.5353 107.738" stroke="white" stroke-width="3" stroke-linecap="round" stroke-linejoin="round"/>
<path d="M35.5351 107.739C35.5316 107.909 35.2653 109.447 35.5351 109.463C36.6584 109.53 37.8044 109.463 38.9296 109.463C40.2291 109.463 41.4839 109.176 42.7955 109.176C44.4142 109.176 46.0018 109.08 47.6095 109.08C48.811 109.08 50.0796 109.196 51.2764 109.075C52.2536 108.975 53.2161 108.888 54.2046 108.888" stroke="white" stroke-width="3" stroke-linecap="round" stroke-linejoin="round"/>
<path d="M54.2046 108.887C54.9659 108.887 55.7088 108.983 56.4623 108.983C57.0975 108.983 57.8354 108.954 58.4477 109.127C59.1781 109.333 60.1233 109.354 60.8782 109.366C61.8834 109.382 62.8902 109.366 63.8955 109.366C65.6216 109.366 67.3308 109.27 69.0553 109.27C70.4774 109.27 71.9166 109.366 73.3246 109.366C74.9605 109.366 76.6399 109.462 78.2958 109.462C80.1102 109.462 81.9109 109.079 83.7174 109.079C85.5486 109.079 87.3628 109.175 89.1863 109.175" stroke="white" stroke-width="3" stroke-linecap="round" stroke-linejoin="round"/>
<path d="M89.1865 109.176C89.6759 109.176 90.1191 109.271 90.6009 109.271C90.9598 109.271 90.978 109.431 90.978 108.984C90.978 108.058 90.978 107.132 90.978 106.206C90.978 104.049 90.978 101.891 90.978 99.7341C90.978 97.4207 90.978 95.1073 90.978 92.7939C90.978 91.1375 90.9293 89.4842 90.4123 87.9082" stroke="white" stroke-width="3" stroke-linecap="round" stroke-linejoin="round"/>
<path d="M90.4122 88.0023C90.4122 85.9316 90.1293 83.9306 90.1293 81.8711C90.1293 80.3543 90.1293 78.8375 90.1293 77.3207C90.1293 75.7542 90.1293 74.1877 90.1293 72.6212C90.1293 71.1288 90.4122 69.6638 90.4122 68.1719" stroke="white" stroke-width="3" stroke-linecap="round" stroke-linejoin="round"/>
<path d="M90.4121 68.1739C90.4121 66.6301 90.4979 65.0259 90.2288 63.5223C90.0661 62.6135 90.035 61.7495 90.035 60.8186C90.035 59.4939 90.2236 58.232 90.2236 56.9281C90.2236 56.5299 90.6423 57.6061 90.9045 57.9021C91.0593 58.0768 91.3109 58.2953 91.4284 58.4982C91.5645 58.7333 91.9498 58.9424 92.0098 59.2167C92.0577 59.4357 92.2198 59.5785 92.2979 59.7968C92.3955 60.0693 92.3839 60.4036 92.5599 60.627C92.815 60.9511 92.977 61.3211 93.3351 61.5637" stroke="white" stroke-width="3" stroke-linecap="round" stroke-linejoin="round"/>
<path d="M75.5142 16.5361C75.7678 16.7313 76.008 17.0284 76.3105 17.1162C76.4109 17.1454 76.5844 17.2144 76.6667 17.2812C76.9289 17.4944 77.5221 17.4 77.8296 17.542C78.556 17.8775 79.3216 17.619 79.9668 18.1434C80.5994 18.6576 81.6483 18.8988 82.3974 19.1706C83.1309 19.4367 83.9989 19.2231 84.7023 19.5804C85.0783 19.7714 85.4999 19.7245 85.8862 19.9104C86.2314 20.0765 86.6923 20.1935 87.0648 20.2776C87.2394 20.317 87.5073 20.4641 87.6567 20.5597C87.9137 20.7241 88.1257 20.6819 88.3796 20.7992C88.8169 21.0011 89.327 20.9739 89.7521 21.1558C90.655 21.542 91.7152 21.5499 92.6698 21.853C93.5133 22.1208 94.0632 22.7364 94.6552 23.3379" stroke="white" stroke-width="3" stroke-linecap="round" stroke-linejoin="round"/>
<path d="M93.8065 23.626C93.2095 24.5179 92.5415 25.4502 91.8473 26.2338C91.5361 26.5851 91.4592 27.2461 91.2606 27.6495" stroke="white" stroke-width="3" stroke-linecap="round" stroke-linejoin="round"/>
<path d="M94.5607 23.4336C95.1708 24.2519 95.6581 25.18 96.3522 25.9244C97.4362 27.0869 98.1196 28.5844 99.2018 29.735C99.633 30.1935 100.332 30.807 100.616 31.3849C100.904 31.9703 101.38 32.5407 101.821 33.0135C102.198 33.4174 102.403 33.9675 102.764 34.3547C102.988 34.5946 103.073 34.8932 103.309 35.1424C103.528 35.3736 103.722 35.6931 103.895 35.962C104.451 36.8253 104.94 37.6972 105.498 38.5485C105.902 39.1631 106.516 39.6147 106.913 40.2197C107.131 40.5523 107.262 40.9277 107.499 41.2522C107.692 41.5155 107.946 41.791 108.065 42.0931C108.244 42.5478 108.729 42.9268 108.966 43.3598C109.183 43.7572 109.431 44.2038 109.72 44.5307C110.34 45.2298 110.959 45.938 111.627 46.6169" stroke="white" stroke-width="3" stroke-linecap="round" stroke-linejoin="round"/>
<path d="M111.627 46.9053C112.067 47.254 112.693 47.7788 112.287 48.2944C112.023 48.6298 111.468 48.903 111.114 49.1087C110.804 49.2888 110.479 49.6205 110.192 49.8538C109.856 50.1272 109.346 50.2576 109.008 50.5669C108.267 51.2444 107.355 51.6713 106.578 52.3179C106.091 52.7223 105.466 52.9738 105.027 53.4196C104.622 53.8307 104.019 54.2938 103.518 54.5479C102.681 54.9731 101.975 55.6173 101.114 56.0062C100.034 56.494 99.2496 57.5641 98.2381 58.135C97.7889 58.3886 97.4467 58.8543 96.9652 59.0717C96.6218 59.2268 95.9764 59.5538 95.7866 59.8914C95.2866 60.7804 94.162 61.6583 93.1464 61.6583" stroke="white" stroke-width="3" stroke-linecap="round" stroke-linejoin="round"/>
<path d="M111.685 46.6523C111.73 46.7291 111.852 46.8814 111.852 46.9729" stroke="white" stroke-width="3" stroke-linecap="round" stroke-linejoin="round"/>
<path d="M90.4978 28.335C90.4978 29.6844 90.3511 30.8694 90.2786 32.1222C90.227 33.0135 89.84 33.8406 89.84 34.845C89.84 37.7659 89.84 40.6868 89.84 43.6076C89.84 46.7013 89.7278 49.732 90.2664 52.7415C90.6001 54.6066 90.7171 60.3056 90.7171 58.41" stroke="white" stroke-width="3" stroke-linecap="round" stroke-linejoin="round"/>
<ellipse cx="250" cy="62.5" rx="61.5157" ry="62.5" fill="#549586"/>
<path d="M250.131 43.293C250.659 43.5025 251.094 43.4038 251.094 43.992C251.094 44.3077 250.957 44.5698 250.957 44.9007C250.957 45.4943 250.819 46.0714 250.819 46.7182C250.819 48.0696 250.819 49.421 250.819 50.7725C250.819 51.4137 250.954 51.982 251.087 52.5899C251.243 53.3036 250.9 54.1329 251.163 54.8268C251.335 55.2818 251.232 55.9218 251.232 56.4035C251.232 56.8983 251.37 57.3637 251.37 57.8403C251.37 58.5626 251.37 59.285 251.37 60.0073C251.37 63.3091 252.058 66.4282 252.058 69.7469C252.058 70.3155 252.007 70.9057 252.126 71.4634C252.22 71.9016 252.048 72.5262 252.226 72.9314C252.506 73.5727 252.608 74.6062 252.608 75.308C252.608 76.8447 252.47 78.4308 252.47 79.9215" stroke="white" stroke-width="3" stroke-linecap="round" stroke-linejoin="round"/>
<path d="M252.47 80.1997C252.47 80.8521 252.47 81.5045 252.47 82.157" stroke="white" stroke-width="3" stroke-linecap="round" stroke-linejoin="round"/>
<path d="M252.47 82.2983C252.47 84.2474 252.509 86.1389 252.883 88.0381C253.102 89.152 253.151 90.4197 253.464 91.4943C253.633 92.0717 253.421 92.7038 253.579 93.2652C253.77 93.9444 253.709 94.7055 253.709 95.4399C253.709 96.2971 253.846 97.1044 253.846 97.9564C253.846 99.7767 254.243 101.494 254.534 103.269" stroke="white" stroke-width="3" stroke-linecap="round" stroke-linejoin="round"/>
<path d="M254.259 102.708C254.259 104.231 254.098 105.8 254.703 107.181C254.939 107.722 254.851 108.219 254.955 108.797C255.069 109.433 255.222 110.026 255.222 110.676C255.222 112.008 255.36 113.369 255.36 114.731C255.36 115.549 255.046 117.786 255.91 118.226" stroke="white" stroke-width="3" stroke-linecap="round" stroke-linejoin="round"/>
<path d="M255.91 118.226C259.043 118.226 261.981 118.506 265.099 118.506C266.959 118.506 268.854 118.67 270.573 117.877C271.116 117.626 271.733 117.668 272.285 117.419C272.692 117.235 273.345 117.248 273.799 117.248" stroke="white" stroke-width="3" stroke-linecap="round" stroke-linejoin="round"/>
<path d="M273.627 117.369C273.958 116.938 274.22 116.759 274.22 116.214C274.22 115.863 274.22 115.511 274.22 115.16C274.22 114.565 274.516 113.954 274.516 113.352C274.516 111.697 274.319 110.096 274.319 108.431" stroke="white" stroke-width="3" stroke-linecap="round" stroke-linejoin="round"/>
<path d="M269.475 12.9126C269.627 13.704 270.047 14.3586 270.315 15.1222C270.553 15.7983 270.512 16.489 270.738 17.1532C270.966 17.8233 270.968 18.6767 271.304 19.2903C271.671 19.9618 271.895 20.7514 272.221 21.4497C272.539 22.1323 272.635 22.9701 272.984 23.6091C273.266 24.1252 273.162 24.7408 273.407 25.2663C273.877 26.2741 274.239 27.3137 274.714 28.2793" stroke="white" stroke-width="3" stroke-linecap="round" stroke-linejoin="round"/>
<path d="M229.933 12.0098C229.933 13.503 229.333 14.8437 228.923 16.2504C228.691 17.0448 228.504 17.8295 228.275 18.6162C228.096 19.23 227.988 19.9715 227.736 20.5468C227.248 21.6628 226.968 22.8818 226.495 23.9617C226.103 24.858 225.781 26.1398 225.781 27.1756" stroke="white" stroke-width="3" stroke-linecap="round" stroke-linejoin="round"/>
<path d="M227.56 7.2959C227.478 7.72293 227.556 8.30972 227.385 8.702C227.255 8.99975 227.471 9.40862 227.341 9.70636C227.101 10.2535 227.003 10.9745 226.874 11.5644C226.538 13.1007 226.12 14.6122 225.776 16.1845C225.336 18.1958 224.595 20.1725 224.595 22.2609C224.595 24.6011 224.101 26.9548 224.101 29.2914" stroke="white" stroke-width="3" stroke-linecap="round" stroke-linejoin="round"/>
<path d="M227.477 7.20215C227.941 7.20215 228.405 7.20215 228.869 7.20215C229.399 7.20215 229.843 7.42162 230.348 7.53565C230.665 7.60727 230.965 7.73704 231.276 7.82904C231.612 7.92793 231.947 7.98778 232.272 8.10555C232.746 8.27777 233.338 8.22231 233.834 8.26808C234.342 8.31505 234.863 8.39872 235.348 8.54881C235.631 8.63621 235.933 8.75096 236.227 8.78943C236.601 8.83821 236.976 8.83643 237.347 8.91186C237.581 8.95934 237.796 9.06466 238.03 9.11027C238.354 9.17327 238.688 9.24287 239.013 9.29179C239.36 9.34393 239.7 9.41071 240.05 9.45221C240.674 9.52633 241.236 9.72019 241.836 9.89969" stroke="white" stroke-width="3" stroke-linecap="round" stroke-linejoin="round"/>
<path d="M240.191 9.3291C240.602 9.3291 241.014 9.3291 241.425 9.3291C241.523 9.3291 241.613 9.38558 241.708 9.40298C241.97 9.45146 242.226 9.52737 242.493 9.56551C243.879 9.76382 245.281 9.91165 246.615 10.3634C246.804 10.4274 246.992 10.4539 247.184 10.4985C247.535 10.58 247.91 10.6325 248.268 10.6884C248.602 10.7405 248.985 10.8108 249.315 10.8108C249.413 10.8108 249.428 10.6902 249.428 10.6019C249.428 10.4631 249.469 10.4659 249.577 10.3929" stroke="white" stroke-width="3" stroke-linecap="round" stroke-linejoin="round"/>
<path d="M249.577 10.3931C250.02 10.3931 250.464 10.3931 250.907 10.3931C251.506 10.3931 252.099 10.3172 252.698 10.3172C253.141 10.3172 253.604 10.3541 254.046 10.315C254.467 10.2778 254.873 10.0307 255.259 10.3003C255.426 10.4171 255.461 10.5451 255.681 10.5451C256.077 10.5451 256.49 10.3283 256.848 10.1652C257.314 9.95369 257.856 9.98304 258.328 9.82324" stroke="white" stroke-width="3" stroke-linecap="round" stroke-linejoin="round"/>
<path d="M258.141 9.78502C258.668 9.78502 259.209 9.60171 259.709 9.44519C260.045 9.34013 260.427 9.19538 260.773 9.14124C261.2 9.07444 261.616 8.93482 262.044 8.85418C262.819 8.70851 263.546 8.41726 264.34 8.41726C264.725 8.41726 265.111 8.45525 265.487 8.45525C265.686 8.45525 265.88 8.50674 266.087 8.49113C266.397 8.46784 266.687 8.34127 267.001 8.34127C267.906 8.34127 268.758 7.92334 269.658 7.92334" stroke="white" stroke-width="3" stroke-linecap="round" stroke-linejoin="round"/>
<path d="M269.172 7.85382C269.381 7.85382 269.616 7.82977 269.816 7.76939C270.006 7.71214 270.227 7.70462 270.406 7.62586C270.802 7.45211 271.22 7.42753 271.632 7.35146C271.788 7.32267 272.4 7.21992 272.538 7.35991C272.691 7.51576 272.725 7.96357 272.725 8.17677C272.725 9.33845 273.547 10.3143 273.547 11.4632" stroke="white" stroke-width="3" stroke-linecap="round" stroke-linejoin="round"/>
<path d="M230.506 7.42871C230.868 7.48908 231.267 7.63518 231.619 7.7411C231.899 7.82544 232.202 7.79529 232.49 7.86353C233.099 8.00799 233.754 7.92341 234.357 8.0936C235.025 8.28208 235.763 8.26457 236.452 8.26457" stroke="white" stroke-width="3" stroke-linecap="round" stroke-linejoin="round"/>
<path d="M236.451 8.26758C237.296 8.26758 238.048 8.43517 238.882 8.56308C239.427 8.64659 239.953 8.64751 240.509 8.64751C241.401 8.64751 242.293 8.64751 243.185 8.64751C243.601 8.64751 244.017 8.64751 244.433 8.64751C244.759 8.64751 245.108 8.6814 245.426 8.60952" stroke="white" stroke-width="3" stroke-linecap="round" stroke-linejoin="round"/>
<path d="M245.314 8.75879C248.69 8.75879 252.038 8.88086 255.411 8.88086" stroke="white" stroke-width="3" stroke-linecap="round" stroke-linejoin="round"/>
<path d="M255.411 8.87522C256.784 8.87522 258.131 8.86524 259.495 8.98075C260.091 9.03119 260.702 9.02719 261.301 9.02719C261.467 9.02719 261.621 8.98525 261.785 8.95965C261.918 8.93886 262.219 9.02171 262.291 8.87522" stroke="white" stroke-width="3" stroke-linecap="round" stroke-linejoin="round"/>
<path d="M224.148 28.7817C224.148 29.1238 224.148 29.4659 224.148 29.808C224.148 30.2361 224.233 30.6324 224.279 31.0573C224.366 31.8485 224.411 32.6032 224.411 33.4022C224.411 36.1501 224.323 38.8826 224.323 41.6318" stroke="white" stroke-width="3" stroke-linecap="round" stroke-linejoin="round"/>
<path d="M224.367 41.2778C224.367 41.5422 224.367 41.8066 224.367 42.071C224.367 42.2445 224.363 42.5193 224.301 42.6833C224.206 42.9354 224.279 43.3303 224.279 43.598C224.279 43.969 224.279 44.34 224.279 44.711C224.279 45.1779 224.293 45.685 224.201 46.1412C224.024 47.0208 224.104 47.9692 224.104 48.863" stroke="white" stroke-width="3" stroke-linecap="round" stroke-linejoin="round"/>
<path d="M224.104 48.9512C224.104 49.8844 224.103 50.8139 224.058 51.7448C224.029 52.3527 223.929 52.9524 223.929 53.5642C223.929 53.6912 224.012 54.2855 223.885 54.35" stroke="white" stroke-width="3" stroke-linecap="round" stroke-linejoin="round"/>
<path d="M223.885 54.3516C223.885 55.096 223.885 55.8405 223.885 56.585C223.885 56.9674 223.879 57.3503 223.885 57.7326C223.891 58.0995 224.011 58.4702 224.06 58.8332C224.14 59.4226 224.236 59.9912 224.236 60.5882C224.236 61.2829 224.051 61.9567 224.017 62.6506" stroke="white" stroke-width="3" stroke-linecap="round" stroke-linejoin="round"/>
<path d="M224.016 62.3379C224.016 63.0188 224.023 63.6943 223.97 64.3705C223.956 64.5379 223.93 64.7178 223.894 64.8811C223.864 65.0199 223.913 65.1707 223.862 65.305C223.747 65.6099 223.841 66.1152 223.906 66.4205C223.988 66.8045 224.07 67.1853 224.101 67.5781C224.18 68.5717 224.192 69.5886 224.192 70.5873C224.192 72.0571 223.729 73.5516 224.016 75.0095" stroke="white" stroke-width="3" stroke-linecap="round" stroke-linejoin="round"/>
<path d="M223.929 75.0078C223.929 76.2351 223.935 77.443 224.127 78.6492C224.279 79.6059 224.28 80.5462 224.28 81.5122C224.28 81.8096 224.28 82.1071 224.28 82.4045C224.28 82.6607 224.28 82.9168 224.28 83.173C224.28 84.3775 224.652 85.4359 225.027 86.564" stroke="white" stroke-width="3" stroke-linecap="round" stroke-linejoin="round"/>
<path d="M224.411 84.7363C224.411 85.1231 224.504 85.6548 224.389 86.0278C224.337 86.1962 224.323 86.4344 224.323 86.6103C224.323 86.9125 224.304 87.2009 224.282 87.5002C224.253 87.8795 224.341 88.2904 224.257 88.6627C224.179 89.0121 224.235 89.4305 224.235 89.7881C224.235 90.3731 224.235 90.9581 224.235 91.5431C224.235 91.929 224.323 92.3082 224.323 92.6982C224.323 93.0692 224.323 93.4402 224.323 93.8112C224.323 94.0524 224.314 94.1833 224.455 94.3739" stroke="white" stroke-width="3" stroke-linecap="round" stroke-linejoin="round"/>
<path d="M224.367 93.8823C224.367 94.5281 224.352 95.1623 224.282 95.8009C224.251 96.079 224.192 96.3655 224.192 96.6487C224.192 97.2848 224.221 97.8931 224.277 98.5226C224.362 99.478 224.411 100.413 224.411 101.378C224.411 102.081 224.411 102.783 224.411 103.485C224.411 104.031 224.394 104.579 224.414 105.124C224.451 106.176 224.663 107.181 224.894 108.205" stroke="white" stroke-width="3" stroke-linecap="round" stroke-linejoin="round"/>
<path d="M224.894 108.203C224.894 109.018 224.937 109.843 224.797 110.647C224.736 110.993 224.682 111.367 224.675 111.718C224.658 112.494 224.675 113.275 224.675 114.048C224.675 114.283 224.763 114.526 224.763 114.762C224.763 114.993 224.763 115.225 224.763 115.456C224.763 115.9 224.806 116.361 224.806 116.814C224.806 116.979 224.787 117.127 224.982 117.127C225.268 117.127 225.555 117.127 225.841 117.127C226.582 117.127 227.315 117.082 228.056 117.082C228.539 117.082 229.022 117.038 229.508 117.038C229.945 117.038 230.336 117.158 230.762 117.238C231.975 117.467 233.224 117.55 234.424 117.841" stroke="white" stroke-width="3" stroke-linecap="round" stroke-linejoin="round"/>
<path d="M244.612 103.876C244.612 104.833 244.561 105.725 244.271 106.632C244.024 107.405 243.889 108.178 243.734 108.962" stroke="white" stroke-width="3" stroke-linecap="round" stroke-linejoin="round"/>
<path d="M244.437 106.643C244.437 107.057 244.46 107.479 244.434 107.892C244.424 108.06 244.358 108.221 244.349 108.383C244.34 108.533 244.292 108.711 244.239 108.852C244.173 109.025 244.195 109.238 244.163 109.419C244.024 110.218 243.954 111.004 243.954 111.819C243.954 112.629 243.778 113.414 243.778 114.226C243.778 114.982 243.734 115.777 243.734 116.548" stroke="white" stroke-width="3" stroke-linecap="round" stroke-linejoin="round"/>
<path d="M243.734 116.546C243.734 116.81 243.83 117.329 243.712 117.592C243.64 117.752 243.613 118.02 243.602 118.197C243.59 118.414 243.289 118.121 243.205 118.11C242.918 118.074 242.606 118.018 242.319 118.018C241.803 118.018 241.304 117.884 240.792 117.884C240.299 117.884 239.822 117.974 239.34 117.974C238.283 117.974 237.237 118.018 236.178 118.018C235.781 118.018 235.377 117.974 234.992 117.974C234.803 117.974 234.598 117.998 234.424 117.919C234.34 117.881 234.269 117.906 234.185 117.882C234.12 117.863 234.099 117.774 234.029 117.751" stroke="white" stroke-width="3" stroke-linecap="round" stroke-linejoin="round"/>
<path d="M250.058 43.5498C250.058 43.8982 250.042 44.2602 249.968 44.5983C249.925 44.794 249.777 44.9603 249.753 45.1585C249.683 45.7273 249.486 46.2879 249.333 46.8466C249.244 47.1749 249.18 47.515 249.18 47.858C249.18 48.1992 249.218 48.57 249.145 48.904C249.072 49.2382 249.056 49.6418 249.048 49.9848C249.042 50.2462 249.004 50.5099 249.004 50.778" stroke="white" stroke-width="3" stroke-linecap="round" stroke-linejoin="round"/>
<path d="M249.048 50.4238C249.048 51.4393 248.96 52.4271 248.96 53.4356C248.96 54.1659 248.872 54.8734 248.872 55.5996" stroke="white" stroke-width="3" stroke-linecap="round" stroke-linejoin="round"/>
<path d="M248.784 55.9557C248.809 55.8396 248.954 55.4642 248.95 55.4748C248.878 55.7034 248.847 55.946 248.794 56.1788C248.727 56.4774 248.758 56.8031 248.706 57.1059C248.66 57.3739 248.653 57.6904 248.653 57.9635C248.653 59.4079 248.669 60.8498 248.543 62.289C248.484 62.9627 248.465 63.6318 248.392 64.2993C248.32 64.952 248.345 65.6303 248.345 66.2873C248.345 66.9579 248.32 67.6118 248.255 68.2728C248.211 68.7157 248.138 69.1621 248.062 69.6015C248.036 69.7556 248.009 70.0697 247.862 70.1443" stroke="white" stroke-width="3" stroke-linecap="round" stroke-linejoin="round"/>
<path d="M248.038 70.0996C248.038 71.1481 247.85 72.1882 247.677 73.2229C247.589 73.7488 247.555 74.3202 247.555 74.8539C247.555 75.3998 247.479 75.9493 247.467 76.4899C247.456 76.971 247.379 77.4524 247.379 77.9301C247.379 78.3591 247.326 78.8799 247.203 79.291C247.118 79.5771 247.132 79.8824 247.072 80.1734C247.015 80.4456 246.962 80.7097 246.938 80.9865C246.914 81.245 246.764 82.0045 246.764 81.745" stroke="white" stroke-width="3" stroke-linecap="round" stroke-linejoin="round"/>
<path d="M246.764 81.6987C246.764 82.0854 246.764 82.4721 246.764 82.8588C246.764 83.0715 246.799 83.321 246.742 83.5281C246.636 83.9166 246.622 84.3739 246.586 84.7774C246.537 85.3285 246.543 85.8858 246.491 86.4382C246.441 86.9728 246.434 87.5094 246.379 88.0444C246.346 88.3558 246.38 88.7118 246.315 89.0161C246.144 89.8211 245.968 90.6362 245.82 91.4478C245.637 92.4534 245.447 93.4677 245.447 94.5042" stroke="white" stroke-width="3" stroke-linecap="round" stroke-linejoin="round"/>
<path d="M245.491 94.1953C245.491 94.7762 245.507 95.3598 245.488 95.9404C245.472 96.4672 245.343 96.9869 245.317 97.5144C245.285 98.1921 245.257 98.8675 245.225 99.5446C245.19 100.29 245.045 101.027 244.954 101.766C244.877 102.388 244.74 102.986 244.622 103.6C244.601 103.711 244.589 103.867 244.481 103.922" stroke="white" stroke-width="3" stroke-linecap="round" stroke-linejoin="round"/>
<path d="M274.133 108.136C274.133 105.329 274.694 102.651 274.694 99.8459C274.694 98.2793 274.806 96.639 274.806 95.0366" stroke="white" stroke-width="3" stroke-linecap="round" stroke-linejoin="round"/>
<path d="M273.124 11.0874C273.124 12.2032 273.237 13.3473 273.237 14.4413C273.237 14.8291 273.349 15.1071 273.349 15.4727C273.349 15.868 273.737 16.3415 273.791 16.7763C273.894 17.6136 274.048 18.4355 274.14 19.2759C274.272 20.4828 275.102 21.5066 275.248 22.6993C275.319 23.2698 275.479 23.7726 275.479 24.3573C275.479 24.7074 275.499 25.3696 275.597 25.7178C276.188 27.819 275.703 30.3194 275.703 32.5014C275.703 33.635 275.591 34.77 275.591 35.9185C275.591 37.0459 275.815 38.2579 275.815 39.4496" stroke="white" stroke-width="3" stroke-linecap="round" stroke-linejoin="round"/>
<path d="M275.815 39.4526C275.815 43.8575 275.703 48.2475 275.703 52.6655C275.703 54.7904 276.151 56.832 276.151 58.9556C276.151 61.5017 276.226 64.0345 275.927 66.5619" stroke="white" stroke-width="3" stroke-linecap="round" stroke-linejoin="round"/>
<path d="M275.703 66.7891C275.703 68.271 275.927 69.7059 275.927 71.1807C275.927 72.3071 275.927 73.4335 275.927 74.5599C275.927 76.0912 275.927 77.6226 275.927 79.154C275.927 83.5175 275.693 87.8334 275.479 92.1897" stroke="white" stroke-width="3" stroke-linecap="round" stroke-linejoin="round"/>
<path d="M275.479 92.9875C275.344 93.7232 275.344 94.525 275.117 95.2403C275.053 95.4432 275.065 95.7053 274.943 95.8604C274.828 96.0068 274.918 96.268 274.918 95.8351C274.918 95.4913 274.918 95.1475 274.918 94.8037C274.918 93.4747 274.557 89.6347 275.142 90.8233" stroke="white" stroke-width="3" stroke-linecap="round" stroke-linejoin="round"/>
<path d="M275.591 91.9595C275.581 92.5539 275.367 93.0983 275.367 93.668" stroke="white" stroke-width="3" stroke-linecap="round" stroke-linejoin="round"/>
<path d="M240.146 9.80762C240.137 10.2266 239.924 10.6548 239.924 11.0441C239.924 11.2612 239.947 11.478 239.867 11.6811C239.773 11.9192 239.777 12.4654 239.777 12.7261C239.777 12.9391 239.703 13.1127 239.703 13.3298C239.703 13.8792 239.629 14.4798 239.629 15.0534C239.629 15.1375 239.582 15.5484 239.67 15.5739C239.831 15.6206 240.132 15.6439 240.293 15.653C240.451 15.6618 240.691 15.6927 240.842 15.6488C240.93 15.6233 240.93 14.6871 240.941 14.6038C241.027 13.9229 241.326 13.2758 241.326 12.5971C241.326 12.0414 241.4 11.4643 241.4 10.9317C241.4 10.5858 241.342 10.002 241.695 9.88256" stroke="white" stroke-width="3" stroke-linecap="round" stroke-linejoin="round"/>
<path d="M227.09 11.6067C227.603 11.6067 228.164 11.5438 228.672 11.615C229.029 11.665 229.372 11.8805 229.729 11.9065C230.185 11.9395 230.783 11.9702 231.221 12.0938C231.477 12.1663 231.823 12.1939 232.089 12.2062C232.459 12.2233 232.812 12.3763 233.175 12.431C233.734 12.5151 234.287 12.7426 234.835 12.8973C236.255 13.298 237.772 13.4802 239.26 13.4802" stroke="white" stroke-width="3" stroke-linecap="round" stroke-linejoin="round"/>
<path d="M241.326 13.7036C242.363 13.7036 243.297 13.8371 244.317 14.0034C244.849 14.09 245.377 14.1533 245.915 14.1533C246.284 14.1533 246.606 14.0783 246.968 14.0783C247.305 14.0783 247.508 14.2939 247.784 14.3739C247.938 14.4186 248.5 14.4937 248.554 14.6029" stroke="white" stroke-width="3" stroke-linecap="round" stroke-linejoin="round"/>
<path d="M253.201 14.4546C253.201 17.1255 253.275 19.7854 253.275 22.4565C253.275 23.1615 253.275 23.8665 253.275 24.5715C253.275 25.1254 253.127 25.6706 253.127 26.2202C253.127 27.0261 253.008 27.8621 252.98 28.6766C252.965 29.0956 252.853 29.9046 252.554 30.2087C252.345 30.421 251.946 30.7526 251.816 31.0164C251.665 31.3228 251.365 31.8254 250.972 31.8407C250.517 31.8585 250.105 32.2154 249.661 32.2154" stroke="white" stroke-width="3" stroke-linecap="round" stroke-linejoin="round"/>
<path d="M248.407 14.5312C249.471 14.5312 250.63 14.6697 251.656 14.3438C252.277 14.1467 252.99 13.9316 253.64 13.9316C254.068 13.9316 254.494 14.0815 254.934 14.0815C255.34 14.0815 255.746 14.0815 256.151 14.0815C256.747 14.0815 257.333 14.0066 257.922 14.0066" stroke="white" stroke-width="3" stroke-linecap="round" stroke-linejoin="round"/>
<path d="M249.218 14.6064C249.218 15.4636 248.997 16.2541 248.997 17.1128C248.997 18.0872 248.923 19.0768 248.923 20.0604C248.923 21.5991 249.144 23.1147 249.144 24.6651C249.144 25.4271 248.999 26.3484 249.161 27.0881C249.303 27.7394 249.193 28.4299 249.308 29.0866C249.455 29.9247 249.366 30.8239 249.366 31.6762C249.366 31.8779 249.458 32.5824 249.292 32.667" stroke="white" stroke-width="3" stroke-linecap="round" stroke-linejoin="round"/>
<path d="M256.963 10.2602C257.259 10.9621 257.68 11.5731 257.844 12.321C257.972 12.9064 257.922 13.5716 257.922 14.1987C257.922 14.6179 257.879 15.1337 258.143 15.4685C258.343 15.7231 258.893 15.8736 259.213 15.8016C259.353 15.77 259.692 15.7255 259.692 15.5434C259.692 15.3746 259.555 15.0623 259.487 14.9065C259.234 14.3267 259.257 13.4406 259.18 12.8123C259.102 12.1771 259.005 11.4434 258.75 10.8597C258.622 10.5676 258.512 9.97043 258.512 9.66064" stroke="white" stroke-width="3" stroke-linecap="round" stroke-linejoin="round"/>
<path d="M258.807 13.7072C259.431 13.7072 259.924 13.6165 260.528 13.499C260.88 13.4304 261.261 13.5041 261.618 13.4782C262.646 13.4036 263.711 12.8814 264.708 12.6247C265.456 12.4321 266.228 12.2833 266.998 12.2833C267.504 12.2833 268.003 12.1475 268.502 12.1334C269.417 12.1076 270.267 11.7587 271.199 11.7587C271.611 11.7587 272.026 11.7237 272.416 11.5714C272.72 11.4526 273.231 11.3091 273.559 11.3091" stroke="white" stroke-width="3" stroke-linecap="round" stroke-linejoin="round"/>
<path d="M250.693 11.3833C250.012 11.6776 249.542 12.2322 249.898 12.957C250.122 13.412 251.005 13.6481 251.374 13.2734C251.792 12.8485 252.021 12.3707 252.021 11.758C252.021 11.4558 251.783 11.3083 251.505 11.3083C251.18 11.3083 250.851 11.2334 250.546 11.2334" stroke="white" stroke-width="3" stroke-linecap="round" stroke-linejoin="round"/>
<path d="M250.746 11.9886C250.76 11.9944 250.807 12.0252 250.813 11.9938C250.816 11.9798 250.814 11.9733 250.804 11.9678" stroke="white" stroke-width="3" stroke-linecap="round" stroke-linejoin="round"/>
<path d="M251.245 11.958C251.235 11.987 251.226 12.011 251.226 12.0416" stroke="white" stroke-width="3" stroke-linecap="round" stroke-linejoin="round"/>
<path d="M250.698 12.4708C250.697 12.4363 250.701 12.4189 250.669 12.4189" stroke="white" stroke-width="3" stroke-linecap="round" stroke-linejoin="round"/>
<path d="M250.976 12.4248C250.996 12.4297 251.016 12.4359 251.034 12.4457" stroke="white" stroke-width="3" stroke-linecap="round" stroke-linejoin="round"/>
<ellipse cx="438.484" cy="62.5" rx="61.5157" ry="62.5" fill="#6077C6"/>
<path d="M393.379 56.4443C393.379 58.3289 393.621 59.9358 394.482 61.5992C394.802 62.2161 394.934 62.9895 395.106 63.6892C395.287 64.424 395.625 65.4004 396.03 66.0472C396.942 67.503 398.3 68.2675 399.58 69.3315C400.003 69.6828 400.489 69.9911 400.936 70.3186C401.446 70.6935 401.791 71.2617 402.291 71.6652C403.023 72.2556 404.021 73.2794 404.174 74.2121" stroke="white" stroke-width="3" stroke-linecap="round" stroke-linejoin="round"/>
<path d="M404.173 74.2134C404.82 75.0497 405.361 75.9686 406.092 76.7116C406.806 77.4371 407.646 78.1295 408.143 79.0392C408.629 79.9278 409.594 80.5516 410.087 81.4521C410.432 82.0837 410.585 82.7235 410.974 83.3166" stroke="white" stroke-width="3" stroke-linecap="round" stroke-linejoin="round"/>
<path d="M410.866 83.208C411.335 83.8369 411.843 84.3977 412.317 85.0177C412.706 85.5247 412.905 86.1302 413.349 86.608C414.268 87.597 414.709 88.9924 415.778 89.8374C416.315 90.2622 416.974 90.7503 417.559 91.0804C418.085 91.3771 418.807 91.7148 419.232 92.1468C420.112 93.0408 421.092 93.7421 422.093 94.5048" stroke="white" stroke-width="3" stroke-linecap="round" stroke-linejoin="round"/>
<path d="M422.093 94.5049C422.84 94.6674 423.302 94.9226 423.928 95.297C424.243 95.485 424.609 95.859 424.954 95.9368C425.844 96.1377 426.639 96.8932 427.497 97.1981C428.62 97.5976 429.683 97.9854 430.813 98.368C431.761 98.6891 432.948 99.0627 433.644 99.7694" stroke="white" stroke-width="3" stroke-linecap="round" stroke-linejoin="round"/>
<path d="M433.536 99.55C435.715 99.55 437.675 100.647 439.881 100.647C440.573 100.647 441.264 100.647 441.956 100.647C442.693 100.647 443.404 100.248 444.115 100.208C444.673 100.177 445.196 99.7693 445.782 99.7693C446.568 99.7693 447.341 99.3604 448.133 99.3306C448.38 99.3213 448.784 99.1626 448.973 99.0016C449.144 98.8549 449.497 98.5333 449.674 98.4532C450.444 98.1055 451.086 97.2848 451.833 96.8628C452.229 96.6395 452.778 96.0579 452.991 95.7112C453.079 95.5686 453.307 95.3179 453.423 95.1872C453.634 94.9482 453.566 94.5781 453.669 94.2854C453.864 93.73 453.9 93.1173 454.07 92.5549C454.258 91.9344 454.37 91.2164 454.37 90.5625C454.37 89.9349 454.586 89.312 454.586 88.6918C454.586 88.1435 454.586 87.5951 454.586 87.0467C454.586 86.5012 454.616 85.946 454.586 85.4015C454.557 84.8728 454.212 84.261 454.046 83.7563" stroke="white" stroke-width="3" stroke-linecap="round" stroke-linejoin="round"/>
<path d="M454.046 83.7542C453.858 83.2917 453.73 82.8607 453.345 82.5478C453.109 82.3565 452.816 82.0527 452.667 81.78C452.31 81.1262 451.994 80.1776 451.402 79.6961C451.168 79.5065 450.971 78.992 450.832 78.709C450.66 78.3606 450.438 78.0573 450.244 77.7219C450.156 77.5696 449.789 76.9143 449.668 76.8445C449.385 76.68 449.194 75.9727 448.919 75.6929C448.425 75.1911 447.888 74.448 447.293 74.1026C446.593 73.6957 445.878 73.2194 445.194 72.8108C444.919 72.6462 444.772 72.2869 444.499 72.1284C444.197 71.9534 443.606 71.5126 443.467 71.1961C443.091 70.3365 442.353 69.9845 441.632 69.4961" stroke="white" stroke-width="3" stroke-linecap="round" stroke-linejoin="round"/>
<path d="M441.632 69.4955C440.732 68.1241 439.577 67.0723 438.933 65.6019C438.611 64.8649 437.968 63.6511 437.266 63.2438C437.071 63.1308 436.666 62.3388 436.558 62.0922C436.364 61.6476 435.919 61.2982 435.587 60.9406C434.967 60.2738 434.352 59.4982 433.668 58.942C433.139 58.5126 432.62 57.9266 432.132 57.4309C431.838 57.1316 431.291 56.9111 431.053 56.6083C430.559 55.9812 430.148 55.5405 429.865 54.7499C429.781 54.5142 429.58 53.8646 429.38 53.7018C429.033 53.4198 428.608 53.2444 428.378 52.8244C428.114 52.341 427.645 52.0357 427.383 51.5692C427.196 51.238 426.961 50.8008 426.627 50.6309" stroke="white" stroke-width="3" stroke-linecap="round" stroke-linejoin="round"/>
<path d="M426.627 50.632C426.124 49.9296 425.525 49.4642 424.924 48.8528C424.474 48.3955 424.34 47.6024 424.036 47.0614C423.258 45.6785 422.666 44.2325 421.229 43.5029" stroke="white" stroke-width="3" stroke-linecap="round" stroke-linejoin="round"/>
<path d="M421.229 43.505C421.399 42.6197 422.201 41.8098 422.201 40.9214C422.201 40.4336 422.229 39.9341 422.201 39.4469C422.18 39.0929 421.877 38.7521 421.877 38.3501" stroke="white" stroke-width="3" stroke-linecap="round" stroke-linejoin="round"/>
<path d="M421.877 38.3481C421.97 37.864 422.67 36.2508 422.177 35.8499C421.569 35.3558 420.847 37.0229 420.798 37.4707C420.748 37.9224 420.534 38.0518 420.282 38.3725C420.077 38.6327 419.998 39.0344 419.85 39.3352C419.658 39.7251 419.587 40.1559 419.418 40.5416C419.281 40.8565 419.419 41.2781 419.202 41.5531C418.983 41.8318 419.095 42.4119 418.831 42.7108C418.659 42.9044 418.082 42.8888 417.907 42.7108C417.758 42.5593 417.991 41.8526 417.991 41.6384C417.991 40.9718 417.666 41.2179 417.259 40.8463C417.011 40.6197 416.977 40.3689 416.588 40.3223C416.184 40.2741 415.808 40.0176 415.4 39.9933C415.075 39.9738 414.703 39.862 414.321 39.8836C413.976 39.903 413.732 40.1828 413.457 40.3223" stroke="white" stroke-width="3" stroke-linecap="round" stroke-linejoin="round"/>
<path d="M413.457 40.3209C413.054 39.9915 412.65 39.6771 412.269 39.3338C411.941 39.0373 411.686 38.6181 411.352 38.3467C410.724 37.8367 410.121 37.7184 409.463 37.384C409.141 37.2205 408.725 37.181 408.467 36.9453C408.26 36.7559 407.66 36.4588 407.406 36.3725C406.72 36.1405 406.081 35.4951 405.361 35.4951" stroke="white" stroke-width="3" stroke-linecap="round" stroke-linejoin="round"/>
<path d="M405.361 35.4967C404.552 35.4967 403.864 35.3836 403.142 35.1738C402.833 35.0842 402.433 34.8517 402.098 34.8387C401.326 34.8085 400.546 34.729 399.747 34.729C399.13 34.729 398.599 35.255 398.212 35.6917C397.793 36.1653 397.222 36.8811 397.043 37.5197C396.964 37.7995 396.718 38.1705 396.593 38.4581C396.42 38.8534 396.279 39.2427 396.131 39.6645C395.95 40.1801 395.849 40.716 395.669 41.2244C395.547 41.5678 395.321 41.9818 395.321 42.3516C395.321 42.6086 395.164 43.1445 395.081 43.4179C394.947 43.8611 394.897 44.3278 394.776 44.7584C394.681 45.0948 394.253 47.1284 394.674 47.342" stroke="white" stroke-width="3" stroke-linecap="round" stroke-linejoin="round"/>
<path d="M394.674 47.3413C394.674 48.4649 394.731 49.5724 394.404 50.6377C394.197 51.3103 394.535 52.2594 394.002 52.8008C393.589 53.2203 393.486 54.1625 393.486 54.7446C393.486 55.5027 393.27 56.3365 393.27 57.1026" stroke="white" stroke-width="3" stroke-linecap="round" stroke-linejoin="round"/>
<path d="M428.03 76.9566C427.845 76.4741 427.35 75.3613 428.084 75.1956C428.68 75.061 429.03 74.4991 429.542 74.239C430.543 73.7303 431.221 72.953 432.24 72.4354C433.48 71.8058 434.637 71.097 435.803 70.4003C436.679 69.8766 437.417 69.1694 438.502 69.1694C439.132 69.1694 438.907 70.087 439.095 70.4307C439.39 70.9703 438.829 71.0791 438.526 71.3874C438.231 71.687 437.875 72.2004 437.47 72.3501C436.912 72.5563 436.227 73.0401 435.803 73.4469C434.917 74.2971 433.538 74.5898 432.516 75.2505C432.169 75.475 431.449 75.9458 431.053 75.9695C430.532 76.0006 429.948 76.6417 429.488 76.9017C429.303 77.0058 428.944 77.0662 428.732 77.0662C428.454 77.0662 428.317 77.2856 428.03 77.2856" stroke="white" stroke-width="3" stroke-linecap="round" stroke-linejoin="round"/>
<path d="M431.701 75.6401C431.946 76.2557 432.311 77.3557 432.756 77.8581C433.139 78.2903 433.104 79.0516 433.104 79.6129C433.104 81.0448 432.477 82.6386 431.917 83.9208C431.356 85.2018 430.285 86.4724 429.979 87.8692C429.736 88.9825 429.464 90.1352 429.11 91.2144" stroke="white" stroke-width="3" stroke-linecap="round" stroke-linejoin="round"/>
<path d="M430.837 70.3769C431.146 68.9102 431.629 67.3181 432.696 66.2335C433.078 65.8456 433.506 65.7705 434.022 65.7705C434.598 65.7705 434.916 65.6739 435.179 66.2092C435.434 66.7282 435.717 67.1734 435.209 67.6898C434.865 68.0397 434.485 68.619 434.267 69.0608C434.154 69.2906 433.764 69.9915 433.764 70.2124C433.764 70.4141 435.156 70.1576 435.263 70.1576" stroke="white" stroke-width="3" stroke-linecap="round" stroke-linejoin="round"/>
<path d="M434.507 69.4961C434.784 69.7005 435.431 70.0561 435.587 70.3735" stroke="white" stroke-width="3" stroke-linecap="round" stroke-linejoin="round"/>
<path d="M431.161 65.4399C431.308 65.7922 431.54 66.1013 431.701 66.427" stroke="white" stroke-width="3" stroke-linecap="round" stroke-linejoin="round"/>
<path d="M425.763 73.4447C425.368 73.1307 425.008 72.6977 425.008 72.1834C425.008 71.8783 425.87 71.7074 426.111 71.6899C426.685 71.6482 427.18 71.3608 427.76 71.3608C428.017 71.3608 428.529 71.2333 428.786 71.1171C429.555 70.77 430.299 70.8124 431.137 70.8124C431.881 70.8124 432.898 70.8076 433.536 70.4834" stroke="white" stroke-width="3" stroke-linecap="round" stroke-linejoin="round"/>
<path d="M425.439 73.6643C426.758 73.6643 428.049 73.7326 429.266 73.1708C429.441 73.0898 429.672 73.0063 429.865 73.0063C430.081 73.0063 430.146 72.8394 430.351 72.793C430.723 72.709 431.067 72.6772 431.485 72.6772" stroke="white" stroke-width="3" stroke-linecap="round" stroke-linejoin="round"/>
<path d="M421.769 69.6094C423.108 69.6094 424.448 69.6094 425.787 69.6094C426.602 69.6094 427.344 69.4349 428.138 69.3901C428.744 69.3558 429.322 69.061 429.973 69.061C430.591 69.061 431.108 69.2804 431.701 69.2804" stroke="white" stroke-width="3" stroke-linecap="round" stroke-linejoin="round"/>
<path d="M431.269 66.4282C429.848 66.4282 428.456 66.5457 427.059 66.5457" stroke="white" stroke-width="3" stroke-linecap="round" stroke-linejoin="round"/>
<path d="M424.252 66.3145C424.54 66.3145 424.828 66.3145 425.116 66.3145" stroke="white" stroke-width="3" stroke-linecap="round" stroke-linejoin="round"/>
<path d="M417.343 51.9492C417.343 54.7572 418.102 57.3892 418.855 60.0654C419.145 61.0981 419.812 62.0722 420.282 63.0267C420.637 63.7476 420.872 64.466 421.145 65.2446C421.365 65.8699 421.492 66.5065 421.793 67.0848C421.977 67.438 422.325 67.5436 422.525 67.7977C422.857 68.22 424.11 68.6202 424.63 68.6202C425.286 68.6202 426.192 68.436 426.495 67.7428C426.77 67.1136 426.519 65.9579 426.519 65.2751C426.519 64.8448 426.411 64.4272 426.411 64.0138" stroke="white" stroke-width="3" stroke-linecap="round" stroke-linejoin="round"/>
<path d="M427.814 66.5371C428.288 65.3482 429.057 64.228 429.626 63.1371C430.032 62.3575 430.105 61.6016 431.107 61.6016C432.083 61.6016 431.917 62.7526 431.917 63.5209C431.917 64.3761 431.053 64.845 431.053 65.6596" stroke="white" stroke-width="3" stroke-linecap="round" stroke-linejoin="round"/>
<path d="M437.422 72.6772C437.996 72.9188 438.366 73.3196 438.879 73.6095C439.236 73.811 439.6 73.9556 439.959 74.1579C440.833 74.6515 441.907 74.4923 442.82 74.9561C443.495 75.2993 444.212 75.1828 444.931 75.3156C445.756 75.468 446.261 76.0835 446.976 76.4063C448.354 77.0289 448.608 78.5383 449.453 79.6418C450.227 80.6528 450.847 82.0096 451.24 83.2063" stroke="white" stroke-width="3" stroke-linecap="round" stroke-linejoin="round"/>
<path d="M445.086 73.0078C445.556 73.299 445.949 73.5761 446.298 73.9705C446.479 74.1748 446.547 74.4433 446.73 74.6286C447.132 75.0371 447.552 75.454 448.001 75.8594C448.383 76.204 448.741 76.959 449.189 77.1999C449.705 77.4777 449.993 78.1324 450.484 78.382" stroke="white" stroke-width="3" stroke-linecap="round" stroke-linejoin="round"/>
<path d="M394.026 55.022C395.127 58.312 397.456 60.8459 399.963 63.1381C400.461 63.5937 401.055 63.918 401.528 64.3994C402.081 64.9606 402.619 65.6538 403.04 66.3188C403.387 66.8675 403.973 67.2732 404.413 67.7202C404.804 68.1171 405.508 69.001 406.008 69.1704" stroke="white" stroke-width="3" stroke-linecap="round" stroke-linejoin="round"/>
<path d="M406.008 69.1694C406.68 70.7521 407.899 71.8903 408.923 73.2275C410.053 74.7039 411.409 76.0586 412.162 77.7791C412.407 78.3407 412.947 78.8354 413.241 79.3695C413.626 80.0689 414.25 80.6474 414.728 81.2949C415.145 81.86 415.499 82.4841 416.072 82.8792C416.616 83.2546 417.513 84.1953 418.207 84.1953" stroke="white" stroke-width="3" stroke-linecap="round" stroke-linejoin="round"/>
<path d="M417.775 84.1963C419.057 85.3823 420.189 86.8897 421.655 87.8583C421.814 87.9629 422.32 88.0766 422.417 88.1995C422.557 88.3779 423.065 88.486 423.28 88.5834C423.978 88.8984 424.793 89.0044 425.439 89.4364C425.781 89.6645 428.658 91.2563 428.894 90.777" stroke="white" stroke-width="3" stroke-linecap="round" stroke-linejoin="round"/>
<path d="M428.894 90.7762C430.203 90.7762 431.879 91.1932 433.02 91.873C434.282 92.6243 435.99 92.7666 437.398 92.9454C439.052 93.1554 440.828 92.9697 442.496 92.9697C443.342 92.9697 444.12 92.7013 444.955 92.6407C445.593 92.5944 446.262 92.1943 446.898 92.0679C447.743 91.8998 447.954 91.1374 448.649 90.6665" stroke="white" stroke-width="3" stroke-linecap="round" stroke-linejoin="round"/>
<path d="M448.649 90.6669C449.26 89.8791 449.946 89.3045 450.43 88.4185C450.746 87.8399 451.093 87.3385 451.402 86.7734C452.111 85.4755 451.728 83.7617 451.132 82.5508" stroke="white" stroke-width="3" stroke-linecap="round" stroke-linejoin="round"/>
<path d="M408.275 53.9218C409.003 53.3391 409.869 52.3738 410.812 52.1609C411.502 52.0052 412.114 51.5505 412.809 51.5089C413.363 51.4758 414.05 51.0509 414.321 50.5706C414.65 49.9856 415.337 49.5532 415.616 48.9863" stroke="white" stroke-width="3" stroke-linecap="round" stroke-linejoin="round"/>
<path d="M407.844 53.9214C407.844 54.7589 407.854 54.7995 408.359 55.2619C408.54 55.4273 408.819 55.4189 409.007 55.5909C409.411 55.9605 410.179 56.0053 410.704 56.0053C411.353 56.0053 411.602 55.6704 412.054 55.2375C412.501 54.8079 413.028 54.6505 413.349 54.0798C413.577 53.6745 413.823 53.3465 414.105 52.9891C414.231 52.8284 414.543 52.5124 414.698 52.3859C414.906 52.2174 415.057 52.0027 415.292 51.8619C415.533 51.7177 415.717 51.4553 415.94 51.3135C416.087 51.2201 416.505 51.12 416.588 51.0149C417.277 50.1399 417.235 51.7356 417.235 52.0569" stroke="white" stroke-width="3" stroke-linecap="round" stroke-linejoin="round"/>
<path d="M417.991 52.2764C418.6 53.2905 419.535 54.0875 420.42 54.8477C421.134 55.4619 421.6 55.9155 422.147 56.7183C422.95 57.8963 423.395 59.245 424.336 60.3072C425.039 61.1007 425.013 62.6135 426.033 63.1893C426.847 63.6484 427.268 64.7043 428.138 64.999" stroke="white" stroke-width="3" stroke-linecap="round" stroke-linejoin="round"/>
<path d="M421.121 56.2266C421.121 57.3445 421.317 58.2982 421.547 59.3524C421.629 59.7268 421.801 60.0747 421.883 60.4492C421.949 60.7525 422.201 61.1501 422.201 61.4363C422.201 62.0702 422.74 63.4384 423.172 63.904C423.488 64.2438 423.648 64.6018 423.844 65.0008C424.02 65.3591 424.223 66.2472 424.576 66.4266" stroke="white" stroke-width="3" stroke-linecap="round" stroke-linejoin="round"/>
<path d="M421.013 57.2148C421.535 58.2399 422.585 59.6021 422.843 60.7794C422.91 61.0886 422.965 61.5379 423.089 61.8213C423.194 62.0625 423.36 62.5643 423.388 62.8084C423.487 63.6581 424.559 64.1586 425.008 64.7278C425.255 65.0425 425.439 65.0595 425.439 65.5504C425.439 65.8582 425.39 66.2834 425.224 66.5375" stroke="white" stroke-width="3" stroke-linecap="round" stroke-linejoin="round"/>
<path d="M421.985 60.6224C422.216 60.6161 422.344 60.5837 422.525 60.5049" stroke="white" stroke-width="3" stroke-linecap="round" stroke-linejoin="round"/>
<path d="M413.781 59.8447C415.298 60.7469 416.993 60.2834 418.639 60.2834" stroke="white" stroke-width="3" stroke-linecap="round" stroke-linejoin="round"/>
<path d="M413.457 59.8434C413.457 59.7508 413.35 58.4304 413.565 58.4176C414.081 58.3868 414.607 58.4176 415.124 58.4176C415.893 58.4176 416.579 58.1982 417.343 58.1982" stroke="white" stroke-width="3" stroke-linecap="round" stroke-linejoin="round"/>
<path d="M413.241 52.9375C414.097 53.9933 414.891 55.0524 415.832 56.0085C416.159 56.341 416.492 56.804 416.755 57.1906C416.926 57.4412 417.218 57.6192 417.343 57.873" stroke="white" stroke-width="3" stroke-linecap="round" stroke-linejoin="round"/>
<path d="M414.213 53.0464C414.872 53.0464 415.418 53.0909 416 53.2596C416.327 53.3547 416.807 53.5948 417.127 53.5948" stroke="white" stroke-width="3" stroke-linecap="round" stroke-linejoin="round"/>
<path d="M405.685 51.2913C406.437 51.026 407.235 50.762 407.951 50.4382C408.325 50.2697 409.053 50.4138 409.463 50.4138C409.872 50.4138 410.601 50.2697 410.974 50.4382C411.224 50.551 411.557 50.6845 411.754 50.8769C411.912 51.0313 412.489 51.2913 412.27 51.2913" stroke="white" stroke-width="3" stroke-linecap="round" stroke-linejoin="round"/>
<path d="M406.008 51.4008C406.939 50.6713 408.007 49.9668 408.815 49.0975C409.409 48.4582 409.918 47.7472 410.698 47.294C411.19 47.0086 411.632 46.517 412.054 46.1362C412.243 45.9655 412.475 45.788 412.701 45.6732C412.758 45.6443 413.342 45.3862 413.283 45.3624C412.398 45.0026 412.152 43.5655 412.371 42.785C412.572 42.0714 413.141 41.1924 413.673 40.6523" stroke="white" stroke-width="3" stroke-linecap="round" stroke-linejoin="round"/>
<path d="M414.536 41.9671C415.143 41.9671 415.689 42.008 416.264 42.0768C416.518 42.1071 416.372 43.915 416.372 44.1607C416.372 44.2624 416.403 44.7118 416.348 44.5994C416.178 44.2554 415.94 43.9664 415.748 43.6366C415.519 43.2422 415.367 42.6263 415.076 42.2961C414.929 42.1286 414.74 42.0522 414.644 41.8574" stroke="white" stroke-width="3" stroke-linecap="round" stroke-linejoin="round"/>
<path d="M418.207 43.1763C418.097 43.7735 418.09 44.3922 417.985 44.9799C417.964 45.0978 417.905 45.6372 417.829 45.6989C417.822 45.7043 417.55 46.4061 417.457 46.0767C417.394 45.8529 417.343 45.6696 417.343 45.4247C417.343 44.6828 416.844 43.0461 417.667 42.6279" stroke="white" stroke-width="3" stroke-linecap="round" stroke-linejoin="round"/>
<path d="M413.349 44.708C413.609 45.4022 413.888 45.9351 414.237 46.5725C414.546 47.1382 414.778 46.7748 415.076 46.5725" stroke="white" stroke-width="3" stroke-linecap="round" stroke-linejoin="round"/>
<path d="M415.076 46.4635C415.772 46.4528 416.484 46.2441 417.127 46.2441" stroke="white" stroke-width="3" stroke-linecap="round" stroke-linejoin="round"/>
<path d="M426.087 58.5277C426.474 57.8555 427.29 56.5056 428.138 56.5535C428.541 56.5762 428.73 57.0781 428.894 57.37C428.987 57.5355 429.166 57.605 429.212 57.8148C429.256 58.0172 429.05 58.2785 429.008 58.4728C428.873 59.0908 428.348 59.7667 428.03 60.3313C427.893 60.5747 427.702 60.84 427.467 61.0259C427.276 61.1766 426.511 58.6334 426.303 58.5277" stroke="white" stroke-width="3" stroke-linecap="round" stroke-linejoin="round"/>
<path d="M423.065 53.5956C423.541 52.9368 423.989 52.656 424.522 52.115C424.8 51.8321 425.228 51.2219 425.679 51.5971C426.254 52.0746 427.5 53.4298 426.459 54.0343C425.807 54.4127 425.092 55.5256 424.738 56.1731C424.64 56.3523 425.118 57.0262 425.248 57.1906C425.431 57.4236 425.735 57.8146 425.871 58.0924" stroke="white" stroke-width="3" stroke-linecap="round" stroke-linejoin="round"/>
<path d="M425.116 55.7881C425.159 55.9881 425.423 56.9037 425.715 56.9884C426.025 57.0783 426.307 57.3345 426.411 57.6526" stroke="white" stroke-width="3" stroke-linecap="round" stroke-linejoin="round"/>
<path d="M420.906 48.9863C421.01 49.5286 420.893 49.8568 421.337 50.1075C421.678 50.2998 422.201 50.6768 422.201 51.125C422.201 51.7659 422.066 52.8115 422.741 53.1541" stroke="white" stroke-width="3" stroke-linecap="round" stroke-linejoin="round"/>
<path d="M420.474 48.6592C421.253 49.2962 421.923 50.2806 422.393 51.1818C422.58 51.5413 422.696 51.9556 422.903 52.3334C423.056 52.6134 423.543 53.1703 423.388 53.485" stroke="white" stroke-width="3" stroke-linecap="round" stroke-linejoin="round"/>
<path d="M416.48 56.3359C417.185 56.3506 417.732 56.5309 417.775 57.323C417.797 57.7237 418.207 57.9529 418.207 58.3101" stroke="white" stroke-width="3" stroke-linecap="round" stroke-linejoin="round"/>
<path d="M417.343 58.3115C417.883 58.3115 418.423 58.3115 418.962 58.3115" stroke="white" stroke-width="3" stroke-linecap="round" stroke-linejoin="round"/>
<path d="M421.121 68.0728C421.141 68.8835 421.658 69.1597 421.877 69.8276" stroke="white" stroke-width="3" stroke-linecap="round" stroke-linejoin="round"/>
<path d="M421.337 68.0712C421.433 67.8431 421.557 67.6258 421.661 67.4131" stroke="white" stroke-width="3" stroke-linecap="round" stroke-linejoin="round"/>
<path d="M418.207 65.1109C417.702 64.5981 417.565 64.3051 417.445 63.6363C417.409 63.4366 417.185 62.8708 417.397 62.698C417.622 62.5152 417.935 62.6194 418.207 62.503C418.443 62.4019 419.022 62.2593 419.286 62.2593" stroke="white" stroke-width="3" stroke-linecap="round" stroke-linejoin="round"/>
<path d="M418.315 65.2178C419.277 65.2178 420.169 65.2178 421.121 65.2178" stroke="white" stroke-width="3" stroke-linecap="round" stroke-linejoin="round"/>
<path d="M396.941 39.7729C396.941 41.3939 396.833 43.069 396.833 44.6536C396.833 45.3848 396.833 46.116 396.833 46.8472C396.833 47.5139 397.206 48.0379 397.366 48.6081C397.6 49.4374 398.301 50.2239 398.884 50.8504C399.059 51.039 399.263 51.2498 399.423 51.4536C399.632 51.7185 400.506 52.2379 400.827 52.2762C402.451 52.4704 404.47 52.697 405.9 51.7278" stroke="white" stroke-width="3" stroke-linecap="round" stroke-linejoin="round"/>
<path d="M396.833 40.3249C396.833 39.424 397.401 38.2586 397.96 37.5281C398.447 36.8926 398.875 36.5032 399.585 36.1023C400.368 35.6604 401.521 35.8281 402.392 35.8281C402.721 35.8281 403.16 36.2141 403.466 36.3521C403.805 36.5054 404.501 36.5958 404.875 36.5958C405.343 36.5958 405.663 36.9638 406.062 37.1442C406.569 37.3732 407.13 37.3826 407.628 37.6073C407.993 37.7723 408.298 38.0954 408.653 38.2958C409.034 38.5106 409.459 38.5049 409.763 38.8138C409.997 39.0518 410.492 39.0822 410.65 39.2829C410.861 39.551 411.397 39.3899 411.646 39.6424C411.853 39.8534 411.973 40.2973 412.21 40.4346C412.483 40.5933 412.735 40.8355 413.025 40.983" stroke="white" stroke-width="3" stroke-linecap="round" stroke-linejoin="round"/>
<path d="M398.776 42.0796C398.342 43.1425 398.452 44.2258 398.452 45.3699C398.452 46.2119 398.776 47.035 398.776 47.8377C398.776 48.7194 399.42 49.3356 399.645 50.1348C399.764 50.5566 400.184 50.9656 400.395 51.3413C400.553 51.6223 400.77 52.1412 401.043 52.2796" stroke="white" stroke-width="3" stroke-linecap="round" stroke-linejoin="round"/>
<path d="M398.668 47.1229C400.242 47.0857 401.819 46.0214 403.286 45.5631C404.205 45.2756 405.483 45.4777 406.434 45.4777C407.437 45.4777 408.032 45.8675 408.923 46.1907C409.423 46.3721 410.52 46.639 410.758 47.1229" stroke="white" stroke-width="3" stroke-linecap="round" stroke-linejoin="round"/>
<path d="M398.668 41.8599C399.873 40.9852 402.072 40.4288 403.579 40.7693C404.799 41.0447 405.875 41.6033 406.98 42.1646C407.449 42.4029 407.873 42.6443 408.329 42.9019C408.749 43.1386 409.513 43.1886 409.787 43.6757C410.101 44.2347 410.928 44.4302 411.382 44.8456C411.631 45.0736 411.785 45.1741 412.102 45.2661C412.276 45.3168 412.426 45.6138 412.593 45.6987" stroke="white" stroke-width="3" stroke-linecap="round" stroke-linejoin="round"/>
<path d="M415.508 48.9887C416.372 48.6336 417.539 48.0016 418.477 48.0016C419.223 48.0016 419.96 48.0901 420.69 48.1113C421.439 48.1331 422.375 48.2665 423.119 48.4343C423.347 48.4859 423.242 48.5638 423.047 48.5439C422.482 48.4866 422.123 48.0345 421.685 47.7213C421.326 47.4647 422.649 47.7907 422.849 47.892" stroke="white" stroke-width="3" stroke-linecap="round" stroke-linejoin="round"/>
<path d="M421.013 42.9541C421.013 43.9931 420.746 44.7424 420.45 45.7204C420.326 46.1274 420.258 46.5286 420.258 46.9573C420.258 47.2769 420.042 47.5892 420.042 47.8896" stroke="white" stroke-width="3" stroke-linecap="round" stroke-linejoin="round"/>
<path d="M417.559 46.1353C418.268 46.1353 418.797 46.1695 419.394 46.574" stroke="white" stroke-width="3" stroke-linecap="round" stroke-linejoin="round"/>
<path d="M414.644 47.1235C414.839 48.023 415.127 48.8957 416.048 49.2074" stroke="white" stroke-width="3" stroke-linecap="round" stroke-linejoin="round"/>
<path d="M418.639 46.5747C418.937 46.8047 419.298 47.2938 419.61 47.4521" stroke="white" stroke-width="3" stroke-linecap="round" stroke-linejoin="round"/>
<path d="M417.991 52.606C417.799 52.1367 417.568 51.658 417.259 51.2655C417.097 51.0594 417.109 50.6203 416.965 50.3577C416.64 49.7621 416.695 48.9979 416.695 48.3286" stroke="white" stroke-width="3" stroke-linecap="round" stroke-linejoin="round"/>
<path d="M422.417 53.7031C422.836 54.288 423.377 54.5117 423.796 55.0436C423.952 55.2416 423.967 55.6166 424.09 55.8418C424.203 56.0488 424.366 56.2387 424.468 56.4451" stroke="white" stroke-width="3" stroke-linecap="round" stroke-linejoin="round"/>
<path d="M427.167 61.1616C427.167 61.9313 427.122 62.7058 427.862 63.1358C428.188 63.325 428.418 64.0132 428.786 64.0132" stroke="white" stroke-width="3" stroke-linecap="round" stroke-linejoin="round"/>
<path d="M427.491 62.9153C427.798 62.7933 428.204 62.7812 428.354 62.4766" stroke="white" stroke-width="3" stroke-linecap="round" stroke-linejoin="round"/>
<path d="M428.354 62.4767C428.204 61.7811 427.766 61.3917 427.491 60.8315" stroke="white" stroke-width="3" stroke-linecap="round" stroke-linejoin="round"/>
<path d="M428.246 62.041C428.733 62.4007 429.001 62.6426 429.326 63.1378" stroke="white" stroke-width="3" stroke-linecap="round" stroke-linejoin="round"/>
<path d="M426.543 50.1546C426.167 49.3912 425.888 48.5781 425.687 47.7595C425.566 47.2706 425.474 46.7888 425.274 46.3272C425.166 46.0764 425.051 45.8328 424.901 45.6041C424.795 45.4425 424.634 45.3133 424.537 45.1508C424.362 44.8612 424.437 44.4655 424.437 44.1356C424.437 43.5268 424.463 42.9093 424.545 42.3065C424.627 41.7004 424.973 41.1269 424.973 40.5097C424.973 40.2834 425.008 40.6853 425.008 40.7635" stroke="white" stroke-width="3" stroke-linecap="round" stroke-linejoin="round"/>
<path d="M425.008 40.7634C425.008 40.523 425.008 40.2826 425.008 40.0423C425.008 39.9221 424.979 39.9231 424.866 39.9295C424.79 39.9338 424.744 40.0408 424.669 39.9818C424.583 39.9133 424.533 39.8456 424.455 39.7663C424.291 39.5997 424.082 39.0648 424.473 39.023C424.615 39.0078 424.776 38.9019 424.917 38.8618C425.069 38.8187 425.245 38.8417 425.401 38.8417C425.625 38.8417 425.837 38.8779 426.063 38.8779C426.642 38.8779 427.183 38.7329 427.756 38.7329" stroke="white" stroke-width="3" stroke-linecap="round" stroke-linejoin="round"/>
<path d="M424.723 39.8931C425.527 39.8931 426.396 39.9629 427.166 39.7561C427.449 39.6799 427.723 39.5174 427.998 39.4136C428.09 39.3791 427.933 38.9826 427.899 38.9141" stroke="white" stroke-width="3" stroke-linecap="round" stroke-linejoin="round"/>
<path d="M424.973 38.7347C424.973 37.8858 424.95 37.0479 425.135 36.2147C425.182 36.0042 425.213 35.7954 425.225 35.5802C425.243 35.2432 425.381 34.8944 425.453 34.5649C425.56 34.0692 425.544 33.5825 425.544 33.0783C425.544 32.8273 425.541 32.576 425.544 32.325C425.549 31.898 425.746 31.5378 425.972 31.1929" stroke="white" stroke-width="3" stroke-linecap="round" stroke-linejoin="round"/>
<path d="M425.579 31.9532C425.584 31.7136 425.644 31.5109 425.702 31.2824C425.754 31.0789 425.758 30.8531 425.829 30.6559C425.987 30.2231 426.085 29.7586 426.273 29.3385C426.627 28.55 427.044 27.758 427.229 26.9132C427.261 26.7668 427.301 26.6209 427.346 26.4781C427.393 26.3294 427.493 26.2114 427.534 26.0591C427.588 25.8648 427.778 25.5623 427.935 25.4347C428.166 25.2471 428.348 24.996 428.613 24.8545C428.782 24.7643 428.964 24.6997 429.13 24.6088C429.313 24.5087 429.533 24.3688 429.737 24.3368C429.945 24.3044 430.154 24.2945 430.362 24.2643C430.9 24.1861 431.478 24.2301 432.025 24.2301C432.612 24.2301 433.156 24.2826 433.661 24.6088C433.815 24.7086 433.977 24.7425 434.127 24.8485C434.266 24.947 434.416 25.052 434.537 25.1728C434.645 25.2806 434.92 25.4321 434.965 25.5716" stroke="white" stroke-width="3" stroke-linecap="round" stroke-linejoin="round"/>
<path d="M435.001 25.6069C435.259 25.6069 435.452 25.634 435.699 25.7157C436.033 25.8261 436.388 25.8644 436.722 25.9776C437.092 26.1029 437.521 26.2192 437.848 26.4409C438.059 26.5837 438.292 26.6757 438.498 26.8317C438.865 27.108 439.248 27.3651 439.621 27.6374C440.266 28.1093 440.91 28.7486 441.726 28.9065C441.863 28.933 442.004 29.0077 442.139 29.0515C442.302 29.1048 442.477 29.1168 442.638 29.1804C442.915 29.2897 443.207 29.3884 443.459 29.5591" stroke="white" stroke-width="3" stroke-linecap="round" stroke-linejoin="round"/>
<path d="M443.495 29.5625C444.27 29.8563 444.997 30.2658 445.743 30.614C446.265 30.8578 446.884 30.9622 447.436 31.1196C447.915 31.2561 448.42 31.2907 448.892 31.456C449.181 31.5573 449.455 31.6664 449.76 31.7219C449.985 31.763 450.204 31.8468 450.434 31.8468C450.626 31.8468 450.817 31.8468 451.009 31.8468C451.199 31.8468 451.921 31.9486 452.024 31.738" stroke="white" stroke-width="3" stroke-linecap="round" stroke-linejoin="round"/>
<path d="M451.417 31.8444C451.775 31.9062 452.144 31.8806 452.506 31.8806C452.601 31.8806 452.654 31.6631 452.825 31.6631C453.004 31.6631 452.983 31.9453 453.059 32.0619" stroke="white" stroke-width="3" stroke-linecap="round" stroke-linejoin="round"/>
<path d="M453.059 32.0634C453.582 32.0634 454.262 32.0569 454.736 31.8015C454.907 31.7098 455.059 31.5875 455.228 31.4833C455.445 31.3494 455.757 31.0993 456.021 31.0844C456.175 31.0758 456.331 31.0844 456.485 31.0844" stroke="white" stroke-width="3" stroke-linecap="round" stroke-linejoin="round"/>
<path d="M456.485 31.0821C456.78 30.9741 456.962 30.7333 457.235 30.5946C457.436 30.4925 457.656 30.4331 457.849 30.3207C458.1 30.1753 458.419 30.0656 458.7 29.9944C458.884 29.9475 459.054 29.8338 459.241 29.7768C459.475 29.7056 459.671 29.601 459.891 29.5049C460.165 29.3855 460.524 29.2531 460.768 29.0879" stroke="white" stroke-width="3" stroke-linecap="round" stroke-linejoin="round"/>
<path d="M460.768 29.0879C460.939 29.0879 461.111 29.0879 461.283 29.0879C461.411 29.0879 461.401 29.1136 461.466 29.2168C461.573 29.3881 461.542 29.6783 461.392 29.797C461.155 29.9842 460.869 30.1501 460.617 30.3207C460.258 30.564 459.935 30.8437 459.527 31.0096C459.153 31.1613 458.735 31.2464 458.377 31.4286C458.079 31.5795 457.722 31.5965 457.413 31.7187C457.032 31.8691 456.806 32.3519 456.521 32.6413C456.151 33.0175 455.681 33.2619 455.307 33.6203C455.239 33.6857 455.148 33.7475 455.309 33.727C455.558 33.6955 455.801 33.6928 456.053 33.6928C456.393 33.6928 456.721 33.6834 457.058 33.6384C458.104 33.4985 459.186 33.5183 460.189 33.1408C460.297 33.1002 460.409 32.9853 460.518 32.9313C460.758 32.8125 461.027 32.7511 461.267 32.6332C461.547 32.4964 461.83 32.4312 462.116 32.3149C462.238 32.2652 462.372 32.2436 462.481 32.1699" stroke="white" stroke-width="3" stroke-linecap="round" stroke-linejoin="round"/>
<path d="M462.409 32.1704C463.184 32.1704 463.847 31.8969 464.499 31.4996C464.895 31.2582 465.48 31.1531 465.923 31.1008C466.326 31.0531 466.875 31.0245 467.281 31.1008C467.569 31.155 468.055 31.0902 468.28 31.3183C468.36 31.3997 468.46 31.4373 468.512 31.55C468.572 31.6795 468.548 31.8501 468.548 31.9891C468.548 32.3299 468.928 32.6688 469.075 32.9681C469.168 33.1571 469.357 33.4078 469.368 33.6208C469.383 33.8857 469.418 34.2357 469.361 34.491C469.187 35.2635 468.391 35.6091 467.761 35.9615C467.385 36.1711 467.109 36.4802 466.761 36.7229C466.601 36.8347 466.477 36.9569 466.299 37.0472C466.067 37.165 465.83 37.2169 465.588 37.3031C465.251 37.4228 464.911 37.3959 464.578 37.4924C464.39 37.5472 464.172 37.4652 463.98 37.5085C463.849 37.5381 463.721 37.5654 463.587 37.573C463.246 37.5922 462.902 37.6818 462.552 37.6818C461.945 37.6818 461.339 37.6818 460.732 37.6818" stroke="white" stroke-width="3" stroke-linecap="round" stroke-linejoin="round"/>
<path d="M460.839 37.6474C460.315 37.6474 459.819 37.6112 459.304 37.6112C458.616 37.6112 457.823 37.7299 457.163 37.5024C456.803 37.3781 456.431 37.2733 456.057 37.2043C455.841 37.1643 455.626 37.0482 455.407 37.031C455.112 37.008 454.809 36.8135 454.522 36.8135" stroke="white" stroke-width="3" stroke-linecap="round" stroke-linejoin="round"/>
<path d="M455.307 34.9263C457.598 34.9263 459.872 34.7088 462.159 34.7088C462.675 34.7088 463.272 34.5567 463.763 34.4006C464.071 34.303 464.459 34.2011 464.783 34.2011C464.995 34.2011 465.217 34.0597 465.423 34.0198C465.595 33.9866 465.747 33.987 465.923 33.9836C466.287 33.9766 466.64 33.825 466.961 33.7318C466.999 33.7209 467.204 33.6119 467.1 33.7479C466.99 33.8917 466.861 34.0161 466.747 34.1568C466.438 34.5414 466.076 35.0163 465.558 35.0351C465.151 35.0499 464.854 35.2888 464.479 35.3977C464.027 35.529 463.536 35.7079 463.06 35.724C462.682 35.7368 462.3 35.6939 461.929 35.7623C461.489 35.8437 461.078 35.9053 460.621 35.9053C459.635 35.9053 458.598 35.9686 457.663 35.5991C457.425 35.5052 457.157 35.486 456.913 35.3977C456.672 35.3101 456.375 35.2613 456.12 35.2526C455.924 35.246 455.272 35.3736 455.272 35.1076" stroke="white" stroke-width="3" stroke-linecap="round" stroke-linejoin="round"/>
<path d="M427.794 38.5961C428.404 38.503 429.026 38.2872 429.593 38.0432C430.126 37.8138 430.704 37.7281 431.234 37.4858C431.937 37.1643 432.718 36.8981 433.483 36.7844C433.899 36.7226 434.311 36.5509 434.724 36.4577C435.077 36.3781 435.428 36.3105 435.776 36.211C436.444 36.0203 437.137 35.7998 437.831 35.7998" stroke="white" stroke-width="3" stroke-linecap="round" stroke-linejoin="round"/>
<path d="M437.589 35.7993C439.169 35.7993 440.683 35.1821 442.131 34.6067C442.584 34.4266 443.033 34.166 443.498 34.031C443.875 33.9215 444.287 33.8251 444.662 33.6929C445.321 33.4614 445.926 33.3731 446.623 33.3731C446.893 33.3731 447.341 33.296 447.565 33.4736C447.676 33.5614 447.83 33.6035 447.95 33.6815C448.069 33.7594 448.18 33.8624 448.314 33.9077" stroke="white" stroke-width="3" stroke-linecap="round" stroke-linejoin="round"/>
<path d="M426.984 39.7905C427.485 39.8853 427.984 39.794 428.482 39.9345C428.671 39.9879 428.837 40.0373 429.037 40.0373C429.759 40.0373 430.481 40.0434 431.203 40.0373C431.801 40.0322 432.325 39.8325 432.853 39.5644C433.055 39.4618 433.388 39.3706 433.541 39.2148" stroke="white" stroke-width="3" stroke-linecap="round" stroke-linejoin="round"/>
<path d="M433.582 39.2131C434.192 39.2131 434.772 38.8947 435.38 38.8452C435.713 38.8182 436.019 38.7141 436.325 38.5711C437.516 38.0152 438.826 37.4578 440.136 37.2803C441.101 37.1496 441.982 36.7827 442.922 36.5493C443.17 36.4877 443.415 36.4126 443.66 36.3346C443.887 36.2618 444.128 36.2728 444.357 36.2112C444.837 36.0815 445.441 36.149 445.886 35.9233" stroke="white" stroke-width="3" stroke-linecap="round" stroke-linejoin="round"/>
<path d="M445.926 35.9233C446.323 35.7483 446.744 35.5068 447.158 35.3865C447.282 35.3507 447.439 35.1988 447.484 35.0803C447.56 34.8818 447.534 34.6896 447.545 34.4841C447.554 34.319 447.963 34.0317 448.112 34.0317" stroke="white" stroke-width="3" stroke-linecap="round" stroke-linejoin="round"/>
<path d="M433.217 39.667C433.725 39.667 434.206 39.711 434.715 39.711" stroke="white" stroke-width="3" stroke-linecap="round" stroke-linejoin="round"/>
<path d="M434.715 39.709C434.751 39.5063 434.842 39.2331 435.039 39.1333" stroke="white" stroke-width="3" stroke-linecap="round" stroke-linejoin="round"/>
<path d="M434.27 39.9536C434.158 40.2764 433.985 40.5731 433.804 40.8583C433.718 40.995 433.55 41.1829 433.541 41.3517C433.528 41.6048 433.49 41.946 433.602 42.1742C433.689 42.3523 433.772 42.5291 433.856 42.7087C434.06 43.1463 434.289 43.4907 434.593 43.8693C434.784 44.1064 435.118 44.3071 435.383 44.4564C435.613 44.5867 435.917 44.5592 436.172 44.5592" stroke="white" stroke-width="3" stroke-linecap="round" stroke-linejoin="round"/>
<path d="M436.253 44.5592C436.735 44.5592 437.068 44.4514 437.508 44.2919C437.749 44.2043 437.951 43.964 438.198 43.9013C438.685 43.7774 439.274 43.6463 439.702 43.3667C439.867 43.259 439.996 43.1929 440.138 43.0583C440.319 42.8883 440.449 42.6765 440.584 42.4712C440.73 42.2486 440.99 42.1309 441.17 41.948C441.293 41.8231 441.391 41.6826 441.514 41.5573C441.707 41.3615 441.953 41.2355 442.142 41.0433C442.268 40.9147 442.325 40.7411 442.466 40.6298C442.607 40.5178 442.725 40.4487 442.891 40.3648C443.13 40.2431 443.414 40.0367 443.66 39.9536" stroke="white" stroke-width="3" stroke-linecap="round" stroke-linejoin="round"/>
<path d="M443.66 39.9559C444.473 39.7844 445.295 39.2405 445.877 38.6491C446.152 38.3696 446.482 38.1535 446.808 37.9409C446.982 37.8273 447.165 37.7381 447.338 37.6302C447.478 37.5434 447.585 37.4202 447.747 37.3652" stroke="white" stroke-width="3" stroke-linecap="round" stroke-linejoin="round"/>
<path d="M435.12 42.502C435.331 42.1332 435.564 41.8181 435.88 41.5333C436.012 41.4141 436.197 41.2223 436.365 41.1541C436.653 41.0373 436.953 40.8651 437.226 40.7086C438.135 40.1895 439.083 39.7418 440.098 39.491C440.65 39.3544 441.177 39.1072 441.717 38.9244C442.103 38.7936 442.58 38.5954 442.992 38.5954C443.198 38.5954 443.475 38.5148 443.671 38.4469C444.137 38.285 444.585 38.0853 445.033 37.8804C445.295 37.7606 445.592 37.6958 445.845 37.5674" stroke="white" stroke-width="3" stroke-linecap="round" stroke-linejoin="round"/>
<path d="M443.376 38.3525C443.05 38.3967 442.784 38.3953 442.504 38.5581C442.27 38.6937 442.041 38.9508 441.841 39.1338C441.617 39.3386 441.478 39.6198 441.251 39.8146C441.109 39.9374 441.004 40.1539 440.849 40.2441C440.738 40.3087 440.672 40.5189 440.584 40.6142C440.483 40.7223 440.407 40.8418 440.309 40.9523C440.179 41.0999 439.944 41.2561 439.855 41.4366" stroke="white" stroke-width="3" stroke-linecap="round" stroke-linejoin="round"/>
<path d="M435.322 42.7914C435.651 42.7914 436.057 42.8475 436.374 42.7503C436.943 42.5759 437.537 42.4698 438.097 42.266C438.398 42.1562 438.678 42.0615 438.965 41.9187C439.328 41.7375 439.806 41.311 440.219 41.311" stroke="white" stroke-width="3" stroke-linecap="round" stroke-linejoin="round"/>
<path d="M435.403 43.7374C436.348 43.7374 437.289 43.8813 438.218 43.5729C438.505 43.4776 438.696 43.1393 438.884 42.9058C439.096 42.6422 439.338 42.3962 439.572 42.1519C439.717 41.9996 439.893 41.9303 440.057 41.8047" stroke="white" stroke-width="3" stroke-linecap="round" stroke-linejoin="round"/>
<path d="M447.538 34.6924C447.739 35.0425 448.009 35.2826 448.201 35.6241C448.371 35.927 448.474 36.2474 448.643 36.5474C448.807 36.8386 448.938 37.325 448.938 37.6496C448.938 37.9364 449.085 38.1375 449.085 38.4357" stroke="white" stroke-width="3" stroke-linecap="round" stroke-linejoin="round"/>
<path d="M448.348 38.8081C447.695 39.5984 446.998 40.38 446.138 40.9418C445.896 41.0999 445.656 41.2635 445.417 41.4285C445.064 41.6716 444.668 41.7791 444.299 41.99C443.706 42.3289 443.706 42.0127 443.706 41.4285C443.706 41.0496 443.632 40.7498 443.632 40.3803" stroke="white" stroke-width="3" stroke-linecap="round" stroke-linejoin="round"/>
<path d="M445.769 37.5356C446.383 37.5356 446.997 37.5356 447.611 37.5356" stroke="white" stroke-width="3" stroke-linecap="round" stroke-linejoin="round"/>
<path d="M449.306 33.417C450.017 33.8638 450.501 34.6885 450.87 35.4384C451.001 35.7056 451.158 36.0658 451.337 36.2994C451.457 36.4568 451.59 37.1143 451.59 36.7112" stroke="white" stroke-width="3" stroke-linecap="round" stroke-linejoin="round"/>
<path d="M451.222 36.0386C452.528 35.6733 453.338 34.742 454.444 34.0463C454.874 33.7756 455.299 33.5518 455.717 33.2686" stroke="white" stroke-width="3" stroke-linecap="round" stroke-linejoin="round"/>
<path d="M454.907 36.9383C454.204 36.8124 453.588 36.4142 452.88 36.4142C452.477 36.4142 452.043 36.4677 451.664 36.3394" stroke="white" stroke-width="3" stroke-linecap="round" stroke-linejoin="round"/>
<path d="M449.38 33.4161C449.654 33.4161 450.036 33.4823 450.301 33.3787C450.381 33.3473 450.556 33.271 450.633 33.2664C450.878 33.2518 451.029 33.0895 451.259 33.0377C451.368 33.0131 451.443 32.8748 451.574 32.8338C451.725 32.7865 451.883 32.7536 452.037 32.7049C452.121 32.6782 452.843 32.5551 452.622 32.4429" stroke="white" stroke-width="3" stroke-linecap="round" stroke-linejoin="round"/>
<path d="M427.421 27.8018C427.421 28.7145 427.592 29.6631 427.642 30.5719C427.664 30.9832 427.789 31.4052 427.789 31.8072C427.789 32.2511 427.793 32.9048 427.973 33.3087C428.155 33.7144 428.174 34.2393 428.321 34.6729C428.446 35.0396 428.624 35.5393 428.862 35.85C429.085 36.1416 429.128 36.5736 429.41 36.8607C429.599 37.0524 429.926 37.4049 429.926 37.6843" stroke="white" stroke-width="3" stroke-linecap="round" stroke-linejoin="round"/>
<path d="M427.347 27.9535C427.375 26.7664 427.993 26.0925 428.894 25.5203C429.225 25.3104 429.657 25.2583 430.037 25.2583C430.654 25.2583 431.25 25.0337 431.879 25.0337C432.329 25.0337 432.647 25.3631 433.021 25.5744C433.449 25.8162 433.938 25.8596 434.388 26.0818C434.681 26.2261 434.946 26.4015 435.264 26.4603C435.391 26.4836 435.676 26.5088 435.764 26.5893C435.992 26.7977 436.663 26.894 436.779 27.13" stroke="white" stroke-width="3" stroke-linecap="round" stroke-linejoin="round"/>
<path d="M436.779 27.1299C437.297 27.3428 437.643 27.6502 438.069 27.9867C438.294 28.1649 438.654 28.2115 438.916 28.3444C439.483 28.6324 440.154 28.8777 440.648 29.2678C440.896 29.4643 441.214 29.6591 441.512 29.7669C441.915 29.9134 442.474 30.2743 442.895 30.2743C443.127 30.2743 443.324 30.5058 443.558 30.5738C443.966 30.6922 444.42 30.9406 444.811 31.1394C445.339 31.4078 446.044 31.347 446.617 31.4763C446.829 31.5244 447.123 31.5513 447.317 31.6386C447.57 31.7531 447.889 31.6808 448.127 31.7883C448.451 31.9345 448.865 31.8295 449.196 31.9588C449.349 32.0187 449.53 31.9477 449.675 32.0129C449.841 32.088 449.934 32.146 450.121 32.146C450.965 32.146 451.926 32.4425 452.696 31.9214" stroke="white" stroke-width="3" stroke-linecap="round" stroke-linejoin="round"/>
<path d="M429.337 30.1982C429.324 30.8079 429.116 31.3881 429.116 31.9909C429.116 32.4554 429.116 32.9198 429.116 33.3843C429.116 33.7584 429.251 34.3457 429.394 34.6903C429.518 34.9906 429.484 35.9894 429.484 35.6636" stroke="white" stroke-width="3" stroke-linecap="round" stroke-linejoin="round"/>
<path d="M429.484 35.6662C430.932 34.7966 432.519 34.1688 434.204 34.1688C434.995 34.1688 435.952 34.0265 436.669 34.4309C437.089 34.6681 437.664 34.6631 438.048 34.9757C438.205 35.1032 438.609 34.9764 438.769 35.1795C438.917 35.3681 439.195 35.5165 439.432 35.5165" stroke="white" stroke-width="3" stroke-linecap="round" stroke-linejoin="round"/>
<path d="M429.116 30.5731C429.713 29.8184 430.26 29.5998 431.162 29.5998C431.755 29.5998 432.904 29.364 433.373 29.841C433.84 30.3158 434.475 30.6024 435.101 30.8143C435.414 30.9203 435.649 31.1191 435.969 31.2094C436.356 31.3189 436.726 31.6318 437.111 31.6919C437.664 31.7784 438.106 32.2872 438.585 32.5571C439.046 32.8176 439.428 33.1171 439.948 33.3057C440.414 33.4749 440.875 33.6587 441.311 33.9047C441.522 34.0237 441.734 34.0166 441.937 34.1085C442.094 34.179 442.363 34.3164 442.527 34.3164" stroke="white" stroke-width="3" stroke-linecap="round" stroke-linejoin="round"/>
<path d="M429.369 54.0142C430.728 54.4837 431.636 55.4226 432.857 56.1118C433.765 56.624 434.983 57.1111 435.745 57.8075C436.429 58.4335 437.267 59.2438 438.126 59.7284C439.052 60.2512 439.678 61.0137 440.443 61.7135C441.401 62.5889 442.358 63.4659 443.244 64.3656C444.066 65.2011 444.279 66.5502 445.063 67.4357C445.786 68.2523 446.136 69.272 446.803 70.1441C447.096 70.5262 447.475 71.1306 447.602 71.5827C447.623 71.6554 448.034 71.8601 448.132 71.9845C448.276 72.1677 448.233 72.4214 448.449 72.531" stroke="white" stroke-width="3" stroke-linecap="round" stroke-linejoin="round"/>
<path d="M447.452 71.8086C448.188 72.9414 448.817 74.1726 449.698 75.168C450.399 75.9592 451.389 76.9546 451.897 77.8845C452.318 78.6543 453.113 79.0263 453.859 79.3632C454.721 79.7525 455.49 80.3174 456.422 80.6331" stroke="white" stroke-width="3" stroke-linecap="round" stroke-linejoin="round"/>
<path d="M456.621 80.6138C457.087 80.8191 457.519 81.0855 457.966 81.3126C458.219 81.4412 458.516 81.4945 458.774 81.6256C459.669 82.0804 460.46 82.7014 461.4 83.0749C462.336 83.4473 463.248 83.9323 464.208 84.2477C464.657 84.3955 465.128 84.4943 465.568 84.661C466.182 84.8928 466.851 84.9717 467.467 85.1805C468.225 85.437 469.073 85.3719 469.863 85.3719C470.763 85.3719 471.637 85.3443 472.527 85.2656C473.286 85.1986 474.085 85.0882 474.815 84.8919C475.67 84.6621 476.621 84.345 477.399 83.95" stroke="white" stroke-width="3" stroke-linecap="round" stroke-linejoin="round"/>
<path d="M477.13 83.9492C477.847 83.9492 478.298 83.6553 478.903 83.3172C479.491 82.9887 480.081 82.4863 480.602 82.0593C481.008 81.7265 481.311 81.351 481.652 80.9533C481.887 80.6789 482.213 80.4518 482.375 80.1208C482.643 79.5775 482.889 79.0473 483.024 78.4497C483.198 77.6871 483.505 76.9539 483.632 76.183C483.73 75.5815 483.751 74.9879 483.751 74.3782C483.751 73.8807 483.754 73.402 483.655 72.9136C483.546 72.3697 483.428 71.7624 483.428 71.2061" stroke="white" stroke-width="3" stroke-linecap="round" stroke-linejoin="round"/>
<path d="M483.374 71.6437C483.418 71.1609 483.155 70.7008 482.986 70.2582C482.823 69.8319 482.643 69.4058 482.447 68.9942C482.256 68.5916 482.108 68.0529 481.801 67.718C481.537 67.43 481.463 67.0475 481.275 66.7093C480.963 66.1485 480.698 65.549 480.414 64.9713C480.078 64.2886 479.504 63.5587 478.906 63.0814C478.757 62.9622 478.713 62.7528 478.559 62.6196C478.404 62.4842 478.293 62.284 478.156 62.1273C478.085 62.0463 477.772 61.5345 477.722 61.6351" stroke="white" stroke-width="3" stroke-linecap="round" stroke-linejoin="round"/>
<path d="M477.722 61.6365C477.102 61.3096 476.527 60.8599 476.065 60.3239C475.862 60.0872 475.707 59.8079 475.488 59.5855C474.893 58.9811 474.616 57.9629 473.888 57.4921C472.919 56.8655 472.113 56.0305 471.179 55.3469C470.527 54.8701 469.755 54.5751 469.109 54.1012C468.936 53.974 468.622 53.8936 468.505 53.7062C468.4 53.5366 468.306 53.328 468.167 53.1866C467.896 52.9107 467.597 52.6226 467.387 52.2964C467.308 52.1746 466.927 51.5985 467.225 51.9014" stroke="white" stroke-width="3" stroke-linecap="round" stroke-linejoin="round"/>
<path d="M454.683 37.0786C455.082 37.1063 455.461 37.3894 455.813 37.5708C456.018 37.6764 456.29 37.7906 456.459 37.9537C456.611 38.1 456.705 38.176 456.89 38.2697C457.543 38.6016 457.832 39.3458 458.185 39.9499C458.469 40.4365 458.68 40.9952 458.908 41.5117C459.054 41.8393 459.112 42.1803 459.339 42.4627C459.95 43.2209 460.593 43.8928 461.035 44.7901" stroke="white" stroke-width="3" stroke-linecap="round" stroke-linejoin="round"/>
<path d="M461.035 44.791C461.574 45.3387 462.024 45.95 462.485 46.5655C462.69 46.8379 462.866 47.1067 463.134 47.319C463.504 47.6116 463.735 48.0518 464.079 48.3733C464.581 48.8423 465.067 49.3088 465.392 49.929C465.586 50.2993 465.809 50.6126 466.107 50.9043C466.255 51.0495 466.552 51.2499 466.633 51.4361C466.707 51.6057 467.219 52.065 467.387 52.065" stroke="white" stroke-width="3" stroke-linecap="round" stroke-linejoin="round"/>
<path d="M425.263 40.6445C425.263 41.2258 425.18 41.816 425.056 42.3838C424.979 42.7362 424.954 43.4947 425.114 43.8206C425.573 44.7533 426.599 45.1704 427.347 45.8035C427.8 46.1874 428.236 46.614 428.65 47.0345C429.503 47.9018 430.164 48.8153 431.18 49.5299C431.522 49.7705 433.829 51.2944 433.897 51.1558" stroke="white" stroke-width="3" stroke-linecap="round" stroke-linejoin="round"/>
<path d="M433.897 51.1562C435.153 51.7186 436.248 52.6361 437.469 53.2736C438.445 53.7829 439.292 54.6235 440.223 55.223C440.855 55.63 441.461 56.1044 442.047 56.5673C442.368 56.8213 442.595 57.2344 442.791 57.5882C443.154 58.2432 443.599 58.9133 444.09 59.4745C444.398 59.8266 444.724 60.2921 444.912 60.7222C445.166 61.3016 445.406 61.9485 445.731 62.4993" stroke="white" stroke-width="3" stroke-linecap="round" stroke-linejoin="round"/>
<path d="M445.731 62.5752C446.404 63.2588 447.007 63.986 447.596 64.743C448.242 65.5729 448.721 66.5327 449.395 67.3393C449.709 67.7158 450.081 68.053 450.424 68.4022C450.97 68.9561 451.35 69.6214 451.942 70.1372C452.438 70.5694 452.906 70.7993 453.48 71.0909C453.898 71.303 454.323 71.5035 454.737 71.7253C455.004 71.8685 455.236 72.1301 455.481 72.2546" stroke="white" stroke-width="3" stroke-linecap="round" stroke-linejoin="round"/>
<path d="M454.663 72.0273C455.772 72.6985 456.788 73.4846 457.789 74.3128C458.512 74.9116 459.544 75.4416 460.468 75.6403C461.55 75.8728 462.447 76.2621 463.594 76.2621" stroke="white" stroke-width="3" stroke-linecap="round" stroke-linejoin="round"/>
<path d="M459.998 74.7219C461.157 71.8818 463.24 69.2211 463.24 66.093C463.24 65.2203 463.37 64.2171 463.12 63.3911C462.904 62.6771 462.488 61.8706 463.24 61.5084C464.776 60.7694 469.238 58.261 467.718 59.0331" stroke="white" stroke-width="3" stroke-linecap="round" stroke-linejoin="round"/>
<path d="M467.718 59.0342C468.991 59.6809 470.136 60.4572 471.424 61.0389C472.274 61.4223 473.524 61.697 474.444 61.8669C474.902 61.9514 475.291 62.3288 475.748 62.3288C476.002 62.3288 476.736 62.4086 476.983 62.5206C477.617 62.8066 478.372 63.2262 478.536 63.9761C478.725 64.8411 479.592 65.507 479.772 66.3294C479.873 66.7948 480.351 67.1461 480.381 67.663C480.39 67.8259 480.621 68.5954 480.724 68.7263C481.357 69.5303 482.266 73.2081 481.307 73.9385" stroke="white" stroke-width="3" stroke-linecap="round" stroke-linejoin="round"/>
<path d="M462.314 75.8203C463.018 75.96 464.491 76.1203 465.059 76.6396C465.732 77.2548 467.189 77.0754 468.027 77.0754C468.855 77.0754 469.55 77.5013 470.343 77.5461C471.458 77.609 472.46 77.321 473.509 77.0841C474.994 76.7488 476.708 76.761 477.987 75.7506C478.497 75.3476 479.19 75.1248 479.686 74.7221C480.154 74.3417 480.506 73.7808 481.153 73.7808" stroke="white" stroke-width="3" stroke-linecap="round" stroke-linejoin="round"/>
<path d="M459.26 62.6899C459.088 61.7935 458.743 61.2336 459.546 60.4628C460.067 59.9627 460.655 59.7469 461.262 59.473C462.018 59.1315 462.778 58.6989 463.475 58.2357C464.055 57.85 464.737 57.7372 465.312 57.4127C465.965 57.0438 466.662 56.9088 467.313 56.5412C467.744 56.2982 468.539 55.9305 468.886 56.5466C469.021 56.7873 469.419 57.0323 469.246 57.3643C469.144 57.559 468.673 57.586 468.505 57.8C468.191 58.1983 467.648 58.8166 467.17 58.9135" stroke="white" stroke-width="3" stroke-linecap="round" stroke-linejoin="round"/>
<path d="M459.356 62.9796C460.202 62.9796 460.964 63.06 461.738 62.7106C461.961 62.6098 462.097 62.4102 462.31 62.3018" stroke="white" stroke-width="3" stroke-linecap="round" stroke-linejoin="round"/>
<path d="M461.643 59.0109C461.74 58.5603 462.057 57.4926 462.453 57.1711C462.924 56.7879 462.886 55.8251 463.263 55.3744C463.529 55.0565 463.694 54.3036 463.978 54.0726C464.165 53.9202 464.084 53.6067 464.407 53.5885C464.634 53.5756 464.819 53.3513 465.021 53.2926C465.577 53.1311 465.632 53.2679 465.857 53.7821C465.947 53.9877 466.202 54.8601 465.979 55.0409C465.662 55.2987 465.852 55.8918 465.624 56.1813C465.409 56.4551 465.325 56.9507 465.169 57.268" stroke="white" stroke-width="3" stroke-linecap="round" stroke-linejoin="round"/>
<path d="M462.596 56.8797C461.845 56.8797 460.804 56.9697 460.129 56.5408C459.922 56.4097 459.75 56.3956 459.498 56.3956C459.009 56.3956 458.51 56.368 458.021 56.3956C457.462 56.4271 457.041 56.7467 456.639 57.0734C456.446 57.2308 456.592 58.3112 456.592 58.5742C456.592 59.0297 456.977 59.4941 457.449 59.4941C458.03 59.4941 458.375 59.1291 458.927 59.0046C459.383 58.9015 459.857 58.6226 460.309 58.6226C460.849 58.6226 461.389 58.6226 461.929 58.6226" stroke="white" stroke-width="3" stroke-linecap="round" stroke-linejoin="round"/>
<path d="M458.212 56.2986C458.364 55.4859 458.625 54.2338 459.17 53.5874C459.734 52.9193 460.251 52.106 460.547 51.2635C460.711 50.7951 460.907 50.3462 461.05 49.8541C461.108 49.6524 461.341 48.9721 461.5 48.8428C461.775 48.6192 461.768 48.8976 462.119 48.9396C462.27 48.9576 462.672 49.1561 462.739 49.2785C463.466 50.608 462.864 51.7418 462.119 52.8343C461.648 53.5259 461.265 54.2036 460.902 54.943C460.635 55.4853 460.118 56.271 460.118 56.8796" stroke="white" stroke-width="3" stroke-linecap="round" stroke-linejoin="round"/>
<path d="M460.69 55.3286C461.272 55.343 461.866 55.6191 462.405 55.6191" stroke="white" stroke-width="3" stroke-linecap="round" stroke-linejoin="round"/>
<path d="M461.452 53.5879C461.977 53.5879 462.205 53.5995 462.575 53.8999C462.784 54.0703 462.842 54.4389 463.072 54.5562" stroke="white" stroke-width="3" stroke-linecap="round" stroke-linejoin="round"/>
<path d="M462.119 55.5223C462.419 55.4643 462.722 55.4583 462.977 55.3286" stroke="white" stroke-width="3" stroke-linecap="round" stroke-linejoin="round"/>
<path d="M453.447 54.8457C455.29 54.8457 457.144 54.9494 458.974 54.9494" stroke="white" stroke-width="3" stroke-linecap="round" stroke-linejoin="round"/>
<path d="M453.161 54.3618C453.161 53.3768 452.958 52.6959 454.024 52.4253C454.687 52.2568 455.245 52.2316 455.93 52.2316C456.527 52.2316 457.471 52.0583 458.021 52.3069C458.176 52.3767 458.667 52.4253 458.831 52.4253C459.122 52.4253 459.359 52.5221 459.641 52.5221" stroke="white" stroke-width="3" stroke-linecap="round" stroke-linejoin="round"/>
<path d="M452.875 50.4921C451.918 50.4921 450.672 50.6824 449.873 50.051C448.925 49.3023 450.393 48.5785 450.948 48.3834C451.808 48.0807 452.57 48.0714 453.494 48.0714C453.902 48.0714 454.382 47.6309 454.686 48.0929C454.916 48.4441 455.042 48.8636 455.257 49.2118C455.404 49.448 455.639 49.611 455.639 49.9111" stroke="white" stroke-width="3" stroke-linecap="round" stroke-linejoin="round"/>
<path d="M451.541 50.1976C452.266 50.1976 453.008 50.2385 453.733 50.1976C454.172 50.1728 454.768 49.9008 455.162 50.1008" stroke="white" stroke-width="3" stroke-linecap="round" stroke-linejoin="round"/>
<path d="M455.162 50.1016C455.404 50.4395 455.85 50.8275 456.02 51.2151C456.213 51.6571 456.913 51.8555 457.068 52.3286" stroke="white" stroke-width="3" stroke-linecap="round" stroke-linejoin="round"/>
<path d="M456.115 46.8096C456.893 47.073 457.411 47.4487 457.974 48.0199C458.273 48.3238 458.708 48.5964 458.879 48.9882C459.09 49.4714 459.447 49.8506 459.811 50.2201C459.956 50.3678 460.072 50.5304 460.213 50.6827C460.293 50.7686 460.639 51.3322 460.404 50.9732" stroke="white" stroke-width="3" stroke-linecap="round" stroke-linejoin="round"/>
<path d="M458.117 47.7803C458.273 47.0391 458.679 46.219 459.07 45.5748C459.269 45.245 459.577 44.9105 459.737 44.585" stroke="white" stroke-width="3" stroke-linecap="round" stroke-linejoin="round"/>
<path d="M461.166 45.4536C461.166 46.4448 461.152 47.4724 460.764 48.3585C460.599 48.7359 460.547 49.8352 460.213 50.0046" stroke="white" stroke-width="3" stroke-linecap="round" stroke-linejoin="round"/>
<path d="M447.728 40.1304C447.983 40.5548 448.305 40.9687 448.512 41.3891C448.643 41.6549 448.94 41.8176 449.063 42.0669" stroke="white" stroke-width="3" stroke-linecap="round" stroke-linejoin="round"/>
<path d="M450.588 43.906C449.796 44.0826 449.673 44.6482 449.063 44.9926C448.494 45.3135 448.054 45.9325 447.443 46.2084C447.026 46.3965 446.008 44.215 445.822 44.0028C445.378 43.4947 447.202 42.7609 447.538 42.6688C448.236 42.477 449.013 42.1631 449.73 42.1631C450.285 42.1631 450.866 42.0663 451.44 42.0663C451.664 42.0663 452.371 41.8306 452.568 41.991C453.058 42.3894 453.771 42.4302 454.188 42.9592C454.347 43.1612 454.506 43.5185 454.638 43.7608C454.764 43.9906 455.048 44.0617 455.162 44.2933" stroke="white" stroke-width="3" stroke-linecap="round" stroke-linejoin="round"/>
<path d="M450.683 43.9061C451.376 43.9061 452.069 43.8586 452.732 44.0083C453.063 44.0832 453.862 44.2657 454.018 44.5839" stroke="white" stroke-width="3" stroke-linecap="round" stroke-linejoin="round"/>
<path d="M452.017 46.7147C453.223 45.4897 454.661 44.5269 455.692 43.1805C456.326 42.3515 456.607 41.0684 457.068 40.1304" stroke="white" stroke-width="3" stroke-linecap="round" stroke-linejoin="round"/>
<path d="M454.686 47.777C455.694 46.9278 456.51 45.8373 457.354 44.8721C457.608 44.5822 458.074 43.7906 458.117 43.4197C458.177 42.9005 458.593 42.4811 458.593 41.9673" stroke="white" stroke-width="3" stroke-linecap="round" stroke-linejoin="round"/>
<path d="M448.967 41.7755C449.026 40.4885 450.201 39.5527 450.778 38.5264C451.053 38.0376 452.017 37.5424 452.017 36.9341" stroke="white" stroke-width="3" stroke-linecap="round" stroke-linejoin="round"/>
<path d="M448.11 38.9666C448.928 38.9666 449.525 38.9436 450.206 38.4824" stroke="white" stroke-width="3" stroke-linecap="round" stroke-linejoin="round"/>
<path d="M451.636 41.6764C452.155 40.8108 453.04 40.3528 453.637 39.5946C453.824 39.357 454.418 38.9192 453.923 38.6532C453.549 38.4517 453.065 38.0049 453.065 37.5612C453.065 37.2477 451.709 36.835 452.398 36.835" stroke="white" stroke-width="3" stroke-linecap="round" stroke-linejoin="round"/>
<path d="M453.256 36.835C453.774 37.5225 454.564 37.9662 454.59 38.8684C454.605 39.3718 454.915 39.8629 454.972 40.3208C455.014 40.6685 455.499 40.9997 455.543 41.3859C455.584 41.7371 456.115 42.0428 456.115 42.451" stroke="white" stroke-width="3" stroke-linecap="round" stroke-linejoin="round"/>
<path d="M455.353 41.9681C454.993 42.0394 454.568 42.269 454.188 42.1402C453.849 42.0253 453.617 41.8189 453.304 41.6776C452.915 41.5019 452.017 40.9699 452.017 40.5156" stroke="white" stroke-width="3" stroke-linecap="round" stroke-linejoin="round"/>
<path d="M450.588 44.1963C450.871 44.577 451.427 45.2005 451.535 45.6971C451.624 46.104 452.068 46.4808 452.208 46.9075" stroke="white" stroke-width="3" stroke-linecap="round" stroke-linejoin="round"/>
<path d="M452.97 47.8738C452.826 47.5866 452.717 47.2069 452.398 47.0991" stroke="white" stroke-width="3" stroke-linecap="round" stroke-linejoin="round"/>
<path d="M457.735 44.3906C457.795 44.9398 457.924 45.3735 458.016 45.8861C458.051 46.0846 458.117 46.2161 458.117 46.424" stroke="white" stroke-width="3" stroke-linecap="round" stroke-linejoin="round"/>
<path d="M458.021 46.9053C457.513 46.9053 457.005 46.9053 456.496 46.9053" stroke="white" stroke-width="3" stroke-linecap="round" stroke-linejoin="round"/>
</svg>
