<svg width="124" height="125" viewBox="0 0 124 125" fill="none" xmlns="http://www.w3.org/2000/svg">
<ellipse cx="61.5157" cy="62.5" rx="61.5157" ry="62.5" fill="black"/>
<path d="M50.0048 15.7993C51.0931 15.827 51.7939 16.5205 52.7255 16.9938C53.6236 17.45 54.619 17.587 55.5975 17.6422C56.5568 17.6963 57.5119 18.1029 58.503 18.1029C59.631 18.1029 60.7976 18.5183 61.9123 18.5636C62.8549 18.6019 64.4108 18.2092 65.2713 18.5978C66.2287 19.03 67.9202 18.6714 68.8654 18.3759C69.755 18.0978 70.5848 17.7772 71.5022 17.4545C72.0972 17.2452 72.2741 17.0313 72.7535 16.6525C73.0416 16.4248 73.7639 16.3568 73.8871 16.1065" stroke="white" stroke-width="3" stroke-linecap="round" stroke-linejoin="round"/>
<path d="M49.6972 15.9766C48.9583 16.109 48.4397 16.6446 47.7335 16.8556C47.4815 16.9309 47.2296 17.1078 46.9887 17.2302C46.6821 17.3859 46.34 17.5583 46.0257 17.6812C45.8193 17.7618 45.3009 17.8965 45.1605 18.0748C45.0233 18.2491 44.5725 18.2969 44.378 18.4226C44.0551 18.6314 43.6787 18.7485 43.3285 18.9042C42.7947 19.1415 42.1814 19.2327 41.7072 19.5539" stroke="white" stroke-width="3" stroke-linecap="round" stroke-linejoin="round"/>
<path d="M41.7072 19.5566C41.0211 19.5566 40.6172 19.9692 40.0069 20.107C39.0379 20.3258 38.2115 20.9966 37.2533 21.223C36.7848 21.3337 36.3068 21.6568 35.8464 21.8269C35.3093 22.0253 34.7911 22.2417 34.2627 22.4766C33.8959 22.6396 33.5245 22.7656 33.1755 22.9429C32.9963 23.0339 32.8081 23.099 32.6338 23.1875C32.4964 23.2573 32.1841 23.258 32.0922 23.3748C31.9091 23.6072 31.3441 23.8531 31.0765 24.0131C30.827 24.1622 30.498 24.3468 30.3994 24.6475" stroke="white" stroke-width="3" stroke-linecap="round" stroke-linejoin="round"/>
<path d="M30.3994 24.645C30.9669 25.0819 31.6321 25.6827 32.0094 26.2961C32.3251 26.8094 32.8959 27.2134 33.2733 27.7064C33.5724 28.0971 33.8582 28.6305 34.0558 29.0823C34.3368 29.7247 34.8006 30.4572 34.8006 31.1806" stroke="white" stroke-width="3" stroke-linecap="round" stroke-linejoin="round"/>
<path d="M34.8007 31.1807C35.0475 31.6721 35.3009 32.0621 35.4477 32.5948C35.6441 33.3073 35.5601 33.999 35.6471 34.7236C35.7414 35.5094 35.679 36.3119 35.7637 37.0971C35.8373 37.7788 35.9518 38.4912 35.9518 39.1762C35.9518 39.9164 35.9518 40.6566 35.9518 41.3968C35.9518 41.9455 35.7393 42.5084 35.6471 43.0517C35.5258 43.7664 35.4363 44.4942 35.3575 45.2149C35.3012 45.7296 35.207 46.2806 35.207 46.7972" stroke="white" stroke-width="3" stroke-linecap="round" stroke-linejoin="round"/>
<path d="M35.2067 46.7964C35.2067 48.5277 35.2067 50.2591 35.2067 51.9904C35.2067 52.4605 35.2067 52.9306 35.2067 53.4007C35.2067 53.8262 35.3307 54.2215 35.3421 54.6391C35.3563 55.1557 35.1855 55.9719 35.4099 56.4277" stroke="white" stroke-width="3" stroke-linecap="round" stroke-linejoin="round"/>
<path d="M30.3315 24.5059C29.799 25.3799 28.7624 25.8345 28.2663 26.7417C28.0393 27.1569 27.753 27.5238 27.4726 27.9074C26.8962 28.6957 26.4776 29.5897 25.8626 30.3535C25.4203 30.9027 24.9202 31.4428 24.6099 32.0733C24.3997 32.5004 24.0271 32.8642 23.7635 33.2581C23.4887 33.6686 23.2287 34.1231 22.9096 34.5194C22.586 34.9212 22.2056 35.2079 21.8525 35.5666C21.5812 35.8422 21.359 36.3401 21.1904 36.6826" stroke="white" stroke-width="3" stroke-linecap="round" stroke-linejoin="round"/>
<path d="M21.1227 36.8242C20.3242 37.9164 19.1704 38.7416 18.5158 39.9238C18.2975 40.3182 17.9754 40.8695 17.6393 41.1621C17.4605 41.3179 16.9923 41.7451 16.9923 41.9839" stroke="white" stroke-width="3" stroke-linecap="round" stroke-linejoin="round"/>
<path d="M16.9246 41.9121C16.4193 42.5765 15.9736 43.2835 15.3936 43.8728C15.0554 44.2163 14.7995 44.6204 14.4343 44.9544C14.1224 45.2396 13.8076 45.4624 13.5729 45.8334C13.4353 46.0508 13.1328 46.4083 13.1328 46.659" stroke="white" stroke-width="3" stroke-linecap="round" stroke-linejoin="round"/>
<path d="M13.1328 46.6616C13.4791 47.0052 13.9415 47.4866 14.3516 47.7471C14.5663 47.8834 14.693 48.066 14.9346 48.1751C15.45 48.4078 15.9139 48.7638 16.3491 49.1077C16.6769 49.3667 17.0682 49.6281 17.361 49.9256C17.6533 50.2225 18.005 50.5512 18.3992 50.7053C19.0606 50.9637 19.5085 51.5956 20.1748 51.8213" stroke="white" stroke-width="3" stroke-linecap="round" stroke-linejoin="round"/>
<path d="M20.1071 51.8896C20.6528 52.6147 21.3377 52.9643 22.003 53.5254C22.6668 54.0853 23.4158 54.8135 24.2525 55.1077C24.678 55.2574 25.3385 55.5031 25.6594 55.811C26.1275 56.2601 26.5474 56.7132 27.0061 57.1792C27.419 57.5987 27.821 58.0632 28.2663 58.4252C28.426 58.555 28.6122 58.6593 28.7742 58.8074C28.9727 58.9889 29.2515 59.3516 29.4852 59.4571C29.7766 59.5887 30.1974 60.0164 30.4294 60.2521C30.6807 60.5074 30.9865 60.7192 31.1441 61.0394" stroke="white" stroke-width="3" stroke-linecap="round" stroke-linejoin="round"/>
<path d="M31.1442 61.036C31.8736 61.036 32.1016 60.7653 32.4683 60.1799C32.6618 59.871 32.9891 59.6451 33.1605 59.3162C33.2721 59.1019 33.4176 58.8737 33.5818 58.697C33.9425 58.309 34.1975 57.8039 34.5674 57.4281C34.8361 57.1551 35.0135 56.5938 35.3423 56.4268" stroke="white" stroke-width="3" stroke-linecap="round" stroke-linejoin="round"/>
<path d="M24.4409 32.4897C24.9447 32.6895 25.3724 32.9843 25.8252 33.2771C26.0127 33.3983 26.1949 33.4822 26.3706 33.621C26.5531 33.7652 26.7441 33.9694 26.9462 34.072" stroke="white" stroke-width="3" stroke-linecap="round" stroke-linejoin="round"/>
<path d="M24.9824 31.6621C25.4702 32.0376 25.9332 32.4891 26.472 32.7628" stroke="white" stroke-width="3" stroke-linecap="round" stroke-linejoin="round"/>
<path d="M49.1556 15.916C49.1556 16.7186 49.1556 17.5212 49.1556 18.3239C49.1556 18.6775 49.2233 19.0296 49.2233 19.3711C49.2233 19.6207 49.2236 20.1231 49.3249 20.3495C49.508 20.7589 49.3634 21.4945 49.4302 21.9356C49.5172 22.5101 49.5837 23.1801 49.8477 23.6899C50.0341 24.0495 50.2565 24.3697 50.4572 24.7218C50.617 25.0024 50.8329 25.3817 51.0515 25.6162C51.3176 25.9015 51.591 26.1643 51.8641 26.4417C52.1356 26.7176 52.4783 27.0033 52.7067 27.3016C52.9985 27.6828 53.5231 28.0612 53.933 28.2992C54.1946 28.451 54.3922 28.7222 54.6741 28.8495C54.9338 28.9668 55.2895 29.1085 55.3851 29.3999" stroke="white" stroke-width="3" stroke-linecap="round" stroke-linejoin="round"/>
<path d="M55.4526 29.3921C56.1123 29.4943 56.8206 29.7694 57.4539 29.996C57.9054 30.1575 58.4084 30.2209 58.8382 30.4393C59.5566 30.8043 60.3564 30.6992 61.1404 30.6992C61.8609 30.6992 62.6695 30.716 63.3599 30.5081C63.6752 30.4132 64.0615 30.4831 64.3906 30.4088C64.8467 30.3058 65.3307 30.34 65.7975 30.2712C66.6345 30.1477 67.5144 29.8705 68.3029 29.5679C68.8291 29.366 69.518 29.1616 69.943 28.773C70.7877 28.0006 71.873 27.5611 72.6816 26.7397C72.9561 26.4607 73.2715 25.7127 73.3248 25.3332C73.3792 24.9464 73.5139 24.3338 73.701 23.9917C73.9225 23.5866 73.8763 23.0383 74.1073 22.6158C74.3258 22.2161 74.3956 21.7276 74.5813 21.3125C74.7859 20.8552 74.886 20.5726 74.886 20.0704C74.886 19.6018 75.1486 19.2125 75.2283 18.7671C75.3568 18.0489 75.5631 17.3274 75.5631 16.5962" stroke="white" stroke-width="3" stroke-linecap="round" stroke-linejoin="round"/>
<path d="M73.1932 16.3976C73.6943 15.9998 73.9458 15.916 74.5813 15.916C74.8545 15.916 75.1946 16.348 75.4277 16.4664" stroke="white" stroke-width="3" stroke-linecap="round" stroke-linejoin="round"/>
<path d="M50.433 17.595C50.433 16.8968 50.5307 16.4386 50.8102 15.8706" stroke="white" stroke-width="3" stroke-linecap="round" stroke-linejoin="round"/>
<path d="M50.4328 17.3037C50.4328 18.7167 50.2635 20.3175 50.8309 21.6147C51.1457 22.3342 51.4494 23.1288 51.8262 23.818C51.9357 24.0183 52.1643 24.3468 52.2191 24.5418C52.3241 24.9151 52.6047 25.0638 52.7901 25.3934C52.9391 25.6583 53.2269 25.8431 53.3768 26.1172C53.5502 26.4344 53.8139 26.8243 54.1573 26.9794C54.5479 27.1558 54.9456 27.3772 55.3359 27.5755C55.7258 27.7735 56.2388 27.6806 56.6088 27.8895C56.9304 28.071 57.334 27.9487 57.6722 28.0545C58.0055 28.1587 58.4353 28.2511 58.7828 28.3153C59.4856 28.4451 60.1814 28.7038 60.8991 28.7038C62.239 28.7038 63.5374 28.6328 64.765 28.1077C66.3595 27.4256 67.9797 26.7508 69.5266 25.8777C70.1284 25.538 70.9668 25.5981 71.5067 25.1592C71.6662 25.0296 71.7034 24.6841 71.8577 24.5099C72.093 24.2443 72.1003 23.9682 72.261 23.6743C72.5494 23.1469 72.2642 22.3656 72.5439 21.8542C72.6839 21.5981 72.4859 21.2453 72.6644 21.0186C72.7844 20.8662 72.6853 20.279 72.6853 20.0819" stroke="white" stroke-width="3" stroke-linecap="round" stroke-linejoin="round"/>
<path d="M72.6854 20.6575C72.9466 19.1534 74.0054 17.9859 74.0054 16.4424" stroke="white" stroke-width="3" stroke-linecap="round" stroke-linejoin="round"/>
<path d="M73.5341 17.9745C72.4336 18.6563 71.4668 19.424 70.213 19.816C69.2399 20.1202 68.1595 20.4653 67.1433 20.4653C66.4104 20.4653 65.702 20.5611 64.9537 20.5611C64.6711 20.5611 64.478 20.481 64.1994 20.4227C63.7946 20.338 63.3694 20.4333 62.9736 20.3216C62.2646 20.1215 61.3749 20.1779 60.6373 20.1779C59.4939 20.1779 58.2389 20.0741 57.1276 19.816C56.6369 19.702 56.0971 19.9003 55.6137 19.7468C55.1166 19.5889 54.6258 19.5109 54.1313 19.337C53.3768 19.0716 52.6075 18.8343 51.8997 18.4748C51.6009 18.323 51.1065 18.3098 50.8573 18.1129C50.6132 17.92 50.3763 17.5913 50.0558 17.5913" stroke="white" stroke-width="3" stroke-linecap="round" stroke-linejoin="round"/>
<path d="M35.1579 56.1968C35.1579 58.0456 35.3959 59.7705 35.5403 61.6041C35.6902 63.5077 35.5351 65.3981 35.5351 67.3095C35.5351 71.812 35.5351 76.3146 35.5351 80.8171" stroke="white" stroke-width="3" stroke-linecap="round" stroke-linejoin="round"/>
<path d="M35.5353 80.8188C35.5353 89.792 35.5353 98.7652 35.5353 107.738" stroke="white" stroke-width="3" stroke-linecap="round" stroke-linejoin="round"/>
<path d="M35.5351 107.739C35.5316 107.909 35.2653 109.447 35.5351 109.463C36.6584 109.53 37.8044 109.463 38.9296 109.463C40.2291 109.463 41.4839 109.176 42.7955 109.176C44.4142 109.176 46.0018 109.08 47.6095 109.08C48.811 109.08 50.0796 109.196 51.2764 109.075C52.2536 108.975 53.2161 108.888 54.2046 108.888" stroke="white" stroke-width="3" stroke-linecap="round" stroke-linejoin="round"/>
<path d="M54.2046 108.887C54.9659 108.887 55.7088 108.983 56.4623 108.983C57.0975 108.983 57.8354 108.954 58.4477 109.127C59.1781 109.333 60.1233 109.354 60.8782 109.366C61.8834 109.382 62.8902 109.366 63.8955 109.366C65.6216 109.366 67.3308 109.27 69.0553 109.27C70.4774 109.27 71.9166 109.366 73.3246 109.366C74.9605 109.366 76.6399 109.462 78.2958 109.462C80.1102 109.462 81.9109 109.079 83.7174 109.079C85.5486 109.079 87.3628 109.175 89.1863 109.175" stroke="white" stroke-width="3" stroke-linecap="round" stroke-linejoin="round"/>
<path d="M89.1865 109.176C89.6759 109.176 90.1191 109.271 90.6009 109.271C90.9598 109.271 90.978 109.431 90.978 108.984C90.978 108.058 90.978 107.132 90.978 106.206C90.978 104.049 90.978 101.891 90.978 99.7341C90.978 97.4207 90.978 95.1073 90.978 92.7939C90.978 91.1375 90.9293 89.4842 90.4123 87.9082" stroke="white" stroke-width="3" stroke-linecap="round" stroke-linejoin="round"/>
<path d="M90.4122 88.0023C90.4122 85.9316 90.1293 83.9306 90.1293 81.8711C90.1293 80.3543 90.1293 78.8375 90.1293 77.3207C90.1293 75.7542 90.1293 74.1877 90.1293 72.6212C90.1293 71.1288 90.4122 69.6638 90.4122 68.1719" stroke="white" stroke-width="3" stroke-linecap="round" stroke-linejoin="round"/>
<path d="M90.4121 68.1739C90.4121 66.6301 90.4979 65.0259 90.2288 63.5223C90.0661 62.6135 90.035 61.7495 90.035 60.8186C90.035 59.4939 90.2236 58.232 90.2236 56.9281C90.2236 56.5299 90.6423 57.6061 90.9045 57.9021C91.0593 58.0768 91.3109 58.2953 91.4284 58.4982C91.5645 58.7333 91.9498 58.9424 92.0098 59.2167C92.0577 59.4357 92.2198 59.5785 92.2979 59.7968C92.3955 60.0693 92.3839 60.4036 92.5599 60.627C92.815 60.9511 92.977 61.3211 93.3351 61.5637" stroke="white" stroke-width="3" stroke-linecap="round" stroke-linejoin="round"/>
<path d="M75.5142 16.5361C75.7678 16.7313 76.008 17.0284 76.3105 17.1162C76.4109 17.1454 76.5844 17.2144 76.6667 17.2812C76.9289 17.4944 77.5221 17.4 77.8296 17.542C78.556 17.8775 79.3216 17.619 79.9668 18.1434C80.5994 18.6576 81.6483 18.8988 82.3974 19.1706C83.1309 19.4367 83.9989 19.2231 84.7023 19.5804C85.0783 19.7714 85.4999 19.7245 85.8862 19.9104C86.2314 20.0765 86.6923 20.1935 87.0648 20.2776C87.2394 20.317 87.5073 20.4641 87.6567 20.5597C87.9137 20.7241 88.1257 20.6819 88.3796 20.7992C88.8169 21.0011 89.327 20.9739 89.7521 21.1558C90.655 21.542 91.7152 21.5499 92.6698 21.853C93.5133 22.1208 94.0632 22.7364 94.6552 23.3379" stroke="white" stroke-width="3" stroke-linecap="round" stroke-linejoin="round"/>
<path d="M93.8065 23.626C93.2095 24.5179 92.5415 25.4502 91.8473 26.2338C91.5361 26.5851 91.4592 27.2461 91.2606 27.6495" stroke="white" stroke-width="3" stroke-linecap="round" stroke-linejoin="round"/>
<path d="M94.5607 23.4336C95.1708 24.2519 95.6581 25.18 96.3522 25.9244C97.4362 27.0869 98.1196 28.5844 99.2018 29.735C99.633 30.1935 100.332 30.807 100.616 31.3849C100.904 31.9703 101.38 32.5407 101.821 33.0135C102.198 33.4174 102.403 33.9675 102.764 34.3547C102.988 34.5946 103.073 34.8932 103.309 35.1424C103.528 35.3736 103.722 35.6931 103.895 35.962C104.451 36.8253 104.94 37.6972 105.498 38.5485C105.902 39.1631 106.516 39.6147 106.913 40.2197C107.131 40.5523 107.262 40.9277 107.499 41.2522C107.692 41.5155 107.946 41.791 108.065 42.0931C108.244 42.5478 108.729 42.9268 108.966 43.3598C109.183 43.7572 109.431 44.2038 109.72 44.5307C110.34 45.2298 110.959 45.938 111.627 46.6169" stroke="white" stroke-width="3" stroke-linecap="round" stroke-linejoin="round"/>
<path d="M111.627 46.9053C112.067 47.254 112.693 47.7788 112.287 48.2944C112.023 48.6298 111.468 48.903 111.114 49.1087C110.804 49.2888 110.479 49.6205 110.192 49.8538C109.856 50.1272 109.346 50.2576 109.008 50.5669C108.267 51.2444 107.355 51.6713 106.578 52.3179C106.091 52.7223 105.466 52.9738 105.027 53.4196C104.622 53.8307 104.019 54.2938 103.518 54.5479C102.681 54.9731 101.975 55.6173 101.114 56.0062C100.034 56.494 99.2496 57.5641 98.2381 58.135C97.7889 58.3886 97.4467 58.8543 96.9652 59.0717C96.6218 59.2268 95.9764 59.5538 95.7866 59.8914C95.2866 60.7804 94.162 61.6583 93.1464 61.6583" stroke="white" stroke-width="3" stroke-linecap="round" stroke-linejoin="round"/>
<path d="M111.685 46.6523C111.73 46.7291 111.852 46.8814 111.852 46.9729" stroke="white" stroke-width="3" stroke-linecap="round" stroke-linejoin="round"/>
<path d="M90.4978 28.335C90.4978 29.6844 90.3511 30.8694 90.2786 32.1222C90.227 33.0135 89.84 33.8406 89.84 34.845C89.84 37.7659 89.84 40.6868 89.84 43.6076C89.84 46.7013 89.7278 49.732 90.2664 52.7415C90.6001 54.6066 90.7171 60.3056 90.7171 58.41" stroke="white" stroke-width="3" stroke-linecap="round" stroke-linejoin="round"/>
</svg>
