<svg width="124" height="125" viewBox="0 0 124 125" fill="none" xmlns="http://www.w3.org/2000/svg">
<ellipse cx="62.4843" cy="62.5" rx="61.5157" ry="62.5" fill="#6077C6"/>
<path d="M17.379 56.4443C17.379 58.3289 17.6208 59.9358 18.4825 61.5992C18.802 62.2161 18.934 62.9895 19.1062 63.6892C19.287 64.424 19.6246 65.4004 20.0298 66.0472C20.9415 67.503 22.3002 68.2675 23.5801 69.3315C24.0028 69.6828 24.4892 69.9911 24.9355 70.3186C25.4465 70.6935 25.7908 71.2617 26.2909 71.6652C27.0226 72.2556 28.021 73.2794 28.174 74.2121" stroke="white" stroke-width="3" stroke-linecap="round" stroke-linejoin="round"/>
<path d="M28.1732 74.2134C28.82 75.0497 29.361 75.9686 30.0923 76.7116C30.8065 77.4371 31.646 78.1295 32.1434 79.0392C32.6293 79.9278 33.5941 80.5516 34.0865 81.4521C34.4319 82.0837 34.5849 82.7235 34.9741 83.3166" stroke="white" stroke-width="3" stroke-linecap="round" stroke-linejoin="round"/>
<path d="M34.8661 83.208C35.3351 83.8369 35.8429 84.3977 36.3175 85.0177C36.7056 85.5247 36.9048 86.1302 37.349 86.608C38.2684 87.597 38.7086 88.9924 39.7779 89.8374C40.3154 90.2622 40.9742 90.7503 41.5591 91.0804C42.0846 91.3771 42.8072 91.7148 43.2323 92.1468C44.1123 93.0408 45.092 93.7421 46.093 94.5048" stroke="white" stroke-width="3" stroke-linecap="round" stroke-linejoin="round"/>
<path d="M46.093 94.5049C46.8395 94.6674 47.3018 94.9226 47.9282 95.297C48.2428 95.485 48.6091 95.859 48.9537 95.9368C49.8437 96.1377 50.6391 96.8932 51.4965 97.1981C52.6201 97.5976 53.6835 97.9854 54.813 98.368C55.7613 98.6891 56.9481 99.0627 57.6437 99.7694" stroke="white" stroke-width="3" stroke-linecap="round" stroke-linejoin="round"/>
<path d="M57.5358 99.55C59.7152 99.55 61.6747 100.647 63.8809 100.647C64.5726 100.647 65.2642 100.647 65.9559 100.647C66.6935 100.647 67.4038 100.248 68.1149 100.208C68.6734 100.177 69.1961 99.7693 69.7822 99.7693C70.5683 99.7693 71.3415 99.3604 72.1331 99.3306C72.3796 99.3213 72.7844 99.1626 72.9727 99.0016C73.1442 98.8549 73.497 98.5333 73.6744 98.4532C74.4443 98.1055 75.0859 97.2848 75.8334 96.8628C76.2291 96.6395 76.7776 96.0579 76.9909 95.7112C77.0786 95.5686 77.3069 95.3179 77.4227 95.1872C77.6344 94.9482 77.5657 94.5781 77.6686 94.2854C77.8638 93.73 77.9001 93.1173 78.0704 92.5549C78.2583 91.9344 78.3702 91.2164 78.3702 90.5625C78.3702 89.9349 78.5861 89.312 78.5861 88.6918C78.5861 88.1435 78.5861 87.5951 78.5861 87.0467C78.5861 86.5012 78.6159 85.946 78.5861 85.4015C78.5572 84.8728 78.212 84.261 78.0464 83.7563" stroke="white" stroke-width="3" stroke-linecap="round" stroke-linejoin="round"/>
<path d="M78.0464 83.7542C77.8576 83.2917 77.7297 82.8607 77.3447 82.5478C77.1094 82.3565 76.8161 82.0527 76.667 81.78C76.3095 81.1262 75.9939 80.1776 75.4016 79.6961C75.1682 79.5065 74.9711 78.992 74.8319 78.709C74.6604 78.3606 74.4383 78.0573 74.2441 77.7219C74.1559 77.5696 73.7886 76.9143 73.6684 76.8445C73.385 76.68 73.1941 75.9727 72.9188 75.6929C72.4249 75.1911 71.8885 74.448 71.2935 74.1026C70.5928 73.6957 69.8781 73.2194 69.1945 72.8108C68.9191 72.6462 68.7718 72.2869 68.4988 72.1284C68.1974 71.9534 67.6057 71.5126 67.4672 71.1961C67.0912 70.3365 66.3531 69.9845 65.6321 69.4961" stroke="white" stroke-width="3" stroke-linecap="round" stroke-linejoin="round"/>
<path d="M65.6321 69.4955C64.7322 68.1241 63.5765 67.0723 62.9333 65.6019C62.6109 64.8649 61.9676 63.6511 61.2661 63.2438C61.0714 63.1308 60.6663 62.3388 60.5584 62.0922C60.3639 61.6476 59.9193 61.2982 59.5869 60.9406C58.967 60.2738 58.3521 59.4982 57.6677 58.942C57.1394 58.5126 56.6204 57.9266 56.1324 57.4309C55.8379 57.1316 55.2914 56.9111 55.0529 56.6083C54.5591 55.9812 54.1484 55.5405 53.8655 54.7499C53.7811 54.5142 53.58 53.8646 53.3797 53.7018C53.0327 53.4198 52.6078 53.2444 52.3782 52.8244C52.1138 52.341 51.645 52.0357 51.3826 51.5692C51.1963 51.238 50.9614 50.8008 50.627 50.6309" stroke="white" stroke-width="3" stroke-linecap="round" stroke-linejoin="round"/>
<path d="M50.6269 50.632C50.1241 49.9296 49.5255 49.4642 48.9237 48.8528C48.4736 48.3955 48.3404 47.6024 48.0361 47.0614C47.2583 45.6785 46.6655 44.2325 45.2294 43.5029" stroke="white" stroke-width="3" stroke-linecap="round" stroke-linejoin="round"/>
<path d="M45.2294 43.505C45.3994 42.6197 46.2009 41.8098 46.2009 40.9214C46.2009 40.4336 46.2291 39.9341 46.2009 39.4469C46.1804 39.0929 45.8771 38.7521 45.8771 38.3501" stroke="white" stroke-width="3" stroke-linecap="round" stroke-linejoin="round"/>
<path d="M45.8771 38.3481C45.9701 37.864 46.6703 36.2508 46.177 35.8499C45.5691 35.3558 44.8466 37.0229 44.7976 37.4707C44.7482 37.9224 44.5344 38.0518 44.2819 38.3725C44.0769 38.6327 43.9981 39.0344 43.85 39.3352C43.6582 39.7251 43.587 40.1559 43.4182 40.5416C43.2805 40.8565 43.4189 41.2781 43.2023 41.5531C42.9829 41.8318 43.0953 42.4119 42.8305 42.7108C42.6591 42.9044 42.0821 42.8888 41.9069 42.7108C41.7578 42.5593 41.9909 41.8526 41.9909 41.6384C41.9909 40.9718 41.6657 41.2179 41.2592 40.8463C41.0114 40.6197 40.9772 40.3689 40.5875 40.3223C40.1844 40.2741 39.808 40.0176 39.4001 39.9933C39.0749 39.9738 38.7029 39.862 38.3206 39.8836C37.9762 39.903 37.7316 40.1828 37.457 40.3223" stroke="white" stroke-width="3" stroke-linecap="round" stroke-linejoin="round"/>
<path d="M37.4569 40.3209C37.054 39.9915 36.6496 39.6771 36.2694 39.3338C35.9411 39.0373 35.6857 38.6181 35.3519 38.3467C34.7244 37.8367 34.121 37.7184 33.4627 37.384C33.1409 37.2205 32.7249 37.181 32.4672 36.9453C32.2601 36.7559 31.6604 36.4588 31.4057 36.3725C30.7205 36.1405 30.0811 35.4951 29.3606 35.4951" stroke="white" stroke-width="3" stroke-linecap="round" stroke-linejoin="round"/>
<path d="M29.3607 35.4967C28.5517 35.4967 27.8645 35.3836 27.1417 35.1738C26.8329 35.0842 26.4325 34.8517 26.0982 34.8387C25.3258 34.8085 24.5464 34.729 23.7473 34.729C23.13 34.729 22.5988 35.255 22.212 35.6917C21.7925 36.1653 21.2221 36.8811 21.0425 37.5197C20.9638 37.7995 20.7185 38.1705 20.5927 38.4581C20.4198 38.8534 20.2792 39.2427 20.1309 39.6645C19.9497 40.1801 19.8493 40.716 19.6691 41.2244C19.5474 41.5678 19.3213 41.9818 19.3213 42.3516C19.3213 42.6086 19.1642 43.1445 19.0814 43.4179C18.9472 43.8611 18.8966 44.3278 18.7755 44.7584C18.681 45.0948 18.2533 47.1284 18.6736 47.342" stroke="white" stroke-width="3" stroke-linecap="round" stroke-linejoin="round"/>
<path d="M18.6735 47.3413C18.6735 48.4649 18.7313 49.5724 18.4036 50.6377C18.1967 51.3103 18.5347 52.2594 18.0018 52.8008C17.5889 53.2203 17.486 54.1625 17.486 54.7446C17.486 55.5027 17.2701 56.3365 17.2701 57.1026" stroke="white" stroke-width="3" stroke-linecap="round" stroke-linejoin="round"/>
<path d="M52.0303 76.9566C51.845 76.4741 51.3504 75.3613 52.0843 75.1956C52.6804 75.061 53.0296 74.4991 53.5416 74.239C54.5431 73.7303 55.2214 72.953 56.2404 72.4354C57.4798 71.8058 58.637 71.097 59.8028 70.4003C60.679 69.8766 61.4173 69.1694 62.5016 69.1694C63.1319 69.1694 62.9073 70.087 63.0953 70.4307C63.3903 70.9703 62.829 71.0791 62.5255 71.3874C62.2306 71.687 61.8751 72.2004 61.47 72.3501C60.9119 72.5563 60.2267 73.0401 59.8028 73.4469C58.9167 74.2971 57.5381 74.5898 56.5163 75.2505C56.169 75.475 55.4492 75.9458 55.053 75.9695C54.5317 76.0006 53.9483 76.6417 53.4877 76.9017C53.3033 77.0058 52.9437 77.0662 52.732 77.0662C52.454 77.0662 52.3172 77.2856 52.0303 77.2856" stroke="white" stroke-width="3" stroke-linecap="round" stroke-linejoin="round"/>
<path d="M55.7006 75.6401C55.9459 76.2557 56.3111 77.3557 56.7561 77.8581C57.139 78.2903 57.104 79.0516 57.104 79.6129C57.104 81.0448 56.4774 82.6386 55.9165 83.9208C55.3561 85.2018 54.2849 86.4724 53.9794 87.8692C53.7359 88.9825 53.4639 90.1352 53.1098 91.2144" stroke="white" stroke-width="3" stroke-linecap="round" stroke-linejoin="round"/>
<path d="M54.837 70.3769C55.1464 68.9102 55.6287 67.3181 56.6962 66.2335C57.078 65.8456 57.5057 65.7705 58.0216 65.7705C58.5976 65.7705 58.9156 65.6739 59.1791 66.2092C59.4345 66.7282 59.7173 67.1734 59.209 67.6898C58.8647 68.0397 58.4849 68.619 58.2675 69.0608C58.1544 69.2906 57.7637 69.9915 57.7637 70.2124C57.7637 70.4141 59.1557 70.1576 59.263 70.1576" stroke="white" stroke-width="3" stroke-linecap="round" stroke-linejoin="round"/>
<path d="M58.5073 69.4961C58.784 69.7005 59.4306 70.0561 59.5868 70.3735" stroke="white" stroke-width="3" stroke-linecap="round" stroke-linejoin="round"/>
<path d="M55.1608 65.4399C55.3082 65.7922 55.5403 66.1013 55.7006 66.427" stroke="white" stroke-width="3" stroke-linecap="round" stroke-linejoin="round"/>
<path d="M49.7633 73.4447C49.3678 73.1307 49.0077 72.6977 49.0077 72.1834C49.0077 71.8783 49.8701 71.7074 50.1112 71.6899C50.6848 71.6482 51.1797 71.3608 51.7604 71.3608C52.0166 71.3608 52.5286 71.2333 52.786 71.1171C53.5545 70.77 54.2985 70.8124 55.1369 70.8124C55.8807 70.8124 56.8975 70.8076 57.5358 70.4834" stroke="white" stroke-width="3" stroke-linecap="round" stroke-linejoin="round"/>
<path d="M49.4395 73.6643C50.7576 73.6643 52.0492 73.7326 53.2657 73.1708C53.4411 73.0898 53.6723 73.0063 53.8654 73.0063C54.081 73.0063 54.146 72.8394 54.3512 72.793C54.7232 72.709 55.0674 72.6772 55.4847 72.6772" stroke="white" stroke-width="3" stroke-linecap="round" stroke-linejoin="round"/>
<path d="M45.7691 69.6094C47.1085 69.6094 48.4479 69.6094 49.7873 69.6094C50.6023 69.6094 51.3439 69.4349 52.1382 69.3901C52.7445 69.3558 53.3225 69.061 53.9734 69.061C54.5915 69.061 55.1085 69.2804 55.7006 69.2804" stroke="white" stroke-width="3" stroke-linecap="round" stroke-linejoin="round"/>
<path d="M55.2688 66.4282C53.848 66.4282 52.4555 66.5457 51.0587 66.5457" stroke="white" stroke-width="3" stroke-linecap="round" stroke-linejoin="round"/>
<path d="M48.252 66.3145C48.5399 66.3145 48.8278 66.3145 49.1156 66.3145" stroke="white" stroke-width="3" stroke-linecap="round" stroke-linejoin="round"/>
<path d="M41.3432 51.9492C41.3432 54.7572 42.1019 57.3892 42.8545 60.0654C43.1449 61.0981 43.8122 62.0722 44.2819 63.0267C44.6366 63.7476 44.8718 64.466 45.1455 65.2446C45.3653 65.8699 45.4918 66.5065 45.7932 67.0848C45.9773 67.438 46.3247 67.5436 46.5248 67.7977C46.8574 68.22 48.1099 68.6202 48.6299 68.6202C49.2861 68.6202 50.1918 68.436 50.495 67.7428C50.7703 67.1136 50.519 65.9579 50.519 65.2751C50.519 64.8448 50.4111 64.4272 50.4111 64.0138" stroke="white" stroke-width="3" stroke-linecap="round" stroke-linejoin="round"/>
<path d="M51.8144 66.5371C52.288 65.3482 53.0571 64.228 53.6256 63.1371C54.0318 62.3575 54.1048 61.6016 55.1069 61.6016C56.0834 61.6016 55.9165 62.7526 55.9165 63.5209C55.9165 64.3761 55.0529 64.845 55.0529 65.6596" stroke="white" stroke-width="3" stroke-linecap="round" stroke-linejoin="round"/>
<path d="M61.4221 72.6772C61.9955 72.9188 62.3659 73.3196 62.8794 73.6095C63.2364 73.811 63.6004 73.9556 63.9589 74.1579C64.8333 74.6515 65.9065 74.4923 66.8196 74.9561C67.4951 75.2993 68.2118 75.1828 68.9306 75.3156C69.7557 75.468 70.2608 76.0835 70.9757 76.4063C72.3544 77.0289 72.6078 78.5383 73.4526 79.6418C74.2265 80.6528 74.8471 82.0096 75.2397 83.2063" stroke="white" stroke-width="3" stroke-linecap="round" stroke-linejoin="round"/>
<path d="M69.0865 73.0078C69.5565 73.299 69.9485 73.5761 70.2979 73.9705C70.4789 74.1748 70.5473 74.4433 70.7297 74.6286C71.1318 75.0371 71.5523 75.454 72.0012 75.8594C72.3827 76.204 72.7407 76.959 73.1886 77.1999C73.705 77.4777 73.9927 78.1324 74.484 78.382" stroke="white" stroke-width="3" stroke-linecap="round" stroke-linejoin="round"/>
<path d="M18.0259 55.022C19.1269 58.312 21.4563 60.8459 23.9632 63.1381C24.4614 63.5937 25.0546 63.918 25.5284 64.3994C26.0808 64.9606 26.619 65.6538 27.0398 66.3188C27.3869 66.8675 27.9731 67.2732 28.4131 67.7202C28.8037 68.1171 29.5082 69.001 30.0084 69.1704" stroke="white" stroke-width="3" stroke-linecap="round" stroke-linejoin="round"/>
<path d="M30.0084 69.1694C30.6798 70.7521 31.8994 71.8903 32.923 73.2275C34.0533 74.7039 35.4089 76.0586 36.1615 77.7791C36.4072 78.3407 36.9473 78.8354 37.2411 79.3695C37.6258 80.0689 38.2504 80.6474 38.7284 81.2949C39.1455 81.86 39.4987 82.4841 40.0718 82.8792C40.6164 83.2546 41.5133 84.1953 42.2068 84.1953" stroke="white" stroke-width="3" stroke-linecap="round" stroke-linejoin="round"/>
<path d="M41.775 84.1963C43.0574 85.3823 44.1885 86.8897 45.6552 87.8583C45.8136 87.9629 46.32 88.0766 46.4168 88.1995C46.5573 88.3779 47.0648 88.486 47.2804 88.5834C47.9781 88.8984 48.7931 89.0044 49.4395 89.4364C49.7806 89.6645 52.658 91.2563 52.8939 90.777" stroke="white" stroke-width="3" stroke-linecap="round" stroke-linejoin="round"/>
<path d="M52.8939 90.7762C54.2027 90.7762 55.8788 91.1932 57.02 91.873C58.2816 92.6243 59.9903 92.7666 61.398 92.9454C63.052 93.1554 64.8278 92.9697 66.4957 92.9697C67.3415 92.9697 68.1201 92.7013 68.9546 92.6407C69.5933 92.5944 70.262 92.1943 70.8977 92.0679C71.7435 91.8998 71.9537 91.1374 72.6489 90.6665" stroke="white" stroke-width="3" stroke-linecap="round" stroke-linejoin="round"/>
<path d="M72.6489 90.6669C73.2598 89.8791 73.9456 89.3045 74.4301 88.4185C74.7465 87.8399 75.0926 87.3385 75.4016 86.7734C76.1113 85.4755 75.7276 83.7617 75.1317 82.5508" stroke="white" stroke-width="3" stroke-linecap="round" stroke-linejoin="round"/>
<path d="M32.2753 53.9218C33.0033 53.3391 33.8693 52.3738 34.8122 52.1609C35.5017 52.0052 36.1137 51.5505 36.8093 51.5089C37.363 51.4758 38.0504 51.0509 38.3206 50.5706C38.6496 49.9856 39.337 49.5532 39.616 48.9863" stroke="white" stroke-width="3" stroke-linecap="round" stroke-linejoin="round"/>
<path d="M31.8435 53.9214C31.8435 54.7589 31.8536 54.7995 32.3593 55.2619C32.5402 55.4273 32.8188 55.4189 33.007 55.5909C33.4111 55.9605 34.1788 56.0053 34.7042 56.0053C35.3527 56.0053 35.6025 55.6704 36.0536 55.2375C36.5014 54.8079 37.028 54.6505 37.349 54.0798C37.577 53.6745 37.8232 53.3465 38.1046 52.9891C38.2312 52.8284 38.5427 52.5124 38.6984 52.3859C38.9057 52.2174 39.0566 52.0027 39.2921 51.8619C39.5333 51.7177 39.7166 51.4553 39.9398 51.3135C40.087 51.2201 40.5048 51.12 40.5875 51.0149C41.2765 50.1399 41.2352 51.7356 41.2352 52.0569" stroke="white" stroke-width="3" stroke-linecap="round" stroke-linejoin="round"/>
<path d="M41.9909 52.2764C42.5995 53.2905 43.5355 54.0875 44.4198 54.8477C45.1342 55.4619 45.6 55.9155 46.147 56.7183C46.9497 57.8963 47.395 59.245 48.336 60.3072C49.0389 61.1007 49.013 62.6135 50.0332 63.1893C50.8465 63.6484 51.2681 64.7043 52.1383 64.999" stroke="white" stroke-width="3" stroke-linecap="round" stroke-linejoin="round"/>
<path d="M45.1214 56.2266C45.1214 57.3445 45.3166 58.2982 45.5472 59.3524C45.6291 59.7268 45.8012 60.0747 45.8831 60.4492C45.9494 60.7525 46.2009 61.1501 46.2009 61.4363C46.2009 62.0702 46.7396 63.4384 47.1725 63.904C47.4883 64.2438 47.6478 64.6018 47.8442 65.0008C48.0205 65.3591 48.2227 66.2472 48.5758 66.4266" stroke="white" stroke-width="3" stroke-linecap="round" stroke-linejoin="round"/>
<path d="M45.0135 57.2148C45.5347 58.2399 46.5852 59.6021 46.8427 60.7794C46.9103 61.0886 46.9646 61.5379 47.0885 61.8213C47.1941 62.0625 47.3601 62.5643 47.3884 62.8084C47.4868 63.6581 48.5595 64.1586 49.0077 64.7278C49.2554 65.0425 49.4395 65.0595 49.4395 65.5504C49.4395 65.8582 49.3903 66.2834 49.2236 66.5375" stroke="white" stroke-width="3" stroke-linecap="round" stroke-linejoin="round"/>
<path d="M45.985 60.6224C46.2157 60.6161 46.3437 60.5837 46.5248 60.5049" stroke="white" stroke-width="3" stroke-linecap="round" stroke-linejoin="round"/>
<path d="M37.7808 59.8447C39.2978 60.7469 40.9926 60.2834 42.6385 60.2834" stroke="white" stroke-width="3" stroke-linecap="round" stroke-linejoin="round"/>
<path d="M37.4569 59.8434C37.4569 59.7508 37.3502 58.4304 37.5649 58.4176C38.0809 58.3868 38.6072 58.4176 39.1242 58.4176C39.893 58.4176 40.5792 58.1982 41.3432 58.1982" stroke="white" stroke-width="3" stroke-linecap="round" stroke-linejoin="round"/>
<path d="M37.241 52.9375C38.0968 53.9933 38.8908 55.0524 39.8318 56.0085C40.1591 56.341 40.492 56.804 40.7554 57.1906C40.9262 57.4412 41.2183 57.6192 41.3432 57.873" stroke="white" stroke-width="3" stroke-linecap="round" stroke-linejoin="round"/>
<path d="M38.2126 53.0464C38.8719 53.0464 39.4184 53.0909 39.9998 53.2596C40.3272 53.3547 40.8072 53.5948 41.1273 53.5948" stroke="white" stroke-width="3" stroke-linecap="round" stroke-linejoin="round"/>
<path d="M29.6845 51.2913C30.4372 51.026 31.2345 50.762 31.9515 50.4382C32.3246 50.2697 33.0532 50.4138 33.4628 50.4138C33.8724 50.4138 34.601 50.2697 34.9741 50.4382C35.2239 50.551 35.5568 50.6845 35.7537 50.8769C35.9117 51.0313 36.4887 51.2913 36.2695 51.2913" stroke="white" stroke-width="3" stroke-linecap="round" stroke-linejoin="round"/>
<path d="M30.0084 51.4008C30.939 50.6713 32.007 49.9668 32.8151 49.0975C33.4094 48.4582 33.9176 47.7472 34.6982 47.294C35.1898 47.0086 35.632 46.517 36.0536 46.1362C36.2427 45.9655 36.4752 45.788 36.7013 45.6732C36.7581 45.6443 37.3416 45.3862 37.283 45.3624C36.3977 45.0026 36.1519 43.5655 36.3715 42.785C36.5721 42.0714 37.1413 41.1924 37.6729 40.6523" stroke="white" stroke-width="3" stroke-linecap="round" stroke-linejoin="round"/>
<path d="M38.5364 41.9671C39.1426 41.9671 39.6886 42.008 40.2636 42.0768C40.5176 42.1071 40.3716 43.915 40.3716 44.1607C40.3716 44.2624 40.4029 44.7118 40.3476 44.5994C40.1783 44.2554 39.9397 43.9664 39.7479 43.6366C39.5185 43.2422 39.3669 42.6263 39.0762 42.2961C38.9286 42.1286 38.7403 42.0522 38.6444 41.8574" stroke="white" stroke-width="3" stroke-linecap="round" stroke-linejoin="round"/>
<path d="M42.2068 43.1763C42.0974 43.7735 42.09 44.3922 41.9849 44.9799C41.9638 45.0978 41.9048 45.6372 41.8289 45.6989C41.8223 45.7043 41.5497 46.4061 41.4571 46.0767C41.3942 45.8529 41.3432 45.6696 41.3432 45.4247C41.3432 44.6828 40.8438 43.0461 41.667 42.6279" stroke="white" stroke-width="3" stroke-linecap="round" stroke-linejoin="round"/>
<path d="M37.349 44.708C37.6093 45.4022 37.888 45.9351 38.2366 46.5725C38.5459 47.1382 38.7775 46.7748 39.0762 46.5725" stroke="white" stroke-width="3" stroke-linecap="round" stroke-linejoin="round"/>
<path d="M39.0762 46.4635C39.772 46.4528 40.4844 46.2441 41.1273 46.2441" stroke="white" stroke-width="3" stroke-linecap="round" stroke-linejoin="round"/>
<path d="M50.0872 58.5277C50.4744 57.8555 51.2902 56.5056 52.1382 56.5535C52.5409 56.5762 52.7297 57.0781 52.8939 57.37C52.987 57.5355 53.1658 57.605 53.2117 57.8148C53.256 58.0172 53.0503 58.2785 53.0078 58.4728C52.8727 59.0908 52.3478 59.7667 52.0303 60.3313C51.8933 60.5747 51.7018 60.84 51.4665 61.0259C51.2758 61.1766 50.5111 58.6334 50.3031 58.5277" stroke="white" stroke-width="3" stroke-linecap="round" stroke-linejoin="round"/>
<path d="M47.0646 53.5956C47.5414 52.9368 47.9894 52.656 48.5219 52.115C48.8003 51.8321 49.2281 51.2219 49.6794 51.5971C50.2538 52.0746 51.5003 53.4298 50.459 54.0343C49.8073 54.4127 49.0918 55.5256 48.7378 56.1731C48.6398 56.3523 49.1181 57.0262 49.2476 57.1906C49.4311 57.4236 49.7346 57.8146 49.8713 58.0924" stroke="white" stroke-width="3" stroke-linecap="round" stroke-linejoin="round"/>
<path d="M49.1156 55.7881C49.1588 55.9881 49.4235 56.9037 49.7153 56.9884C50.0248 57.0783 50.3067 57.3345 50.411 57.6526" stroke="white" stroke-width="3" stroke-linecap="round" stroke-linejoin="round"/>
<path d="M44.9056 48.9863C45.0097 49.5286 44.8932 49.8568 45.3374 50.1075C45.6782 50.2998 46.201 50.6768 46.201 51.125C46.201 51.7659 46.0664 52.8115 46.7407 53.1541" stroke="white" stroke-width="3" stroke-linecap="round" stroke-linejoin="round"/>
<path d="M44.4738 48.6592C45.2527 49.2962 45.9233 50.2806 46.3929 51.1818C46.5802 51.5413 46.6961 51.9556 46.9026 52.3334C47.0558 52.6134 47.5433 53.1703 47.3884 53.485" stroke="white" stroke-width="3" stroke-linecap="round" stroke-linejoin="round"/>
<path d="M40.4796 56.3359C41.1853 56.3506 41.7317 56.5309 41.775 57.323C41.7969 57.7237 42.2068 57.9529 42.2068 58.3101" stroke="white" stroke-width="3" stroke-linecap="round" stroke-linejoin="round"/>
<path d="M41.3432 58.3115C41.883 58.3115 42.4227 58.3115 42.9625 58.3115" stroke="white" stroke-width="3" stroke-linecap="round" stroke-linejoin="round"/>
<path d="M45.1214 68.0728C45.1409 68.8835 45.6579 69.1597 45.8771 69.8276" stroke="white" stroke-width="3" stroke-linecap="round" stroke-linejoin="round"/>
<path d="M45.3374 68.0712C45.4328 67.8431 45.5566 67.6258 45.6613 67.4131" stroke="white" stroke-width="3" stroke-linecap="round" stroke-linejoin="round"/>
<path d="M42.2068 65.1109C41.7021 64.5981 41.5648 64.3051 41.4452 63.6363C41.4094 63.4366 41.1845 62.8708 41.3972 62.698C41.622 62.5152 41.9346 62.6194 42.2068 62.503C42.4432 62.4019 43.0224 62.2593 43.2863 62.2593" stroke="white" stroke-width="3" stroke-linecap="round" stroke-linejoin="round"/>
<path d="M42.3148 65.2178C43.2768 65.2178 44.1687 65.2178 45.1215 65.2178" stroke="white" stroke-width="3" stroke-linecap="round" stroke-linejoin="round"/>
<path d="M20.9405 39.7729C20.9405 41.3939 20.8326 43.069 20.8326 44.6536C20.8326 45.3848 20.8326 46.116 20.8326 46.8472C20.8326 47.5139 21.206 48.0379 21.3663 48.6081C21.5996 49.4374 22.3012 50.2239 22.8836 50.8504C23.059 51.039 23.2629 51.2498 23.4234 51.4536C23.6319 51.7185 24.5063 52.2379 24.8268 52.2762C26.4514 52.4704 28.4696 52.697 29.9004 51.7278" stroke="white" stroke-width="3" stroke-linecap="round" stroke-linejoin="round"/>
<path d="M20.8326 40.3249C20.8326 39.424 21.4008 38.2586 21.9601 37.5281C22.4466 36.8926 22.875 36.5032 23.5853 36.1023C24.3682 35.6604 25.5213 35.8281 26.392 35.8281C26.7207 35.8281 27.1598 36.2141 27.4655 36.3521C27.8051 36.5054 28.5015 36.5958 28.8749 36.5958C29.3428 36.5958 29.6628 36.9638 30.0624 37.1442C30.5693 37.3732 31.1299 37.3826 31.6276 37.6073C31.993 37.7723 32.2981 38.0954 32.6532 38.2958C33.0336 38.5106 33.4586 38.5049 33.7627 38.8138C33.997 39.0518 34.4922 39.0822 34.6503 39.2829C34.8613 39.551 35.3972 39.3899 35.6458 39.6424C35.8534 39.8534 35.9732 40.2973 36.2096 40.4346C36.483 40.5933 36.7349 40.8355 37.0252 40.983" stroke="white" stroke-width="3" stroke-linecap="round" stroke-linejoin="round"/>
<path d="M22.7756 42.0796C22.3418 43.1425 22.4518 44.2258 22.4518 45.3699C22.4518 46.2119 22.7756 47.035 22.7756 47.8377C22.7756 48.7194 23.4205 49.3356 23.6452 50.1348C23.7638 50.5566 24.1836 50.9656 24.3949 51.3413C24.5529 51.6223 24.7701 52.1412 25.0426 52.2796" stroke="white" stroke-width="3" stroke-linecap="round" stroke-linejoin="round"/>
<path d="M22.6677 47.1229C24.2422 47.0857 25.8195 46.0214 27.2856 45.5631C28.2051 45.2756 29.4825 45.4777 30.4341 45.4777C31.4369 45.4777 32.0323 45.8675 32.923 46.1907C33.4231 46.3721 34.52 46.639 34.7581 47.1229" stroke="white" stroke-width="3" stroke-linecap="round" stroke-linejoin="round"/>
<path d="M22.6677 41.8599C23.873 40.9852 26.0716 40.4288 27.5794 40.7693C28.7993 41.0447 29.8749 41.6033 30.9799 42.1646C31.4489 42.4029 31.8728 42.6443 32.3292 42.9019C32.7486 43.1386 33.5126 43.1886 33.7866 43.6757C34.101 44.2347 34.9275 44.4302 35.3819 44.8456C35.6312 45.0736 35.7849 45.1741 36.1015 45.2661C36.2762 45.3168 36.4261 45.6138 36.5933 45.6987" stroke="white" stroke-width="3" stroke-linecap="round" stroke-linejoin="round"/>
<path d="M39.508 48.9887C40.3716 48.6336 41.5388 48.0016 42.4766 48.0016C43.2228 48.0016 43.9596 48.0901 44.6896 48.1113C45.4393 48.1331 46.3754 48.2665 47.1185 48.4343C47.3471 48.4859 47.2419 48.5638 47.0466 48.5439C46.482 48.4866 46.1232 48.0345 45.6852 47.7213C45.3262 47.4647 46.6493 47.7907 46.8486 47.892" stroke="white" stroke-width="3" stroke-linecap="round" stroke-linejoin="round"/>
<path d="M45.0135 42.9541C45.0135 43.9931 44.7459 44.7424 44.4497 45.7204C44.3265 46.1274 44.2578 46.5286 44.2578 46.9573C44.2578 47.2769 44.0419 47.5892 44.0419 47.8896" stroke="white" stroke-width="3" stroke-linecap="round" stroke-linejoin="round"/>
<path d="M41.5591 46.1353C42.2677 46.1353 42.7971 46.1695 43.3942 46.574" stroke="white" stroke-width="3" stroke-linecap="round" stroke-linejoin="round"/>
<path d="M38.6444 47.1235C38.8387 48.023 39.1272 48.8957 40.0478 49.2074" stroke="white" stroke-width="3" stroke-linecap="round" stroke-linejoin="round"/>
<path d="M42.6386 46.5747C42.9374 46.8047 43.2984 47.2938 43.6102 47.4521" stroke="white" stroke-width="3" stroke-linecap="round" stroke-linejoin="round"/>
<path d="M41.9909 52.606C41.7993 52.1367 41.5683 51.658 41.2592 51.2655C41.0969 51.0594 41.1089 50.6203 40.9653 50.3577C40.6397 49.7621 40.6955 48.9979 40.6955 48.3286" stroke="white" stroke-width="3" stroke-linecap="round" stroke-linejoin="round"/>
<path d="M46.4169 53.7031C46.8355 54.288 47.3774 54.5117 47.7962 55.0436C47.9521 55.2416 47.9669 55.6166 48.0901 55.8418C48.2033 56.0488 48.3664 56.2387 48.4679 56.4451" stroke="white" stroke-width="3" stroke-linecap="round" stroke-linejoin="round"/>
<path d="M51.1667 61.1616C51.1667 61.9313 51.1218 62.7058 51.8624 63.1358C52.1883 63.325 52.4184 64.0132 52.786 64.0132" stroke="white" stroke-width="3" stroke-linecap="round" stroke-linejoin="round"/>
<path d="M51.4905 62.9153C51.7981 62.7933 52.2042 62.7812 52.3541 62.4766" stroke="white" stroke-width="3" stroke-linecap="round" stroke-linejoin="round"/>
<path d="M52.3541 62.4767C52.2039 61.7811 51.7662 61.3917 51.4905 60.8315" stroke="white" stroke-width="3" stroke-linecap="round" stroke-linejoin="round"/>
<path d="M52.2462 62.041C52.733 62.4007 53.0007 62.6426 53.3257 63.1378" stroke="white" stroke-width="3" stroke-linecap="round" stroke-linejoin="round"/>
<path d="M50.5431 50.1546C50.1674 49.3912 49.888 48.5781 49.6866 47.7595C49.5663 47.2706 49.4741 46.7888 49.2742 46.3272C49.1655 46.0764 49.0515 45.8328 48.9014 45.6041C48.7954 45.4425 48.6343 45.3133 48.5366 45.1508C48.3624 44.8612 48.4375 44.4655 48.4375 44.1356C48.4375 43.5268 48.4627 42.9093 48.5445 42.3065C48.6268 41.7004 48.9728 41.1269 48.9728 40.5097C48.9728 40.2834 49.0085 40.6853 49.0085 40.7635" stroke="white" stroke-width="3" stroke-linecap="round" stroke-linejoin="round"/>
<path d="M49.0085 40.7634C49.0085 40.523 49.0085 40.2826 49.0085 40.0423C49.0085 39.9221 48.9789 39.9231 48.8657 39.9295C48.7895 39.9338 48.7441 40.0408 48.6694 39.9818C48.5827 39.9133 48.5333 39.8456 48.4553 39.7663C48.2914 39.5997 48.0817 39.0648 48.4731 39.023C48.6155 39.0078 48.7763 38.9019 48.9173 38.8618C49.0687 38.8187 49.2449 38.8417 49.401 38.8417C49.625 38.8417 49.8369 38.8779 50.0632 38.8779C50.6424 38.8779 51.1828 38.7329 51.7564 38.7329" stroke="white" stroke-width="3" stroke-linecap="round" stroke-linejoin="round"/>
<path d="M48.723 39.8931C49.5269 39.8931 50.3965 39.9629 51.1656 39.7561C51.4489 39.6799 51.7226 39.5174 51.9983 39.4136C52.0902 39.3791 51.9329 38.9826 51.8992 38.9141" stroke="white" stroke-width="3" stroke-linecap="round" stroke-linejoin="round"/>
<path d="M48.9727 38.7347C48.9727 37.8858 48.9501 37.0479 49.1353 36.2147C49.1821 36.0042 49.2128 35.7954 49.2245 35.5802C49.243 35.2432 49.3812 34.8944 49.4525 34.5649C49.5599 34.0692 49.5437 33.5825 49.5437 33.0783C49.5437 32.8273 49.5406 32.576 49.5437 32.325C49.5491 31.898 49.7456 31.5378 49.972 31.1929" stroke="white" stroke-width="3" stroke-linecap="round" stroke-linejoin="round"/>
<path d="M49.5795 31.9532C49.5842 31.7136 49.6441 31.5109 49.7024 31.2824C49.7543 31.0789 49.7576 30.8531 49.8293 30.6559C49.9867 30.2231 50.0851 29.7586 50.2734 29.3385C50.6268 28.55 51.0443 27.758 51.229 26.9132C51.2611 26.7668 51.3009 26.6209 51.346 26.4781C51.3931 26.3294 51.4927 26.2114 51.5344 26.0591C51.5875 25.8648 51.7779 25.5623 51.9349 25.4347C52.1656 25.2471 52.3484 24.996 52.6129 24.8545C52.7817 24.7643 52.9642 24.6997 53.1304 24.6088C53.3133 24.5087 53.5327 24.3688 53.7371 24.3368C53.9445 24.3044 54.1538 24.2945 54.3616 24.2643C54.9002 24.1861 55.4775 24.2301 56.0251 24.2301C56.612 24.2301 57.1563 24.2826 57.6608 24.6088C57.8152 24.7086 57.9767 24.7425 58.1267 24.8485C58.2661 24.947 58.4159 25.052 58.5371 25.1728C58.6453 25.2806 58.9196 25.4321 58.9654 25.5716" stroke="white" stroke-width="3" stroke-linecap="round" stroke-linejoin="round"/>
<path d="M59.001 25.6069C59.2595 25.6069 59.452 25.634 59.6989 25.7157C60.0327 25.8261 60.3877 25.8644 60.722 25.9776C61.0919 26.1029 61.5209 26.2192 61.8481 26.4409C62.059 26.5837 62.2917 26.6757 62.4984 26.8317C62.8646 27.108 63.2484 27.3651 63.6206 27.6374C64.2657 28.1093 64.9104 28.7486 65.7262 28.9065C65.8632 28.933 66.004 29.0077 66.1386 29.0515C66.302 29.1048 66.4771 29.1168 66.6382 29.1804C66.9149 29.2897 67.2069 29.3884 67.4591 29.5591" stroke="white" stroke-width="3" stroke-linecap="round" stroke-linejoin="round"/>
<path d="M67.4948 29.5625C68.2698 29.8563 68.9971 30.2658 69.7431 30.614C70.2652 30.8578 70.8843 30.9622 71.4363 31.1196C71.9149 31.2561 72.4196 31.2907 72.8916 31.456C73.1806 31.5573 73.4554 31.6664 73.76 31.7219C73.985 31.763 74.2039 31.8468 74.4341 31.8468C74.6257 31.8468 74.8174 31.8468 75.009 31.8468C75.1989 31.8468 75.9205 31.9486 76.0242 31.738" stroke="white" stroke-width="3" stroke-linecap="round" stroke-linejoin="round"/>
<path d="M75.4174 31.8444C75.7749 31.9062 76.1441 31.8806 76.5059 31.8806C76.6006 31.8806 76.6545 31.6631 76.8251 31.6631C77.0043 31.6631 76.9825 31.9453 77.0591 32.0619" stroke="white" stroke-width="3" stroke-linecap="round" stroke-linejoin="round"/>
<path d="M77.0591 32.0634C77.5822 32.0634 78.2617 32.0569 78.7364 31.8015C78.907 31.7098 79.0591 31.5875 79.2281 31.4833C79.4451 31.3494 79.7575 31.0993 80.0212 31.0844C80.1747 31.0758 80.3313 31.0844 80.4851 31.0844" stroke="white" stroke-width="3" stroke-linecap="round" stroke-linejoin="round"/>
<path d="M80.4851 31.0821C80.7803 30.9741 80.9616 30.7333 81.2346 30.5946C81.4356 30.4925 81.6556 30.4331 81.8492 30.3207C82.0995 30.1753 82.4192 30.0656 82.6997 29.9944C82.8843 29.9475 83.0539 29.8338 83.241 29.7768C83.4747 29.7056 83.6706 29.601 83.8913 29.5049C84.1654 29.3855 84.5237 29.2531 84.7677 29.0879" stroke="white" stroke-width="3" stroke-linecap="round" stroke-linejoin="round"/>
<path d="M84.7677 29.0879C84.9395 29.0879 85.1113 29.0879 85.2832 29.0879C85.4109 29.0879 85.4009 29.1136 85.4656 29.2168C85.5729 29.3881 85.5423 29.6783 85.3922 29.797C85.1553 29.9842 84.8688 30.1501 84.617 30.3207C84.2577 30.564 83.9347 30.8437 83.5265 31.0096C83.1532 31.1613 82.7352 31.2464 82.3766 31.4286C82.0794 31.5795 81.7221 31.5965 81.413 31.7187C81.0323 31.8691 80.8056 32.3519 80.5208 32.6413C80.1505 33.0175 79.6809 33.2619 79.3074 33.6203C79.2392 33.6857 79.148 33.7475 79.3094 33.727C79.5579 33.6955 79.8006 33.6928 80.0529 33.6928C80.3925 33.6928 80.7212 33.6834 81.0581 33.6384C82.1044 33.4985 83.1857 33.5183 84.1887 33.1408C84.2966 33.1002 84.4086 32.9853 84.5179 32.9313C84.7583 32.8125 85.0267 32.7511 85.2673 32.6332C85.5466 32.4964 85.8298 32.4312 86.1159 32.3149C86.2383 32.2652 86.3719 32.2436 86.4807 32.1699" stroke="white" stroke-width="3" stroke-linecap="round" stroke-linejoin="round"/>
<path d="M86.4093 32.1704C87.1838 32.1704 87.8473 31.8969 88.499 31.4996C88.895 31.2582 89.4798 31.1531 89.9226 31.1008C90.3257 31.0531 90.8754 31.0245 91.2807 31.1008C91.5688 31.155 92.0555 31.0902 92.28 31.3183C92.36 31.3997 92.4598 31.4373 92.512 31.55C92.5719 31.6795 92.5476 31.8501 92.5476 31.9891C92.5476 32.3299 92.9278 32.6688 93.075 32.9681C93.168 33.1571 93.3568 33.4078 93.3685 33.6208C93.3829 33.8857 93.418 34.2357 93.3605 34.491C93.1867 35.2635 92.391 35.6091 91.7605 35.9615C91.3853 36.1711 91.1088 36.4802 90.7613 36.7229C90.6012 36.8347 90.4771 36.9569 90.2993 37.0472C90.0675 37.165 89.8299 37.2169 89.5875 37.3031C89.2509 37.4228 88.911 37.3959 88.5784 37.4924C88.3896 37.5472 88.1716 37.4652 87.9796 37.5085C87.8486 37.5381 87.7207 37.5654 87.587 37.573C87.2462 37.5922 86.9019 37.6818 86.5521 37.6818C85.9454 37.6818 85.3387 37.6818 84.732 37.6818" stroke="white" stroke-width="3" stroke-linecap="round" stroke-linejoin="round"/>
<path d="M84.839 37.6474C84.3153 37.6474 83.8186 37.6112 83.3045 37.6112C82.6157 37.6112 81.8226 37.7299 81.1632 37.5024C80.8028 37.3781 80.4306 37.2733 80.0569 37.2043C79.8407 37.1643 79.6256 37.0482 79.4065 37.031C79.1125 37.008 78.809 36.8135 78.5223 36.8135" stroke="white" stroke-width="3" stroke-linecap="round" stroke-linejoin="round"/>
<path d="M79.3074 34.9263C81.5978 34.9263 83.8722 34.7088 86.1595 34.7088C86.6751 34.7088 87.2716 34.5567 87.7635 34.4006C88.0708 34.303 88.4594 34.2011 88.7825 34.2011C88.9945 34.2011 89.2168 34.0597 89.4229 34.0198C89.5945 33.9866 89.7467 33.987 89.9226 33.9836C90.287 33.9766 90.6404 33.825 90.9615 33.7318C90.9991 33.7209 91.2044 33.6119 91.1003 33.7479C90.9902 33.8917 90.8607 34.0161 90.7474 34.1568C90.4377 34.5414 90.0761 35.0163 89.5578 35.0351C89.151 35.0499 88.8541 35.2888 88.4792 35.3977C88.0269 35.529 87.5363 35.7079 87.0596 35.724C86.6819 35.7368 86.2998 35.6939 85.9295 35.7623C85.4888 35.8437 85.0783 35.9053 84.6209 35.9053C83.6353 35.9053 82.598 35.9686 81.6628 35.5991C81.4251 35.5052 81.1568 35.486 80.9134 35.3977C80.6719 35.3101 80.3755 35.2613 80.1203 35.2526C79.9239 35.246 79.2717 35.3736 79.2717 35.1076" stroke="white" stroke-width="3" stroke-linecap="round" stroke-linejoin="round"/>
<path d="M51.7938 38.5961C52.4042 38.503 53.0259 38.2872 53.5927 38.0432C54.1256 37.8138 54.7041 37.7281 55.2341 37.4858C55.9373 37.1643 56.7183 36.8981 57.4826 36.7844C57.8987 36.7226 58.3112 36.5509 58.7238 36.4577C59.0768 36.3781 59.428 36.3105 59.7762 36.211C60.4437 36.0203 61.1367 35.7998 61.8313 35.7998" stroke="white" stroke-width="3" stroke-linecap="round" stroke-linejoin="round"/>
<path d="M61.5885 35.7993C63.1686 35.7993 64.6835 35.1821 66.1306 34.6067C66.5836 34.4266 67.0327 34.166 67.4977 34.031C67.8749 33.9215 68.2867 33.8251 68.6624 33.6929C69.3209 33.4614 69.9263 33.3731 70.6232 33.3731C70.8929 33.3731 71.3405 33.296 71.5653 33.4736C71.6763 33.5614 71.8304 33.6035 71.9498 33.6815C72.069 33.7594 72.1803 33.8624 72.3141 33.9077" stroke="white" stroke-width="3" stroke-linecap="round" stroke-linejoin="round"/>
<path d="M50.9844 39.7905C51.4855 39.8853 51.9841 39.794 52.4819 39.9345C52.6713 39.9879 52.8372 40.0373 53.0373 40.0373C53.759 40.0373 54.481 40.0434 55.2027 40.0373C55.8011 40.0322 56.3253 39.8325 56.8531 39.5644C57.0549 39.4618 57.3879 39.3706 57.5411 39.2148" stroke="white" stroke-width="3" stroke-linecap="round" stroke-linejoin="round"/>
<path d="M57.5815 39.2131C58.1919 39.2131 58.772 38.8947 59.3804 38.8452C59.7129 38.8182 60.0185 38.7141 60.3248 38.5711C61.5157 38.0152 62.8261 37.4578 64.1361 37.2803C65.1013 37.1496 65.982 36.7827 66.922 36.5493C67.1699 36.4877 67.4154 36.4126 67.6595 36.3346C67.887 36.2618 68.1282 36.2728 68.3566 36.2112C68.8372 36.0815 69.4413 36.149 69.8856 35.9233" stroke="white" stroke-width="3" stroke-linecap="round" stroke-linejoin="round"/>
<path d="M69.9261 35.9233C70.3227 35.7483 70.7436 35.5068 71.1583 35.3865C71.2816 35.3507 71.4395 35.1988 71.4843 35.0803C71.5595 34.8818 71.5344 34.6896 71.545 34.4841C71.5536 34.319 71.9625 34.0317 72.1117 34.0317" stroke="white" stroke-width="3" stroke-linecap="round" stroke-linejoin="round"/>
<path d="M57.2173 39.667C57.7249 39.667 58.2062 39.711 58.7148 39.711" stroke="white" stroke-width="3" stroke-linecap="round" stroke-linejoin="round"/>
<path d="M58.7148 39.709C58.7515 39.5063 58.8421 39.2331 59.0386 39.1333" stroke="white" stroke-width="3" stroke-linecap="round" stroke-linejoin="round"/>
<path d="M58.2696 39.9536C58.1575 40.2764 57.9846 40.5731 57.8042 40.8583C57.7177 40.995 57.5498 41.1829 57.5411 41.3517C57.528 41.6048 57.4895 41.946 57.6018 42.1742C57.6895 42.3523 57.7722 42.5291 57.8559 42.7087C58.0599 43.1463 58.2886 43.4907 58.5934 43.8693C58.7844 44.1064 59.1182 44.3071 59.3827 44.4564C59.6134 44.5867 59.9168 44.5592 60.1719 44.5592" stroke="white" stroke-width="3" stroke-linecap="round" stroke-linejoin="round"/>
<path d="M60.2529 44.5592C60.7351 44.5592 61.0679 44.4514 61.5076 44.2919C61.7491 44.2043 61.9507 43.964 62.1979 43.9013C62.6855 43.7774 63.2741 43.6463 63.7021 43.3667C63.8671 43.259 63.9957 43.1929 64.1384 43.0583C64.3185 42.8883 64.4489 42.6765 64.5836 42.4712C64.7296 42.2486 64.9904 42.1309 65.1704 41.948C65.2934 41.8231 65.3912 41.6826 65.5145 41.5573C65.7072 41.3615 65.9527 41.2355 66.1418 41.0433C66.2684 40.9147 66.3248 40.7411 66.4656 40.6298C66.6073 40.5178 66.7255 40.4487 66.8906 40.3648C67.1303 40.2431 67.4142 40.0367 67.6596 39.9536" stroke="white" stroke-width="3" stroke-linecap="round" stroke-linejoin="round"/>
<path d="M67.6595 39.9559C68.4728 39.7844 69.2946 39.2405 69.8766 38.6491C70.1518 38.3696 70.4821 38.1535 70.8075 37.9409C70.9815 37.8273 71.1645 37.7381 71.3382 37.6302C71.478 37.5434 71.5852 37.4202 71.7474 37.3652" stroke="white" stroke-width="3" stroke-linecap="round" stroke-linejoin="round"/>
<path d="M59.1196 42.502C59.3313 42.1332 59.5637 41.8181 59.8796 41.5333C60.0118 41.4141 60.1973 41.2223 60.3653 41.1541C60.6525 41.0373 60.9527 40.8651 61.2265 40.7086C62.1347 40.1895 63.0828 39.7418 64.0979 39.491C64.6503 39.3544 65.1772 39.1072 65.7168 38.9244C66.103 38.7936 66.5804 38.5954 66.9917 38.5954C67.1981 38.5954 67.4754 38.5148 67.6708 38.4469C68.1365 38.285 68.5852 38.0853 69.0334 37.8804C69.2953 37.7606 69.5924 37.6958 69.8451 37.5674" stroke="white" stroke-width="3" stroke-linecap="round" stroke-linejoin="round"/>
<path d="M67.3763 38.3525C67.0505 38.3967 66.7843 38.3953 66.5038 38.5581C66.2703 38.6937 66.0407 38.9508 65.8405 39.1338C65.6166 39.3386 65.478 39.6198 65.2514 39.8146C65.1086 39.9374 65.0043 40.1539 64.8489 40.2441C64.7376 40.3087 64.6721 40.5189 64.5836 40.6142C64.4831 40.7223 64.4071 40.8418 64.3092 40.9523C64.1786 41.0999 63.9439 41.2561 63.855 41.4366" stroke="white" stroke-width="3" stroke-linecap="round" stroke-linejoin="round"/>
<path d="M59.322 42.7914C59.6515 42.7914 60.0574 42.8475 60.3743 42.7503C60.9427 42.5759 61.5366 42.4698 62.0967 42.266C62.3982 42.1562 62.6782 42.0615 62.9646 41.9187C63.3281 41.7375 63.8057 41.311 64.2193 41.311" stroke="white" stroke-width="3" stroke-linecap="round" stroke-linejoin="round"/>
<path d="M59.4029 43.7374C60.3477 43.7374 61.2895 43.8813 62.2181 43.5729C62.5051 43.4776 62.6956 43.1393 62.8836 42.9058C63.096 42.6422 63.338 42.3962 63.5717 42.1519C63.7175 41.9996 63.8926 41.9303 64.0574 41.8047" stroke="white" stroke-width="3" stroke-linecap="round" stroke-linejoin="round"/>
<path d="M71.5377 34.6924C71.7394 35.0425 72.0088 35.2826 72.2009 35.6241C72.3712 35.927 72.4742 36.2474 72.643 36.5474C72.8068 36.8386 72.9377 37.325 72.9377 37.6496C72.9377 37.9364 73.0851 38.1375 73.0851 38.4357" stroke="white" stroke-width="3" stroke-linecap="round" stroke-linejoin="round"/>
<path d="M72.3483 38.8081C71.6949 39.5984 70.9978 40.38 70.1376 40.9418C69.8955 41.0999 69.6564 41.2635 69.4171 41.4285C69.0644 41.6716 68.6685 41.7791 68.2995 41.99C67.7065 42.3289 67.7059 42.0127 67.7059 41.4285C67.7059 41.0496 67.6322 40.7498 67.6322 40.3803" stroke="white" stroke-width="3" stroke-linecap="round" stroke-linejoin="round"/>
<path d="M69.7692 37.5356C70.3832 37.5356 70.9973 37.5356 71.6114 37.5356" stroke="white" stroke-width="3" stroke-linecap="round" stroke-linejoin="round"/>
<path d="M73.3062 33.417C74.0165 33.8638 74.5009 34.6885 74.87 35.4384C75.0015 35.7056 75.1579 36.0658 75.3367 36.2994C75.4571 36.4568 75.5905 37.1143 75.5905 36.7112" stroke="white" stroke-width="3" stroke-linecap="round" stroke-linejoin="round"/>
<path d="M75.2221 36.0386C76.528 35.6733 77.3378 34.742 78.4439 34.0463C78.8744 33.7756 79.299 33.5518 79.7171 33.2686" stroke="white" stroke-width="3" stroke-linecap="round" stroke-linejoin="round"/>
<path d="M78.9065 36.9383C78.2044 36.8124 77.5881 36.4142 76.8801 36.4142C76.4769 36.4142 76.0432 36.4677 75.6642 36.3394" stroke="white" stroke-width="3" stroke-linecap="round" stroke-linejoin="round"/>
<path d="M73.3798 33.4161C73.654 33.4161 74.0359 33.4823 74.3009 33.3787C74.3814 33.3473 74.5555 33.271 74.6325 33.2664C74.8779 33.2518 75.0294 33.0895 75.2589 33.0377C75.3677 33.0131 75.443 32.8748 75.5741 32.8338C75.7255 32.7865 75.8832 32.7536 76.0367 32.7049C76.1209 32.6782 76.8431 32.5551 76.6221 32.4429" stroke="white" stroke-width="3" stroke-linecap="round" stroke-linejoin="round"/>
<path d="M51.4208 27.8018C51.4208 28.7145 51.5921 29.6631 51.6418 30.5719C51.6643 30.9832 51.7892 31.4052 51.7892 31.8072C51.7892 32.2511 51.7928 32.9048 51.9734 33.3087C52.155 33.7144 52.1737 34.2393 52.3214 34.6729C52.4463 35.0396 52.6239 35.5393 52.8618 35.85C53.085 36.1416 53.1278 36.5736 53.4104 36.8607C53.599 37.0524 53.9262 37.4049 53.9262 37.6843" stroke="white" stroke-width="3" stroke-linecap="round" stroke-linejoin="round"/>
<path d="M51.347 27.9535C51.3748 26.7664 51.9933 26.0925 52.8944 25.5203C53.225 25.3104 53.6566 25.2583 54.0366 25.2583C54.6541 25.2583 55.2499 25.0337 55.8788 25.0337C56.3288 25.0337 56.6466 25.3631 57.021 25.5744C57.4494 25.8162 57.938 25.8596 58.3883 26.0818C58.6807 26.2261 58.946 26.4015 59.2644 26.4603C59.3906 26.4836 59.6759 26.5088 59.7638 26.5893C59.9918 26.7977 60.663 26.894 60.7791 27.13" stroke="white" stroke-width="3" stroke-linecap="round" stroke-linejoin="round"/>
<path d="M60.7791 27.1299C61.2969 27.3428 61.6429 27.6502 62.0687 27.9867C62.2942 28.1649 62.6544 28.2115 62.9161 28.3444C63.4831 28.6324 64.1542 28.8777 64.6478 29.2678C64.8965 29.4643 65.2145 29.6591 65.5115 29.7669C65.9154 29.9134 66.4737 30.2743 66.8952 30.2743C67.1266 30.2743 67.3243 30.5058 67.5584 30.5738C67.9665 30.6922 68.4197 30.9406 68.8111 31.1394C69.3394 31.4078 70.0436 31.347 70.6165 31.4763C70.8294 31.5244 71.1233 31.5513 71.3165 31.6386C71.5703 31.7531 71.889 31.6808 72.1271 31.7883C72.4508 31.9345 72.8647 31.8295 73.1956 31.9588C73.3488 32.0187 73.5303 31.9477 73.6746 32.0129C73.8409 32.088 73.9336 32.146 74.1208 32.146C74.9648 32.146 75.9265 32.4425 76.6958 31.9214" stroke="white" stroke-width="3" stroke-linecap="round" stroke-linejoin="round"/>
<path d="M53.3367 30.1982C53.3244 30.8079 53.1156 31.3881 53.1156 31.9909C53.1156 32.4554 53.1156 32.9198 53.1156 33.3843C53.1156 33.7584 53.2512 34.3457 53.394 34.6903C53.5184 34.9906 53.484 35.9894 53.484 35.6636" stroke="white" stroke-width="3" stroke-linecap="round" stroke-linejoin="round"/>
<path d="M53.484 35.6662C54.9324 34.7966 56.5186 34.1688 58.2042 34.1688C58.9951 34.1688 59.9521 34.0265 60.6686 34.4309C61.0889 34.6681 61.6635 34.6631 62.0482 34.9757C62.205 35.1032 62.6088 34.9764 62.7687 35.1795C62.9172 35.3681 63.195 35.5165 63.4319 35.5165" stroke="white" stroke-width="3" stroke-linecap="round" stroke-linejoin="round"/>
<path d="M53.1156 30.5731C53.7135 29.8184 54.2601 29.5998 55.1625 29.5998C55.7552 29.5998 56.9036 29.364 57.3731 29.841C57.8404 30.3158 58.475 30.6024 59.1007 30.8143C59.4138 30.9203 59.6487 31.1191 59.9686 31.2094C60.3563 31.3189 60.7264 31.6318 61.1108 31.6919C61.6637 31.7784 62.1064 32.2872 62.5846 32.5571C63.0461 32.8176 63.4278 33.1171 63.9478 33.3057C64.4141 33.4749 64.8753 33.6587 65.311 33.9047C65.522 34.0237 65.7339 34.0166 65.9374 34.1085C66.0936 34.179 66.3633 34.3164 66.5269 34.3164" stroke="white" stroke-width="3" stroke-linecap="round" stroke-linejoin="round"/>
<path d="M53.369 54.0142C54.7283 54.4837 55.6365 55.4226 56.8575 56.1118C57.7649 56.624 58.9831 57.1111 59.7447 57.8075C60.4293 58.4335 61.2673 59.2438 62.1257 59.7284C63.052 60.2512 63.6782 61.0137 64.4434 61.7135C65.4008 62.5889 66.3581 63.4659 67.2436 64.3656C68.0659 65.2011 68.2787 66.5502 69.063 67.4357C69.7864 68.2523 70.1357 69.272 70.8033 70.1441C71.0958 70.5262 71.4751 71.1306 71.6022 71.5827C71.6227 71.6554 72.0342 71.8601 72.1322 71.9845C72.2765 72.1677 72.2328 72.4214 72.4486 72.531" stroke="white" stroke-width="3" stroke-linecap="round" stroke-linejoin="round"/>
<path d="M71.4519 71.8086C72.1878 72.9414 72.8167 74.1726 73.6984 75.168C74.3993 75.9592 75.389 76.9546 75.8975 77.8845C76.3184 78.6543 77.113 79.0263 77.8592 79.3632C78.7212 79.7525 79.4901 80.3174 80.4222 80.6331" stroke="white" stroke-width="3" stroke-linecap="round" stroke-linejoin="round"/>
<path d="M80.6206 80.6138C81.0869 80.8191 81.5194 81.0855 81.9664 81.3126C82.2194 81.4412 82.5159 81.4945 82.7738 81.6256C83.6691 82.0804 84.4601 82.7014 85.3995 83.0749C86.3364 83.4473 87.248 83.9323 88.2077 84.2477C88.6572 84.3955 89.1276 84.4943 89.5684 84.661C90.1816 84.8928 90.8509 84.9717 91.4674 85.1805C92.2249 85.437 93.0731 85.3719 93.8629 85.3719C94.7634 85.3719 95.6366 85.3443 96.5275 85.2656C97.2856 85.1986 98.0851 85.0882 98.8153 84.8919C99.6696 84.6621 100.621 84.345 101.399 83.95" stroke="white" stroke-width="3" stroke-linecap="round" stroke-linejoin="round"/>
<path d="M101.13 83.9492C101.847 83.9492 102.298 83.6553 102.903 83.3172C103.491 82.9887 104.081 82.4863 104.602 82.0593C105.008 81.7265 105.311 81.351 105.652 80.9533C105.887 80.6789 106.213 80.4518 106.375 80.1208C106.643 79.5775 106.889 79.0473 107.024 78.4497C107.198 77.6871 107.505 76.9539 107.632 76.183C107.73 75.5815 107.751 74.9879 107.751 74.3782C107.751 73.8807 107.754 73.402 107.655 72.9136C107.546 72.3697 107.428 71.7624 107.428 71.2061" stroke="white" stroke-width="3" stroke-linecap="round" stroke-linejoin="round"/>
<path d="M107.374 71.6437C107.418 71.1609 107.155 70.7008 106.986 70.2582C106.823 69.8319 106.643 69.4058 106.447 68.9942C106.256 68.5916 106.108 68.0529 105.801 67.718C105.537 67.43 105.463 67.0475 105.275 66.7093C104.963 66.1485 104.698 65.549 104.414 64.9713C104.078 64.2886 103.504 63.5587 102.906 63.0814C102.757 62.9622 102.713 62.7528 102.559 62.6196C102.404 62.4842 102.293 62.284 102.156 62.1273C102.085 62.0463 101.772 61.5345 101.722 61.6351" stroke="white" stroke-width="3" stroke-linecap="round" stroke-linejoin="round"/>
<path d="M101.722 61.6365C101.102 61.3096 100.527 60.8599 100.065 60.3239C99.8615 60.0872 99.707 59.8079 99.4881 59.5855C98.8932 58.9811 98.6165 57.9629 97.8882 57.4921C96.9191 56.8655 96.1132 56.0305 95.1787 55.3469C94.5269 54.8701 93.7552 54.5751 93.1093 54.1012C92.9359 53.974 92.6217 53.8936 92.5052 53.7062C92.3997 53.5366 92.3064 53.328 92.1672 53.1866C91.8957 52.9107 91.5966 52.6226 91.3867 52.2964C91.3083 52.1746 90.9271 51.5985 91.2252 51.9014" stroke="white" stroke-width="3" stroke-linecap="round" stroke-linejoin="round"/>
<path d="M78.6827 37.0786C79.0821 37.1063 79.4609 37.3894 79.8132 37.5708C80.0181 37.6764 80.2898 37.7906 80.4591 37.9537C80.6111 38.1 80.7054 38.176 80.8898 38.2697C81.5432 38.6016 81.8323 39.3458 82.1847 39.9499C82.4685 40.4365 82.6797 40.9952 82.9084 41.5117C83.0535 41.8393 83.1117 42.1803 83.3391 42.4627C83.9497 43.2209 84.5931 43.8928 85.0347 44.7901" stroke="white" stroke-width="3" stroke-linecap="round" stroke-linejoin="round"/>
<path d="M85.0348 44.791C85.5738 45.3387 86.0237 45.95 86.4852 46.5655C86.6896 46.8379 86.8655 47.1067 87.1342 47.319C87.5044 47.6116 87.7352 48.0518 88.0792 48.3733C88.5809 48.8423 89.0665 49.3088 89.3921 49.929C89.5864 50.2993 89.8091 50.6126 90.1068 50.9043C90.255 51.0495 90.5517 51.2499 90.6331 51.4361C90.7074 51.6057 91.2191 52.065 91.3868 52.065" stroke="white" stroke-width="3" stroke-linecap="round" stroke-linejoin="round"/>
<path d="M49.263 40.6445C49.263 41.2258 49.1804 41.816 49.0562 42.3838C48.9792 42.7362 48.9538 43.4947 49.1141 43.8206C49.5731 44.7533 50.5993 45.1704 51.347 45.8035C51.8005 46.1874 52.2357 46.614 52.6495 47.0345C53.5032 47.9018 54.1642 48.8153 55.1801 49.5299C55.5221 49.7705 57.8286 51.2944 57.8968 51.1558" stroke="white" stroke-width="3" stroke-linecap="round" stroke-linejoin="round"/>
<path d="M57.8968 51.1562C59.1529 51.7186 60.2475 52.6361 61.4694 53.2736C62.4455 53.7829 63.2925 54.6235 64.2233 55.223C64.8554 55.63 65.4611 56.1044 66.0468 56.5673C66.3683 56.8213 66.5952 57.2344 66.7911 57.5882C67.1538 58.2432 67.5985 58.9133 68.0895 59.4745C68.3976 59.8266 68.7242 60.2921 68.9124 60.7222C69.1658 61.3016 69.4058 61.9485 69.7311 62.4993" stroke="white" stroke-width="3" stroke-linecap="round" stroke-linejoin="round"/>
<path d="M69.7311 62.5752C70.404 63.2588 71.0069 63.986 71.596 64.743C72.2419 65.5729 72.7207 66.5327 73.3947 67.3393C73.7094 67.7158 74.0807 68.053 74.4243 68.4022C74.9696 68.9561 75.3496 69.6214 75.9419 70.1372C76.4381 70.5694 76.9062 70.7993 77.4801 71.0909C77.8977 71.303 78.3234 71.5035 78.7371 71.7253C79.0042 71.8685 79.2362 72.1301 79.4814 72.2546" stroke="white" stroke-width="3" stroke-linecap="round" stroke-linejoin="round"/>
<path d="M78.6627 72.0273C79.7725 72.6985 80.7883 73.4846 81.7887 74.3128C82.5121 74.9116 83.5436 75.4416 84.4682 75.6403C85.5498 75.8728 86.4474 76.2621 87.5942 76.2621" stroke="white" stroke-width="3" stroke-linecap="round" stroke-linejoin="round"/>
<path d="M83.9976 74.7219C85.1566 71.8818 87.2403 69.2211 87.2403 66.093C87.2403 65.2203 87.3704 64.2171 87.1202 63.3911C86.904 62.6771 86.4877 61.8706 87.2403 61.5084C88.7761 60.7694 93.2383 58.261 91.7184 59.0331" stroke="white" stroke-width="3" stroke-linecap="round" stroke-linejoin="round"/>
<path d="M91.7184 59.0342C92.9915 59.6809 94.1362 60.4572 95.4245 61.0389C96.2737 61.4223 97.5245 61.697 98.4442 61.8669C98.902 61.9514 99.2907 62.3288 99.7481 62.3288C100.002 62.3288 100.736 62.4086 100.983 62.5206C101.617 62.8066 102.372 63.2262 102.536 63.9761C102.725 64.8411 103.592 65.507 103.772 66.3294C103.873 66.7948 104.351 67.1461 104.381 67.663C104.39 67.8259 104.621 68.5954 104.724 68.7263C105.357 69.5303 106.266 73.2081 105.307 73.9385" stroke="white" stroke-width="3" stroke-linecap="round" stroke-linejoin="round"/>
<path d="M86.3138 75.8203C87.0184 75.96 88.491 76.1203 89.059 76.6396C89.7318 77.2548 91.1888 77.0754 92.0272 77.0754C92.8546 77.0754 93.5501 77.5013 94.3435 77.5461C95.4581 77.609 96.4599 77.321 97.509 77.0841C98.994 76.7488 100.708 76.761 101.987 75.7506C102.497 75.3476 103.19 75.1248 103.686 74.7221C104.154 74.3417 104.506 73.7808 105.153 73.7808" stroke="white" stroke-width="3" stroke-linecap="round" stroke-linejoin="round"/>
<path d="M83.2602 62.6899C83.0881 61.7935 82.7429 61.2336 83.5461 60.4628C84.0673 59.9627 84.655 59.7469 85.2616 59.473C86.018 59.1315 86.7775 58.6989 87.4748 58.2357C88.0554 57.85 88.7372 57.7372 89.312 57.4127C89.9655 57.0438 90.6621 56.9088 91.3134 56.5412C91.7439 56.2982 92.5393 55.9305 92.8859 56.5466C93.0213 56.7873 93.4189 57.0323 93.2459 57.3643C93.1445 57.559 92.6732 57.586 92.5047 57.8C92.191 58.1983 91.6477 58.8166 91.1704 58.9135" stroke="white" stroke-width="3" stroke-linecap="round" stroke-linejoin="round"/>
<path d="M83.3555 62.9796C84.2015 62.9796 84.9644 63.06 85.7381 62.7106C85.9613 62.6098 86.0966 62.4102 86.3099 62.3018" stroke="white" stroke-width="3" stroke-linecap="round" stroke-linejoin="round"/>
<path d="M85.6428 59.0109C85.7401 58.5603 86.0573 57.4926 86.4528 57.1711C86.9244 56.7879 86.8859 55.8251 87.2629 55.3744C87.5289 55.0565 87.6935 54.3036 87.9777 54.0726C88.1653 53.9202 88.0844 53.6067 88.4066 53.5885C88.6339 53.5756 88.8186 53.3513 89.0208 53.2926C89.5771 53.1311 89.6324 53.2679 89.8573 53.7821C89.9472 53.9877 90.2015 54.8601 89.9791 55.0409C89.6619 55.2987 89.8523 55.8918 89.6243 56.1813C89.4088 56.4551 89.3251 56.9507 89.169 57.268" stroke="white" stroke-width="3" stroke-linecap="round" stroke-linejoin="round"/>
<path d="M86.5958 56.8797C85.8451 56.8797 84.8039 56.9697 84.1285 56.5408C83.9221 56.4097 83.7502 56.3956 83.4984 56.3956C83.0086 56.3956 82.5102 56.368 82.0212 56.3956C81.4618 56.4271 81.0413 56.7467 80.6393 57.0734C80.4456 57.2308 80.5917 58.3112 80.5917 58.5742C80.5917 59.0297 80.9773 59.4941 81.4494 59.4941C82.0303 59.4941 82.375 59.1291 82.9266 59.0046C83.3833 58.9015 83.8565 58.6226 84.3085 58.6226C84.8486 58.6226 85.3886 58.6226 85.9287 58.6226" stroke="white" stroke-width="3" stroke-linecap="round" stroke-linejoin="round"/>
<path d="M82.2119 56.2986C82.3643 55.4859 82.6249 54.2338 83.1702 53.5874C83.7339 52.9193 84.2507 52.106 84.5469 51.2635C84.7115 50.7951 84.9074 50.3462 85.0499 49.8541C85.1082 49.6524 85.3408 48.9721 85.4999 48.8428C85.7749 48.6192 85.7679 48.8976 86.1194 48.9396C86.27 48.9576 86.6719 49.1561 86.7388 49.2785C87.4658 50.608 86.8638 51.7418 86.1194 52.8343C85.6481 53.5259 85.2655 54.2036 84.9016 54.943C84.6347 55.4853 84.118 56.271 84.118 56.8796" stroke="white" stroke-width="3" stroke-linecap="round" stroke-linejoin="round"/>
<path d="M84.6898 55.3286C85.2717 55.343 85.8664 55.6191 86.4052 55.6191" stroke="white" stroke-width="3" stroke-linecap="round" stroke-linejoin="round"/>
<path d="M85.4522 53.5879C85.9772 53.5879 86.2051 53.5995 86.5747 53.8999C86.7843 54.0703 86.8416 54.4389 87.0724 54.5562" stroke="white" stroke-width="3" stroke-linecap="round" stroke-linejoin="round"/>
<path d="M86.1193 55.5223C86.4191 55.4643 86.7217 55.4583 86.9771 55.3286" stroke="white" stroke-width="3" stroke-linecap="round" stroke-linejoin="round"/>
<path d="M77.4467 54.8457C79.2899 54.8457 81.1445 54.9494 82.9743 54.9494" stroke="white" stroke-width="3" stroke-linecap="round" stroke-linejoin="round"/>
<path d="M77.1607 54.3618C77.1607 53.3768 76.9582 52.6959 78.0238 52.4253C78.6869 52.2568 79.2451 52.2316 79.9299 52.2316C80.5269 52.2316 81.4707 52.0583 82.0212 52.3069C82.1759 52.3767 82.6667 52.4253 82.8313 52.4253C83.1216 52.4253 83.3592 52.5221 83.6414 52.5221" stroke="white" stroke-width="3" stroke-linecap="round" stroke-linejoin="round"/>
<path d="M76.8748 50.4921C75.9179 50.4921 74.6718 50.6824 73.8728 50.051C72.9253 49.3023 74.3929 48.5785 74.9476 48.3834C75.8082 48.0807 76.5699 48.0714 77.4943 48.0714C77.9021 48.0714 78.3825 47.6309 78.6856 48.0929C78.9161 48.4441 79.0416 48.8636 79.2574 49.2118C79.4038 49.448 79.6387 49.611 79.6387 49.9111" stroke="white" stroke-width="3" stroke-linecap="round" stroke-linejoin="round"/>
<path d="M75.5406 50.1976C76.2656 50.1976 77.0076 50.2385 77.7326 50.1976C78.1722 50.1728 78.7684 49.9008 79.1621 50.1008" stroke="white" stroke-width="3" stroke-linecap="round" stroke-linejoin="round"/>
<path d="M79.1621 50.1016C79.404 50.4395 79.8503 50.8275 80.0198 51.2151C80.2132 51.6571 80.913 51.8555 81.0682 52.3286" stroke="white" stroke-width="3" stroke-linecap="round" stroke-linejoin="round"/>
<path d="M80.1152 46.8096C80.893 47.073 81.4114 47.4487 81.9736 48.0199C82.2727 48.3238 82.7076 48.5964 82.879 48.9882C83.0904 49.4714 83.4472 49.8506 83.8108 50.2201C83.9562 50.3678 84.0716 50.5304 84.2132 50.6827C84.2931 50.7686 84.6394 51.3322 84.4038 50.9732" stroke="white" stroke-width="3" stroke-linecap="round" stroke-linejoin="round"/>
<path d="M82.1166 47.7803C82.2729 47.0391 82.6794 46.219 83.0696 45.5748C83.2694 45.245 83.5765 44.9105 83.7367 44.585" stroke="white" stroke-width="3" stroke-linecap="round" stroke-linejoin="round"/>
<path d="M85.1663 45.4536C85.1663 46.4448 85.1515 47.4724 84.7639 48.3585C84.5988 48.7359 84.5467 49.8352 84.2133 50.0046" stroke="white" stroke-width="3" stroke-linecap="round" stroke-linejoin="round"/>
<path d="M71.7285 40.1304C71.9832 40.5548 72.3051 40.9687 72.5121 41.3891C72.6429 41.6549 72.94 41.8176 73.0627 42.0669" stroke="white" stroke-width="3" stroke-linecap="round" stroke-linejoin="round"/>
<path d="M74.5876 43.906C73.7958 44.0826 73.673 44.6482 73.0628 44.9926C72.4942 45.3135 72.0535 45.9325 71.4426 46.2084C71.0259 46.3965 70.0081 44.215 69.8224 44.0028C69.3779 43.4947 71.2024 42.7609 71.5379 42.6688C72.2363 42.477 73.0131 42.1631 73.7299 42.1631C74.2854 42.1631 74.8659 42.0663 75.4401 42.0663C75.6644 42.0663 76.3705 41.8306 76.5678 41.991C77.058 42.3894 77.7714 42.4302 78.188 42.9592C78.347 43.1612 78.5056 43.5185 78.638 43.7608C78.7637 43.9906 79.0482 44.0617 79.1622 44.2933" stroke="white" stroke-width="3" stroke-linecap="round" stroke-linejoin="round"/>
<path d="M74.6829 43.9061C75.376 43.9061 76.0686 43.8586 76.7319 44.0083C77.0634 44.0832 77.8619 44.2657 78.0185 44.5839" stroke="white" stroke-width="3" stroke-linecap="round" stroke-linejoin="round"/>
<path d="M76.0172 46.7147C77.2229 45.4897 78.6609 44.5269 79.6916 43.1805C80.3262 42.3515 80.6066 41.0684 81.0683 40.1304" stroke="white" stroke-width="3" stroke-linecap="round" stroke-linejoin="round"/>
<path d="M78.6857 47.777C79.6936 46.9278 80.5098 45.8373 81.3542 44.8721C81.6078 44.5822 82.0737 43.7906 82.1166 43.4197C82.1767 42.9005 82.5931 42.4811 82.5931 41.9673" stroke="white" stroke-width="3" stroke-linecap="round" stroke-linejoin="round"/>
<path d="M72.9673 41.7755C73.0263 40.4885 74.2009 39.5527 74.7781 38.5264C75.053 38.0376 76.0171 37.5424 76.0171 36.9341" stroke="white" stroke-width="3" stroke-linecap="round" stroke-linejoin="round"/>
<path d="M72.1097 38.9666C72.9281 38.9666 73.5254 38.9436 74.2064 38.4824" stroke="white" stroke-width="3" stroke-linecap="round" stroke-linejoin="round"/>
<path d="M75.6359 41.6764C76.1554 40.8108 77.0403 40.3528 77.6373 39.5946C77.8244 39.357 78.4178 38.9192 77.9232 38.6532C77.5486 38.4517 77.0655 38.0049 77.0655 37.5612C77.0655 37.2477 75.7095 36.835 76.3984 36.835" stroke="white" stroke-width="3" stroke-linecap="round" stroke-linejoin="round"/>
<path d="M77.256 36.835C77.7736 37.5225 78.5642 37.9662 78.5903 38.8684C78.6049 39.3718 78.9152 39.8629 78.9715 40.3208C79.0143 40.6685 79.4986 40.9997 79.5433 41.3859C79.584 41.7371 80.1152 42.0428 80.1152 42.451" stroke="white" stroke-width="3" stroke-linecap="round" stroke-linejoin="round"/>
<path d="M79.3528 41.9681C78.9927 42.0394 78.5684 42.269 78.188 42.1402C77.8486 42.0253 77.6167 41.8189 77.3038 41.6776C76.9147 41.5019 76.0172 40.9699 76.0172 40.5156" stroke="white" stroke-width="3" stroke-linecap="round" stroke-linejoin="round"/>
<path d="M74.5875 44.1963C74.8714 44.577 75.4266 45.2005 75.5353 45.6971C75.6243 46.104 76.0677 46.4808 76.2077 46.9075" stroke="white" stroke-width="3" stroke-linecap="round" stroke-linejoin="round"/>
<path d="M76.9701 47.8738C76.826 47.5866 76.7166 47.2069 76.3983 47.0991" stroke="white" stroke-width="3" stroke-linecap="round" stroke-linejoin="round"/>
<path d="M81.7354 44.3906C81.7946 44.9398 81.9242 45.3735 82.016 45.8861C82.0515 46.0846 82.1166 46.2161 82.1166 46.424" stroke="white" stroke-width="3" stroke-linecap="round" stroke-linejoin="round"/>
<path d="M82.0213 46.9053C81.513 46.9053 81.0047 46.9053 80.4964 46.9053" stroke="white" stroke-width="3" stroke-linecap="round" stroke-linejoin="round"/>
</svg>
