<svg width="124" height="125" viewBox="0 0 124 125" fill="none" xmlns="http://www.w3.org/2000/svg">
<ellipse cx="62" cy="62.5" rx="61.5157" ry="62.5" fill="#549586"/>
<path d="M62.1311 43.293C62.6595 43.5025 63.0943 43.4038 63.0943 43.992C63.0943 44.3077 62.9567 44.5698 62.9567 44.9007C62.9567 45.4943 62.8191 46.0714 62.8191 46.7182C62.8191 48.0696 62.8191 49.421 62.8191 50.7725C62.8191 51.4137 62.9537 51.982 63.0867 52.5899C63.2428 53.3036 62.9004 54.1329 63.1631 54.8268C63.3354 55.2818 63.2319 55.9218 63.2319 56.4035C63.2319 56.8983 63.3695 57.3637 63.3695 57.8403C63.3695 58.5626 63.3695 59.285 63.3695 60.0073C63.3695 63.3091 64.0575 66.4282 64.0575 69.7469C64.0575 70.3155 64.007 70.9057 64.1263 71.4634C64.2201 71.9016 64.0485 72.5262 64.2257 72.9314C64.5062 73.5727 64.6079 74.6062 64.6079 75.308C64.6079 76.8447 64.4703 78.4308 64.4703 79.9215" stroke="white" stroke-width="3" stroke-linecap="round" stroke-linejoin="round"/>
<path d="M64.4704 80.1997C64.4704 80.8521 64.4704 81.5045 64.4704 82.157" stroke="white" stroke-width="3" stroke-linecap="round" stroke-linejoin="round"/>
<path d="M64.4704 82.2983C64.4704 84.2474 64.5094 86.1389 64.8832 88.0381C65.1025 89.152 65.1508 90.4197 65.4642 91.4943C65.6326 92.0717 65.421 92.7038 65.5789 93.2652C65.7699 93.9444 65.7088 94.7055 65.7088 95.4399C65.7088 96.2971 65.8464 97.1044 65.8464 97.9564C65.8464 99.7767 66.2432 101.494 66.5344 103.269" stroke="white" stroke-width="3" stroke-linecap="round" stroke-linejoin="round"/>
<path d="M66.2591 102.708C66.2591 104.231 66.0984 105.8 66.7025 107.181C66.9392 107.722 66.8514 108.219 66.9548 108.797C67.0687 109.433 67.2224 110.026 67.2224 110.676C67.2224 112.008 67.36 113.369 67.36 114.731C67.36 115.549 67.0456 117.786 67.9104 118.226" stroke="white" stroke-width="3" stroke-linecap="round" stroke-linejoin="round"/>
<path d="M67.9104 118.226C71.0426 118.226 73.9808 118.506 77.0992 118.506C78.9588 118.506 80.8543 118.67 82.5727 117.877C83.1155 117.626 83.7333 117.668 84.2851 117.419C84.6922 117.235 85.3449 117.248 85.7987 117.248" stroke="white" stroke-width="3" stroke-linecap="round" stroke-linejoin="round"/>
<path d="M85.6268 117.369C85.9583 116.938 86.2199 116.759 86.2199 116.214C86.2199 115.863 86.2199 115.511 86.2199 115.16C86.2199 114.565 86.5165 113.954 86.5165 113.352C86.5165 111.697 86.3188 110.096 86.3188 108.431" stroke="white" stroke-width="3" stroke-linecap="round" stroke-linejoin="round"/>
<path d="M81.4749 12.9126C81.6268 13.704 82.0467 14.3586 82.3151 15.1222C82.5528 15.7983 82.5117 16.489 82.738 17.1532C82.9663 17.8233 82.9681 18.6767 83.3037 19.2903C83.6708 19.9618 83.8953 20.7514 84.2208 21.4497C84.5391 22.1323 84.6348 22.9701 84.9842 23.6091C85.2664 24.1252 85.1621 24.7408 85.4071 25.2663C85.877 26.2741 86.2389 27.3137 86.7141 28.2793" stroke="white" stroke-width="3" stroke-linecap="round" stroke-linejoin="round"/>
<path d="M41.9331 12.0098C41.9331 13.503 41.3328 14.8437 40.9226 16.2504C40.6909 17.0448 40.504 17.8295 40.2745 18.6162C40.0955 19.23 39.988 19.9715 39.7363 20.5468C39.2481 21.6628 38.9675 22.8818 38.4951 23.9617C38.103 24.858 37.7812 26.1398 37.7812 27.1756" stroke="white" stroke-width="3" stroke-linecap="round" stroke-linejoin="round"/>
<path d="M39.5605 7.2959C39.4785 7.72293 39.5564 8.30972 39.3848 8.702C39.2545 8.99975 39.4711 9.40862 39.3408 9.70636C39.1015 10.2535 39.003 10.9745 38.874 11.5644C38.538 13.1007 38.1195 14.6122 37.7756 16.1845C37.3357 18.1958 36.5949 20.1725 36.5949 22.2609C36.5949 24.6011 36.1006 26.9548 36.1006 29.2914" stroke="white" stroke-width="3" stroke-linecap="round" stroke-linejoin="round"/>
<path d="M39.4767 7.20215C39.9407 7.20215 40.4046 7.20215 40.8686 7.20215C41.3993 7.20215 41.8428 7.42162 42.3478 7.53565C42.665 7.60727 42.9646 7.73704 43.2764 7.82904C43.6117 7.92793 43.947 7.98778 44.2716 8.10555C44.7462 8.27777 45.3384 8.22231 45.8339 8.26808C46.3424 8.31505 46.863 8.39872 47.3484 8.54881C47.631 8.63621 47.9327 8.75096 48.2272 8.78943C48.6005 8.83821 48.9758 8.83643 49.3469 8.91186C49.5806 8.95934 49.796 9.06466 50.0304 9.11027C50.3543 9.17327 50.6881 9.24287 51.0131 9.29179C51.3595 9.34393 51.7003 9.41071 52.0498 9.45221C52.6739 9.52633 53.2357 9.72019 53.8364 9.89969" stroke="white" stroke-width="3" stroke-linecap="round" stroke-linejoin="round"/>
<path d="M52.191 9.3291C52.6023 9.3291 53.0137 9.3291 53.425 9.3291C53.523 9.3291 53.6134 9.38558 53.7076 9.40298C53.97 9.45146 54.2264 9.52737 54.4929 9.56551C55.8788 9.76382 57.2808 9.91165 58.6146 10.3634C58.8037 10.4274 58.992 10.4539 59.1839 10.4985C59.5349 10.58 59.9103 10.6325 60.2683 10.6884C60.6017 10.7405 60.9849 10.8108 61.3154 10.8108C61.4128 10.8108 61.4276 10.6902 61.4276 10.6019C61.4276 10.4631 61.4693 10.4659 61.5772 10.3929" stroke="white" stroke-width="3" stroke-linecap="round" stroke-linejoin="round"/>
<path d="M61.5772 10.3931C62.0204 10.3931 62.4636 10.3931 62.9068 10.3931C63.506 10.3931 64.0993 10.3172 64.6976 10.3172C65.1407 10.3172 65.6038 10.3541 66.0459 10.315C66.4672 10.2778 66.8732 10.0307 67.2592 10.3003C67.4265 10.4171 67.4612 10.5451 67.6809 10.5451C68.0769 10.5451 68.4895 10.3283 68.8485 10.1652C69.3138 9.95369 69.8558 9.98304 70.3277 9.82324" stroke="white" stroke-width="3" stroke-linecap="round" stroke-linejoin="round"/>
<path d="M70.1407 9.78502C70.6675 9.78502 71.2085 9.60171 71.7092 9.44519C72.0453 9.34013 72.4265 9.19538 72.7729 9.14124C73.2003 9.07444 73.6157 8.93482 74.0443 8.85418C74.8185 8.70851 75.5464 8.41726 76.34 8.41726C76.7248 8.41726 77.1107 8.45525 77.4868 8.45525C77.6855 8.45525 77.8798 8.50674 78.0872 8.49113C78.3966 8.46784 78.687 8.34127 79.0013 8.34127C79.9055 8.34127 80.758 7.92334 81.6584 7.92334" stroke="white" stroke-width="3" stroke-linecap="round" stroke-linejoin="round"/>
<path d="M81.1722 7.85382C81.3806 7.85382 81.6157 7.82977 81.8163 7.76939C82.0064 7.71214 82.227 7.70462 82.4063 7.62586C82.8018 7.45211 83.2202 7.42753 83.632 7.35146C83.7879 7.32267 84.4 7.21992 84.5378 7.35991C84.6912 7.51576 84.7248 7.96357 84.7248 8.17677C84.7248 9.33845 85.5475 10.3143 85.5475 11.4632" stroke="white" stroke-width="3" stroke-linecap="round" stroke-linejoin="round"/>
<path d="M42.5057 7.42871C42.8681 7.48908 43.2673 7.63518 43.6192 7.7411C43.8994 7.82544 44.2019 7.79529 44.4897 7.86353C45.0991 8.00799 45.7544 7.92341 46.3574 8.0936C47.0252 8.28208 47.763 8.26457 48.4515 8.26457" stroke="white" stroke-width="3" stroke-linecap="round" stroke-linejoin="round"/>
<path d="M48.4514 8.26758C49.2963 8.26758 50.048 8.43517 50.8821 8.56308C51.4266 8.64659 51.9528 8.64751 52.5088 8.64751C53.4007 8.64751 54.2927 8.64751 55.1846 8.64751C55.6008 8.64751 56.017 8.64751 56.4332 8.64751C56.7594 8.64751 57.1079 8.6814 57.4263 8.60952" stroke="white" stroke-width="3" stroke-linecap="round" stroke-linejoin="round"/>
<path d="M57.3141 8.75879C60.6897 8.75879 64.0379 8.88086 67.4108 8.88086" stroke="white" stroke-width="3" stroke-linecap="round" stroke-linejoin="round"/>
<path d="M67.4108 8.87522C68.7836 8.87522 70.1308 8.86524 71.4951 8.98075C72.0909 9.03119 72.7018 9.02719 73.3005 9.02719C73.4666 9.02719 73.6207 8.98525 73.7846 8.95965C73.9176 8.93886 74.2194 9.02171 74.2915 8.87522" stroke="white" stroke-width="3" stroke-linecap="round" stroke-linejoin="round"/>
<path d="M36.1476 28.7817C36.1476 29.1238 36.1476 29.4659 36.1476 29.808C36.1476 30.2361 36.2329 30.6324 36.2794 31.0573C36.3659 31.8485 36.4111 32.6032 36.4111 33.4022C36.4111 36.1501 36.3233 38.8826 36.3233 41.6318" stroke="white" stroke-width="3" stroke-linecap="round" stroke-linejoin="round"/>
<path d="M36.3672 41.2778C36.3672 41.5422 36.3672 41.8066 36.3672 42.071C36.3672 42.2445 36.3634 42.5193 36.3013 42.6833C36.2059 42.9354 36.2794 43.3303 36.2794 43.598C36.2794 43.969 36.2794 44.34 36.2794 44.711C36.2794 45.1779 36.2934 45.685 36.2013 46.1412C36.0237 47.0208 36.1037 47.9692 36.1037 48.863" stroke="white" stroke-width="3" stroke-linecap="round" stroke-linejoin="round"/>
<path d="M36.1043 48.9512C36.1043 49.8844 36.1027 50.8139 36.058 51.7448C36.0288 52.3527 35.9287 52.9524 35.9287 53.5642C35.9287 53.6912 36.0117 54.2855 35.8848 54.35" stroke="white" stroke-width="3" stroke-linecap="round" stroke-linejoin="round"/>
<path d="M35.8848 54.3516C35.8848 55.096 35.8848 55.8405 35.8848 56.585C35.8848 56.9674 35.8788 57.3503 35.8848 57.7326C35.8905 58.0995 36.0112 58.4702 36.0605 58.8332C36.1405 59.4226 36.2361 59.9912 36.2361 60.5882C36.2361 61.2829 36.0507 61.9567 36.0165 62.6506" stroke="white" stroke-width="3" stroke-linecap="round" stroke-linejoin="round"/>
<path d="M36.0159 62.3379C36.0159 63.0188 36.0228 63.6943 35.9695 64.3705C35.9564 64.5379 35.9296 64.7178 35.8939 64.8811C35.8636 65.0199 35.913 65.1707 35.8622 65.305C35.7468 65.6099 35.8408 66.1152 35.9061 66.4205C35.9883 66.8045 36.0704 67.1853 36.1013 67.5781C36.1795 68.5717 36.1916 69.5886 36.1916 70.5873C36.1916 72.0571 35.7289 73.5516 36.0159 75.0095" stroke="white" stroke-width="3" stroke-linecap="round" stroke-linejoin="round"/>
<path d="M35.9291 75.0078C35.9291 76.2351 35.9352 77.443 36.1267 78.6492C36.2786 79.6059 36.2804 80.5462 36.2804 81.5122C36.2804 81.8096 36.2804 82.1071 36.2804 82.4045C36.2804 82.6607 36.2804 82.9168 36.2804 83.173C36.2804 84.3775 36.6521 85.4359 37.027 86.564" stroke="white" stroke-width="3" stroke-linecap="round" stroke-linejoin="round"/>
<path d="M36.4111 84.7363C36.4111 85.1231 36.5039 85.6548 36.3891 86.0278C36.3373 86.1962 36.3233 86.4344 36.3233 86.6103C36.3233 86.9125 36.3044 87.2009 36.2818 87.5002C36.2531 87.8795 36.3407 88.2904 36.2574 88.6627C36.1792 89.0121 36.2354 89.4305 36.2354 89.7881C36.2354 90.3731 36.2354 90.9581 36.2354 91.5431C36.2354 91.929 36.3233 92.3082 36.3233 92.6982C36.3233 93.0692 36.3233 93.4402 36.3233 93.8112C36.3233 94.0524 36.3144 94.1833 36.455 94.3739" stroke="white" stroke-width="3" stroke-linecap="round" stroke-linejoin="round"/>
<path d="M36.3672 93.8823C36.3672 94.5281 36.3516 95.1623 36.2818 95.8009C36.2514 96.079 36.1915 96.3655 36.1915 96.6487C36.1915 97.2848 36.2206 97.8931 36.2769 98.5226C36.3624 99.478 36.4111 100.413 36.4111 101.378C36.4111 102.081 36.4111 102.783 36.4111 103.485C36.4111 104.031 36.3944 104.579 36.4135 105.124C36.4505 106.176 36.6627 107.181 36.8942 108.205" stroke="white" stroke-width="3" stroke-linecap="round" stroke-linejoin="round"/>
<path d="M36.8943 108.203C36.8943 109.018 36.9373 109.843 36.7967 110.647C36.7362 110.993 36.6822 111.367 36.6747 111.718C36.6581 112.494 36.6747 113.275 36.6747 114.048C36.6747 114.283 36.7625 114.526 36.7625 114.762C36.7625 114.993 36.7625 115.225 36.7625 115.456C36.7625 115.9 36.8064 116.361 36.8064 116.814C36.8064 116.979 36.7866 117.127 36.9821 117.127C37.2683 117.127 37.5546 117.127 37.8409 117.127C38.5819 117.127 39.315 117.082 40.0562 117.082C40.5391 117.082 41.0216 117.038 41.5078 117.038C41.9447 117.038 42.3359 117.158 42.7619 117.238C43.9748 117.467 45.2238 117.55 46.424 117.841" stroke="white" stroke-width="3" stroke-linecap="round" stroke-linejoin="round"/>
<path d="M56.6123 103.876C56.6123 104.833 56.5611 105.725 56.2708 106.632C56.0237 107.405 55.8885 108.178 55.734 108.962" stroke="white" stroke-width="3" stroke-linecap="round" stroke-linejoin="round"/>
<path d="M56.4367 106.643C56.4367 107.057 56.4596 107.479 56.4342 107.892C56.4239 108.06 56.3579 108.221 56.3488 108.383C56.3404 108.533 56.2923 108.711 56.239 108.852C56.1734 109.025 56.1952 109.238 56.1634 109.419C56.0236 110.218 55.9536 111.004 55.9536 111.819C55.9536 112.629 55.7779 113.414 55.7779 114.226C55.7779 114.982 55.734 115.777 55.734 116.548" stroke="white" stroke-width="3" stroke-linecap="round" stroke-linejoin="round"/>
<path d="M55.7341 116.546C55.7341 116.81 55.8295 117.329 55.7121 117.592C55.6404 117.752 55.6125 118.02 55.6023 118.197C55.5897 118.414 55.2885 118.121 55.2046 118.11C54.918 118.074 54.6058 118.018 54.319 118.018C53.8032 118.018 53.3038 117.884 52.7917 117.884C52.2989 117.884 51.8222 117.974 51.34 117.974C50.2834 117.974 49.2373 118.018 48.1781 118.018C47.7806 118.018 47.3772 117.974 46.9924 117.974C46.8033 117.974 46.5983 117.998 46.4239 117.919C46.3396 117.881 46.2688 117.906 46.1848 117.882C46.1197 117.863 46.0991 117.774 46.0287 117.751" stroke="white" stroke-width="3" stroke-linecap="round" stroke-linejoin="round"/>
<path d="M62.0579 43.5498C62.0579 43.8982 62.0416 44.2602 61.9676 44.5983C61.9248 44.794 61.7773 44.9603 61.7529 45.1585C61.6829 45.7273 61.486 46.2879 61.3333 46.8466C61.2435 47.1749 61.1796 47.515 61.1796 47.858C61.1796 48.1992 61.2185 48.57 61.1454 48.904C61.0723 49.2382 61.0557 49.6418 61.0478 49.9848C61.0418 50.2462 61.0039 50.5099 61.0039 50.778" stroke="white" stroke-width="3" stroke-linecap="round" stroke-linejoin="round"/>
<path d="M61.0478 50.4238C61.0478 51.4393 60.96 52.4271 60.96 53.4356C60.96 54.1659 60.8721 54.8734 60.8721 55.5996" stroke="white" stroke-width="3" stroke-linecap="round" stroke-linejoin="round"/>
<path d="M60.7844 55.9557C60.8089 55.8396 60.9537 55.4642 60.9503 55.4748C60.8783 55.7034 60.8465 55.946 60.7942 56.1788C60.727 56.4774 60.7582 56.8031 60.7063 57.1059C60.6605 57.3739 60.6527 57.6904 60.6527 57.9635C60.6527 59.4079 60.6694 60.8498 60.5429 62.289C60.4837 62.9627 60.4646 63.6318 60.3916 64.2993C60.3202 64.952 60.3453 65.6303 60.3453 66.2873C60.3453 66.9579 60.32 67.6118 60.255 68.2728C60.2114 68.7157 60.1379 69.1621 60.0622 69.6015C60.0357 69.7556 60.0091 70.0697 59.8622 70.1443" stroke="white" stroke-width="3" stroke-linecap="round" stroke-linejoin="round"/>
<path d="M60.0378 70.0996C60.0378 71.1481 59.8497 72.1882 59.6768 73.2229C59.5889 73.7488 59.5548 74.3202 59.5548 74.8539C59.5548 75.3998 59.4788 75.9493 59.4669 76.4899C59.4564 76.971 59.3791 77.4524 59.3791 77.9301C59.3791 78.3591 59.3256 78.8799 59.2034 79.291C59.1184 79.5771 59.1318 79.8824 59.0717 80.1734C59.0155 80.4456 58.9623 80.7097 58.9375 80.9865C58.9144 81.245 58.7643 82.0045 58.7643 81.745" stroke="white" stroke-width="3" stroke-linecap="round" stroke-linejoin="round"/>
<path d="M58.7642 81.6987C58.7642 82.0854 58.7642 82.4721 58.7642 82.8588C58.7642 83.0715 58.7988 83.321 58.7422 83.5281C58.636 83.9166 58.6222 84.3739 58.5861 84.7774C58.5368 85.3285 58.5427 85.8858 58.4909 86.4382C58.4408 86.9728 58.4345 87.5094 58.3787 88.0444C58.3463 88.3558 58.38 88.7118 58.3153 89.0161C58.144 89.8211 57.9679 90.6362 57.82 91.4478C57.6367 92.4534 57.4467 93.4677 57.4467 94.5042" stroke="white" stroke-width="3" stroke-linecap="round" stroke-linejoin="round"/>
<path d="M57.4907 94.1953C57.4907 94.7762 57.5067 95.3598 57.4883 95.9404C57.4715 96.4672 57.3428 96.9869 57.3175 97.5144C57.285 98.1921 57.2565 98.8675 57.2248 99.5446C57.1898 100.29 57.0449 101.027 56.954 101.766C56.8773 102.388 56.7403 102.986 56.6222 103.6C56.6008 103.711 56.5894 103.867 56.4807 103.922" stroke="white" stroke-width="3" stroke-linecap="round" stroke-linejoin="round"/>
<path d="M86.1334 108.136C86.1334 105.329 86.694 102.651 86.694 99.8459C86.694 98.2793 86.8061 96.639 86.8061 95.0366" stroke="white" stroke-width="3" stroke-linecap="round" stroke-linejoin="round"/>
<path d="M85.1245 11.0874C85.1245 12.2032 85.2366 13.3473 85.2366 14.4413C85.2366 14.8291 85.3487 15.1071 85.3487 15.4727C85.3487 15.868 85.7374 16.3415 85.7909 16.7763C85.8939 17.6136 86.0478 18.4355 86.1397 19.2759C86.2717 20.4828 87.1016 21.5066 87.2483 22.6993C87.3185 23.2698 87.4788 23.7726 87.4788 24.3573C87.4788 24.7074 87.4992 25.3696 87.5971 25.7178C88.188 27.819 87.703 30.3194 87.703 32.5014C87.703 33.635 87.5909 34.77 87.5909 35.9185C87.5909 37.0459 87.8151 38.2579 87.8151 39.4496" stroke="white" stroke-width="3" stroke-linecap="round" stroke-linejoin="round"/>
<path d="M87.8151 39.4526C87.8151 43.8575 87.703 48.2475 87.703 52.6655C87.703 54.7904 88.1514 56.832 88.1514 58.9556C88.1514 61.5017 88.2257 64.0345 87.9272 66.5619" stroke="white" stroke-width="3" stroke-linecap="round" stroke-linejoin="round"/>
<path d="M87.703 66.7891C87.703 68.271 87.9273 69.7059 87.9273 71.1807C87.9273 72.3071 87.9273 73.4335 87.9273 74.5599C87.9273 76.0912 87.9273 77.6226 87.9273 79.154C87.9273 83.5175 87.6932 87.8334 87.4788 92.1897" stroke="white" stroke-width="3" stroke-linecap="round" stroke-linejoin="round"/>
<path d="M87.4787 92.9875C87.344 93.7232 87.3438 94.525 87.1175 95.2403C87.0533 95.4432 87.0652 95.7053 86.9431 95.8604C86.8278 96.0068 86.9182 96.268 86.9182 95.8351C86.9182 95.4913 86.9182 95.1475 86.9182 94.8037C86.9182 93.4747 86.5574 89.6347 87.1424 90.8233" stroke="white" stroke-width="3" stroke-linecap="round" stroke-linejoin="round"/>
<path d="M87.5909 91.9595C87.5808 92.5539 87.3667 93.0983 87.3667 93.668" stroke="white" stroke-width="3" stroke-linecap="round" stroke-linejoin="round"/>
<path d="M52.1456 9.80762C52.1374 10.2266 51.9243 10.6548 51.9243 11.0441C51.9243 11.2612 51.9469 11.478 51.867 11.6811C51.7732 11.9192 51.7768 12.4654 51.7768 12.7261C51.7768 12.9391 51.703 13.1127 51.703 13.3298C51.703 13.8792 51.6293 14.4798 51.6293 15.0534C51.6293 15.1375 51.5825 15.5484 51.6703 15.5739C51.8313 15.6206 52.1323 15.6439 52.2931 15.653C52.4507 15.6618 52.6908 15.6927 52.8422 15.6488C52.9302 15.6233 52.93 14.6871 52.9406 14.6038C53.0267 13.9229 53.3258 13.2758 53.3258 12.5971C53.3258 12.0414 53.3995 11.4643 53.3995 10.9317C53.3995 10.5858 53.3419 10.002 53.6946 9.88256" stroke="white" stroke-width="3" stroke-linecap="round" stroke-linejoin="round"/>
<path d="M39.09 11.6067C39.6027 11.6067 40.1635 11.5438 40.6718 11.615C41.0285 11.665 41.3719 11.8805 41.729 11.9065C42.1849 11.9395 42.7826 11.9702 43.2206 12.0938C43.4773 12.1663 43.8232 12.1939 44.0893 12.2062C44.4586 12.2233 44.8118 12.3763 45.1752 12.431C45.7337 12.5151 46.2866 12.7426 46.8348 12.8973C48.2547 13.298 49.7723 13.4802 51.2604 13.4802" stroke="white" stroke-width="3" stroke-linecap="round" stroke-linejoin="round"/>
<path d="M53.3257 13.7036C54.3635 13.7036 55.2967 13.8371 56.3171 14.0034C56.849 14.09 57.377 14.1533 57.9153 14.1533C58.2843 14.1533 58.6057 14.0783 58.9684 14.0783C59.3048 14.0783 59.5082 14.2939 59.7838 14.3739C59.9377 14.4186 60.5005 14.4937 60.5542 14.6029" stroke="white" stroke-width="3" stroke-linecap="round" stroke-linejoin="round"/>
<path d="M65.2011 14.4546C65.2011 17.1255 65.2749 19.7854 65.2749 22.4565C65.2749 23.1615 65.2749 23.8665 65.2749 24.5715C65.2749 25.1254 65.1274 25.6706 65.1274 26.2202C65.1274 27.0261 65.0085 27.8621 64.9798 28.6766C64.9651 29.0956 64.853 29.9046 64.5537 30.2087C64.3447 30.421 63.9459 30.7526 63.8161 31.0164C63.6653 31.3228 63.365 31.8254 62.9719 31.8407C62.5169 31.8585 62.1051 32.2154 61.6606 32.2154" stroke="white" stroke-width="3" stroke-linecap="round" stroke-linejoin="round"/>
<path d="M60.4067 14.5312C61.4706 14.5312 62.6297 14.6697 63.6562 14.3438C64.2772 14.1467 64.9898 13.9316 65.6395 13.9316C66.0679 13.9316 66.4941 14.0815 66.9344 14.0815C67.3401 14.0815 67.7458 14.0815 68.1515 14.0815C68.7472 14.0815 69.3326 14.0066 69.9217 14.0066" stroke="white" stroke-width="3" stroke-linecap="round" stroke-linejoin="round"/>
<path d="M61.2181 14.6064C61.2181 15.4636 60.9968 16.2541 60.9968 17.1128C60.9968 18.0872 60.923 19.0768 60.923 20.0604C60.923 21.5991 61.1443 23.1147 61.1443 24.6651C61.1443 25.4271 60.9989 26.3484 61.1607 27.0881C61.3032 27.7394 61.1933 28.4299 61.3082 29.0866C61.4549 29.9247 61.3656 30.8239 61.3656 31.6762C61.3656 31.8779 61.4584 32.5824 61.2918 32.667" stroke="white" stroke-width="3" stroke-linecap="round" stroke-linejoin="round"/>
<path d="M68.9629 10.2602C69.259 10.9621 69.6803 11.5731 69.8439 12.321C69.9719 12.9064 69.9218 13.5716 69.9218 14.1987C69.9218 14.6179 69.8794 15.1337 70.1431 15.4685C70.3435 15.7231 70.8933 15.8736 71.2126 15.8016C71.3526 15.77 71.692 15.7255 71.692 15.5434C71.692 15.3746 71.5553 15.0623 71.4871 14.9065C71.2335 14.3267 71.2571 13.4406 71.1798 12.8123C71.1016 12.1771 71.0049 11.4434 70.7495 10.8597C70.6217 10.5676 70.5119 9.97043 70.5119 9.66064" stroke="white" stroke-width="3" stroke-linecap="round" stroke-linejoin="round"/>
<path d="M70.8069 13.7072C71.4313 13.7072 71.9243 13.6165 72.528 13.499C72.8803 13.4304 73.2608 13.5041 73.618 13.4782C74.646 13.4036 75.7109 12.8814 76.7077 12.6247C77.4556 12.4321 78.2279 12.2833 78.9983 12.2833C79.5039 12.2833 80.0031 12.1475 80.5022 12.1334C81.4167 12.1076 82.2673 11.7587 83.1986 11.7587C83.6111 11.7587 84.0258 11.7237 84.4156 11.5714C84.7195 11.4526 85.231 11.3091 85.5589 11.3091" stroke="white" stroke-width="3" stroke-linecap="round" stroke-linejoin="round"/>
<path d="M62.6933 11.3833C62.0116 11.6776 61.5416 12.2322 61.8983 12.957C62.1222 13.412 63.0047 13.6481 63.3735 13.2734C63.7917 12.8485 64.021 12.3707 64.021 11.758C64.021 11.4558 63.7834 11.3083 63.5046 11.3083C63.1795 11.3083 62.851 11.2334 62.5458 11.2334" stroke="white" stroke-width="3" stroke-linecap="round" stroke-linejoin="round"/>
<path d="M62.7459 11.9886C62.7597 11.9944 62.8067 12.0252 62.8132 11.9938C62.8161 11.9798 62.8143 11.9733 62.804 11.9678" stroke="white" stroke-width="3" stroke-linecap="round" stroke-linejoin="round"/>
<path d="M63.2452 11.958C63.2349 11.987 63.2261 12.011 63.2261 12.0416" stroke="white" stroke-width="3" stroke-linecap="round" stroke-linejoin="round"/>
<path d="M62.6978 12.4708C62.697 12.4363 62.7011 12.4189 62.6691 12.4189" stroke="white" stroke-width="3" stroke-linecap="round" stroke-linejoin="round"/>
<path d="M62.9764 12.4248C62.9965 12.4297 63.0158 12.4359 63.0336 12.4457" stroke="white" stroke-width="3" stroke-linecap="round" stroke-linejoin="round"/>
</svg>
